<?xml version="1.0" encoding="UTF-8" standalone="no"?>
<!-- Created with Inkscape (http://www.inkscape.org/) -->

<svg
 xmlns:dc="http://purl.org/dc/elements/1.1/"
 xmlns:cc="http://creativecommons.org/ns#"
 xmlns:rdf="http://www.w3.org/1999/02/22-rdf-syntax-ns#"
 xmlns:svg="http://www.w3.org/2000/svg"
 xmlns="http://www.w3.org/2000/svg"
 xmlns:xlink="http://www.w3.org/1999/xlink"
 xmlns:sodipodi="http://sodipodi.sourceforge.net/DTD/sodipodi-0.dtd"
 xmlns:inkscape="http://www.inkscape.org/namespaces/inkscape"
 width="40"
 height="40"
 id="svg2"
 version="1.1"
 inkscape:version="0.48.1 r9760"
 sodipodi:docname="level15.svg"
 levelName="Cake is a lie">
<defs
 id="defs4" />
<sodipodi:namedview
 id="base"
 pagecolor="#000000"
 bordercolor="#666666"
 borderopacity="1.0"
 inkscape:pageopacity="1"
 inkscape:pageshadow="2"
 inkscape:zoom="18.7056"
 inkscape:cx="21.9194"
 inkscape:cy="23.05"
 inkscape:document-units="px"
 inkscape:current-layer="layer4"
 showgrid="true"
 units="px"
 inkscape:window-width="1440"
 inkscape:window-height="849"
 inkscape:window-x="0"
 inkscape:window-y="24"
 inkscape:window-maximized="1"
 showguides="true"
 inkscape:guide-bbox="true"
 inkscape:snap-global="false">
<inkscape:grid
 type="xygrid"
 id="grid3765"
 empspacing="5"
 visible="true"
 enabled="true"
 snapvisiblegridlinesonly="true" />
<sodipodi:guide
 orientation="1,0"
 position="-1840,4810"
 id="guide3838" />
<sodipodi:guide
 orientation="1,0"
 position="-960,5720"
 id="guide3840" />
</sodipodi:namedview>
<metadata
 id="metadata7">
<rdf:RDF>
<cc:Work
 rdf:about="">
<dc:format>image/svg+xml</dc:format>
<dc:type
 rdf:resource="http://purl.org/dc/dcmitype/StillImage" />
<dc:title />
</cc:Work>
</rdf:RDF>
</metadata>
<g
 inkscape:label="templates"
 inkscape:groupmode="layer"
 id="layer1">
<text
 xml:space="preserve"
 style="font-size:0.420555px;font-style:normal;font-variant:normal;font-weight:normal;font-stretch:normal;line-height:125%;letter-spacing:0px;word-spacing:0px;fill:#ffffff;fill-opacity:1;stroke:none;font-family:Arial;-inkscape-font-specification:Arial"
 x="-3.82528"
 y="2.5579183"
 id="text3800"
 sodipodi:linespacing="125%"
 transform="scale(1.09098,0.916607)"><tspan
 sodipodi:role="line"
 id="tspan3802"
 x="-3.82528"
 y="2.5579183">start planet</tspan><tspan
 sodipodi:role="line"
 x="-3.82528"
 y="3.083612"
 id="tspan3804" /></text>
<image
 sodipodi:absref="/home/acoppes/workspace/superflyingthing/superflyingthing-desktop/src/main/resources/data/levels/../images/planet.png"
 xlink:href="../images/planet.png"
 y="0"
 x="-4"
 id="image3824-5"
 height="2"
 width="2"
 startPlanet="" />
<image
 sodipodi:absref="/home/acoppes/workspace/superflyingthing/superflyingthing-desktop/src/main/resources/data/levels/../images/planet.png"
 xlink:href="../images/planet.png"
 y="5"
 x="-4"
 id="image3824-5-1"
 height="2"
 width="2"
 destinationPlanet="" />
<text
 xml:space="preserve"
 style="font-size:0.420555px;font-style:normal;font-variant:normal;font-weight:normal;font-stretch:normal;line-height:125%;letter-spacing:0px;word-spacing:0px;fill:#ffffff;fill-opacity:1;stroke:none;font-family:Arial;-inkscape-font-specification:Arial"
 x="-4.2697434"
 y="8.116293"
 id="text3800-7"
 sodipodi:linespacing="125%"
 transform="scale(1.09098,0.916607)"><tspan
 sodipodi:role="line"
 x="-4.2697434"
 y="8.116293"
 id="tspan3906">destination planet</tspan><tspan
 sodipodi:role="line"
 x="-4.2697434"
 y="8.6419868"
 id="tspan3804-9" /></text>
<image
 sodipodi:absref="/home/acoppes/workspace/superflyingthing/superflyingthing-desktop/src/main/resources/data/levels/../images/white-rectangle-direction.png"
 xlink:href="../images/white-rectangle-direction.png"
 y="9.7923"
 x="-3.79748"
 id="image3209"
 height="1"
 width="1" />
</g>
<g
 inkscape:groupmode="layer"
 id="layer2"
 inkscape:label="Obstacles">
<path
 style="fill:#ffff00;fill-opacity:1;fill-rule:nonzero;stroke:none"
 d="M 2.23988,7.34104 2.74566,5.24566 3.54046,4.66763 4.98555,3.80058 7.58671,4.66763 9.9711,5.39017 10.9104,6.11272 11.2717,8.3526 10.2718,10.4956 11.4366,12.4812 10.6418,15.3713 10.7141,17.3945 12.0189,18.7138 13.7283,19.263 16.6755,19.8681 18.2308,19.6462 19.5905,19.8454 21.2428,19.0462 22.9769,19.4075 24.2775,19.263 26.3494,17.2416 27.7482,14.7286 27.9749,11.48 27.0849,9.24308 25.7484,7.89484 22.4711,8.56936 17.8468,8.78613 15.6792,8.3526 13.8006,6.6185 13.5838,5.0289 13.6561,2.64451 15.3179,2.06647 18.7861,2.5 22.3988,2.57225 25,2 25,0 0,0 0,10 0,20 3.71072,20 4.44344,18.2297 3.43188,15.5563 3.79315,11.5823 2.16763,7.77457 z"
 id="path3037"
 inkscape:connector-curvature="0"
 sodipodi:nodetypes="ccccccccccccccccccccccccccccccccccccccccccccc" />
<path
 style="fill:#ffff00;fill-opacity:1;fill-rule:nonzero;stroke:none"
 d="M 36.8463,32.789 37.2244,34.8783 36.4228,35.4467 34.9674,36.2966 32.3768,35.3985 30.8031,34.5942 29.8725,33.8605 29.5379,31.6165 30.5576,29.4218 28.7738,27.5218 29.603,24.6414 29.5548,22.6175 29.8698,20.6027 27.0227,18.2532 24.4554,20.9968 22.7249,20.6872 21.1414,20.1625 18.8931,20.8583 17.1634,20.4764 15.9948,20.6589 11.1314,19.4625 11.8764,24.1369 10.6525,25.5433 12.604,26.0425 12.8478,28.745 13.9067,31.4296 16.5777,32.175 21.3111,31.4254 24.3288,31.6174 26.1866,33.3738 26.3845,34.9659 26.2838,37.3493 24.6152,37.9074 21.1524,37.4326 17.5408,37.3173 15,38 15,40 40,40 40,31 40,20 36.0688,20.0401 36.1058,22.1582 37.0855,24.8434 36.6769,28.8128 36.9238,32.3564 z"
 id="path3037-3"
 inkscape:connector-curvature="0"
 sodipodi:nodetypes="cccccccccccccccccccccccccccccccccccccccccccccc" />
<path
 style="fill:#ffff00;fill-opacity:1;fill-rule:nonzero;stroke:none"
 d="M 3.76418,20 4.15024,22.0321 5.49677,24.7919 5.66591,27.4812 5.16013,29.5766 5.01563,31.7443 5.16013,33.6951 5.73817,34.7067 7.98222,34.0868 7.29059,36.029 9.53757,37.1098 12.5,36.4595 15,38 15,40 0,40 0,20 z"
 id="path3057"
 inkscape:connector-curvature="0"
 sodipodi:nodetypes="ccccccccccccccccc" />
<path
 style="fill:#ffff00;fill-opacity:1;fill-rule:nonzero;stroke:none"
 d="M 36.0754,20.0535 34.3282,16.4588 34.9161,15.3079 34.2878,12.7734 34.8116,10.6825 34.9748,8.51606 34.8471,6.56408 34.2779,5.54753 33.0521,5.24794 32.0978,3.86899 30.6603,2.98954 27.6924,3.61425 25,2 25,0 40,0 40,20 z"
 id="path3057-0"
 inkscape:connector-curvature="0"
 sodipodi:nodetypes="ccccccccccccccccc" />
</g>
<g
 inkscape:groupmode="layer"
 id="layer4"
 inkscape:label="Items">
<image
 sodipodi:absref="/home/acoppes/workspace/superflyingthing/superflyingthing-desktop/src/main/resources/data/levels/../images/white-rectangle-direction.png"
 xlink:href="../images/white-rectangle-direction.png"
 width="1"
 height="1"
 id="image3209-2"
 x="6.69338"
 y="14.1907" />
<image
 width="1"
 height="1"
 id="image3209-2-4"
 x="7.51899"
 y="21.0028"
 xlink:href="/home/acoppes/workspace/superflyingthing/superflyingthing-desktop/src/main/resources/data/levels/../images/white-rectangle-direction.png"
 sodipodi:absref="/home/acoppes/workspace/superflyingthing/superflyingthing-desktop/src/main/resources/data/levels/../images/white-rectangle-direction.png" />
<image
 width="1"
 height="1"
 id="image3209-2-8"
 x="8.53472"
 y="26.9904"
 xlink:href="/home/acoppes/workspace/superflyingthing/superflyingthing-desktop/src/main/resources/data/levels/../images/white-rectangle-direction.png"
 sodipodi:absref="/home/acoppes/workspace/superflyingthing/superflyingthing-desktop/src/main/resources/data/levels/../images/white-rectangle-direction.png" />
<image
 width="1"
 height="1"
 id="image3209-2-9"
 x="12.0631"
 y="32.3363"
 xlink:href="/home/acoppes/workspace/superflyingthing/superflyingthing-desktop/src/main/resources/data/levels/../images/white-rectangle-direction.png"
 sodipodi:absref="/home/acoppes/workspace/superflyingthing/superflyingthing-desktop/src/main/resources/data/levels/../images/white-rectangle-direction.png" />
<image
 width="1"
 height="1"
 id="image3209-2-2"
 x="33.1263"
 y="27.525"
 xlink:href="/home/acoppes/workspace/superflyingthing/superflyingthing-desktop/src/main/resources/data/levels/../images/white-rectangle-direction.png"
 sodipodi:absref="/home/acoppes/workspace/superflyingthing/superflyingthing-desktop/src/main/resources/data/levels/../images/white-rectangle-direction.png" />
<image
 width="1"
 height="1"
 id="image3209-2-3"
 x="32.4313"
 y="21.3236"
 xlink:href="/home/acoppes/workspace/superflyingthing/superflyingthing-desktop/src/main/resources/data/levels/../images/white-rectangle-direction.png"
 sodipodi:absref="/home/acoppes/workspace/superflyingthing/superflyingthing-desktop/src/main/resources/data/levels/../images/white-rectangle-direction.png" />
<image
 width="1"
 height="1"
 id="image3209-2-5"
 x="31.1483"
 y="14.3738"
 xlink:href="/home/acoppes/workspace/superflyingthing/superflyingthing-desktop/src/main/resources/data/levels/../images/white-rectangle-direction.png"
 sodipodi:absref="/home/acoppes/workspace/superflyingthing/superflyingthing-desktop/src/main/resources/data/levels/../images/white-rectangle-direction.png" />
<image
 width="1"
 height="1"
 id="image3209-2-42"
 x="28.6891"
 y="8.27942"
 xlink:href="/home/acoppes/workspace/superflyingthing/superflyingthing-desktop/src/main/resources/data/levels/../images/white-rectangle-direction.png"
 sodipodi:absref="/home/acoppes/workspace/superflyingthing/superflyingthing-desktop/src/main/resources/data/levels/../images/white-rectangle-direction.png" />
<image
 width="1"
 height="1"
 id="image3209-2-26"
 x="22.3274"
 y="5.7668"
 xlink:href="/home/acoppes/workspace/superflyingthing/superflyingthing-desktop/src/main/resources/data/levels/../images/white-rectangle-direction.png"
 sodipodi:absref="/home/acoppes/workspace/superflyingthing/superflyingthing-desktop/src/main/resources/data/levels/../images/white-rectangle-direction.png" />
<image
 width="1"
 height="1"
 id="image3209-2-6"
 x="17.4091"
 y="34.154"
 xlink:href="/home/acoppes/workspace/superflyingthing/superflyingthing-desktop/src/main/resources/data/levels/../images/white-rectangle-direction.png"
 sodipodi:absref="/home/acoppes/workspace/superflyingthing/superflyingthing-desktop/src/main/resources/data/levels/../images/white-rectangle-direction.png" />
</g>
<g
 inkscape:groupmode="layer"
 id="layer5"
 inkscape:label="Portals">
<image
 sodipodi:absref="/home/acoppes/workspace/superflyingthing/superflyingthing-desktop/src/main/resources/data/levels/../images/white-rectangle-direction.png"
 xlink:href="../images/white-rectangle-direction.png"
 transform="matrix(0.988768,0.149461,-0.149461,0.988768,0,0)"
 targetPortalId="portalA"
 width="4.31822"
 height="4.31822"
 id="portalB"
 x="15.1308"
 y="0.441575" />
<image
 sodipodi:absref="/home/acoppes/workspace/superflyingthing/superflyingthing-desktop/src/main/resources/data/levels/../images/white-rectangle-direction.png"
 xlink:href="../images/white-rectangle-direction.png"
 transform="matrix(-0.995574,-0.093984,0.093984,-0.995574,0,0)"
 targetPortalId="portalB"
 width="4.31822"
 height="4.31822"
 id="portalA"
 x="-28.6982"
 y="-34.8538" />
</g>
<g
 inkscape:groupmode="layer"
 id="layer3"
 inkscape:label="World">
<path
 style="color:#000000;fill:none;stroke:#ff0000;stroke-width:0.1;stroke-linecap:butt;stroke-linejoin:miter;stroke-miterlimit:4;stroke-opacity:1;stroke-dasharray:none;stroke-dashoffset:0;marker:none;visibility:visible;display:inline;overflow:visible;enable-background:accumulate"
 d="M -1,5 z"
 id="path3806"
 inkscape:connector-curvature="0" />
<image
 sodipodi:absref="/home/acoppes/workspace/superflyingthing/superflyingthing-desktop/src/main/resources/data/levels/../images/planet.png"
 xlink:href="../images/planet.png"
 y="6.56201"
 x="5.45982"
 id="image3824-5-8"
 height="2"
 width="2"
 startPlanet="" />
<image
 sodipodi:absref="/home/acoppes/workspace/superflyingthing/superflyingthing-desktop/src/main/resources/data/levels/../images/planet.png"
 xlink:href="../images/planet.png"
 y="31.4201"
 x="32.5828"
 id="image3824-5-1-9"
 height="2"
 width="2"
 destinationPlanet="" />
</g>
</svg>
