<?xml version="1.0" encoding="UTF-8" standalone="no"?>
<!-- Created with Inkscape (http://www.inkscape.org/) -->

<svg
 xmlns:dc="http://purl.org/dc/elements/1.1/"
 xmlns:cc="http://creativecommons.org/ns#"
 xmlns:rdf="http://www.w3.org/1999/02/22-rdf-syntax-ns#"
 xmlns:svg="http://www.w3.org/2000/svg"
 xmlns="http://www.w3.org/2000/svg"
 xmlns:xlink="http://www.w3.org/1999/xlink"
 xmlns:sodipodi="http://sodipodi.sourceforge.net/DTD/sodipodi-0.dtd"
 xmlns:inkscape="http://www.inkscape.org/namespaces/inkscape"
 width="140"
 height="30"
 id="svg2"
 version="1.1"
 inkscape:version="0.48.1 r9760"
 sodipodi:docname="level18.svg"
 levelName="Dangerous corners">
<defs
 id="defs4" />
<sodipodi:namedview
 id="base"
 pagecolor="#000000"
 bordercolor="#666666"
 borderopacity="1.0"
 inkscape:pageopacity="1"
 inkscape:pageshadow="2"
 inkscape:zoom="13.2269"
 inkscape:cx="37.0682"
 inkscape:cy="18.2778"
 inkscape:document-units="px"
 inkscape:current-layer="layer4"
 showgrid="true"
 units="px"
 inkscape:window-width="1440"
 inkscape:window-height="849"
 inkscape:window-x="0"
 inkscape:window-y="24"
 inkscape:window-maximized="1"
 showguides="true"
 inkscape:guide-bbox="true"
 inkscape:snap-global="false">
<inkscape:grid
 type="xygrid"
 id="grid3765"
 empspacing="5"
 visible="true"
 enabled="true"
 snapvisiblegridlinesonly="true" />
<sodipodi:guide
 orientation="1,0"
 position="-1840,4810"
 id="guide3838" />
<sodipodi:guide
 orientation="1,0"
 position="-960,5720"
 id="guide3840" />
</sodipodi:namedview>
<metadata
 id="metadata7">
<rdf:RDF>
<cc:Work
 rdf:about="">
<dc:format>image/svg+xml</dc:format>
<dc:type
 rdf:resource="http://purl.org/dc/dcmitype/StillImage" />
<dc:title></dc:title>
</cc:Work>
</rdf:RDF>
</metadata>
<g
 inkscape:label="templates"
 inkscape:groupmode="layer"
 id="layer1">
<text
 xml:space="preserve"
 style="font-size:0.420555px;font-style:normal;font-variant:normal;font-weight:normal;font-stretch:normal;line-height:125%;letter-spacing:0px;word-spacing:0px;fill:#ffffff;fill-opacity:1;stroke:none;font-family:Arial;-inkscape-font-specification:Arial"
 x="-3.82528"
 y="2.5579183"
 id="text3800"
 sodipodi:linespacing="125%"
 transform="scale(1.09098,0.916607)"><tspan
 sodipodi:role="line"
 id="tspan3802"
 x="-3.82528"
 y="2.5579183">start planet</tspan><tspan
 sodipodi:role="line"
 x="-3.82528"
 y="3.083612"
 id="tspan3804" /></text>
<image
 sodipodi:absref="/home/acoppes/workspace/superflyingthing/superflyingthing-desktop/src/main/resources/data/levels/../images/planet.png"
 xlink:href="../images/planet.png"
 startPlanet=""
 width="2"
 height="2"
 id="image3824-5"
 x="-4"
 y="0" />
<image
 sodipodi:absref="/home/acoppes/workspace/superflyingthing/superflyingthing-desktop/src/main/resources/data/levels/../images/planet.png"
 xlink:href="../images/planet.png"
 destinationPlanet=""
 width="2"
 height="2"
 id="image3824-5-1"
 x="-4"
 y="5" />
<text
 xml:space="preserve"
 style="font-size:0.420555px;font-style:normal;font-variant:normal;font-weight:normal;font-stretch:normal;line-height:125%;letter-spacing:0px;word-spacing:0px;fill:#ffffff;fill-opacity:1;stroke:none;font-family:Arial;-inkscape-font-specification:Arial"
 x="-4.2697434"
 y="8.116293"
 id="text3800-7"
 sodipodi:linespacing="125%"
 transform="scale(1.09098,0.916607)"><tspan
 sodipodi:role="line"
 x="-4.2697434"
 y="8.116293"
 id="tspan3906">destination planet</tspan><tspan
 sodipodi:role="line"
 x="-4.2697434"
 y="8.6419868"
 id="tspan3804-9" /></text>
<image
 sodipodi:absref="/home/acoppes/workspace/superflyingthing/superflyingthing-desktop/src/main/resources/data/levels/../images/white-rectangle-direction.png"
 xlink:href="../images/white-rectangle-direction.png"
 width="1"
 height="1"
 id="image3209"
 x="-3.79748"
 y="9.7923" />
</g>
<g
 inkscape:groupmode="layer"
 id="layer2"
 inkscape:label="Obstacles">
<path
 style="fill:#ffff00;fill-opacity:1;fill-rule:nonzero;stroke:none"
 d="M 32.2828,15.1176 34.0228,13.5893 34.5908,12.0233 35.5375,13.2412 37.505,13.5141 39.3465,12.262 38.2396,10.4428 41.9269,8.88085 47.0885,9.58697 49.3098,10.6498 51.3422,9.40663 54.1171,10.6665 54.2079,15.1773 52.5943,15.7721 52.7572,18.8239 50.2706,17.7967 48.3509,20.5497 43.8693,20.2017 39.3878,19.8537 35.4134,20.6169 33.7072,18.8094 32.3335,17.8518 z"
 id="path3285"
 inkscape:connector-curvature="0"
 sodipodi:nodetypes="ccccccccccccccccccccccc" />
<path
 style="fill:#ffff00;fill-opacity:1;fill-rule:nonzero;stroke:none"
 d="M 4.30941,21.0599 6.35072,20.5495 11.4161,22.8744 16.5384,23.3469 18.7497,20.7763 18.9765,18.357 18.1449,17.601 14.5159,14.1988 10.6412,11.496 9.43157,9.00106 9.50718,7.31887 11.5296,6.18482 14.5726,3.65209 18.2205,3.23627 19.8082,4.21912 21.8684,6.69514 26.7637,8.67974 29.4855,9.51138 34.3241,7.8481 38.9359,6.78965 40.9772,5.50438 41,0 0,0 0,30 42,30 42,22 34.7021,22.9689 31.678,21.6836 29.6367,19.3399 29.7123,17.223 30.3927,15.1061 29.7122,11.7606 26.4235,10.0217 22.1519,9.14282 19.638,6.41163 15.2531,6.05251 12.4936,8.37732 13.4574,11.2503 18.9955,14.539 20.9611,17.7711 22.4544,20.9843 24.6468,24.4053 22.1519,26.5978 18.0693,25.6339 10.9814,26.5411 5.36787,27.2027 3.18726,25.153 z"
 id="path3287"
 inkscape:connector-curvature="0"
 sodipodi:nodetypes="cccccccccccccccccccccccccccccccccccccccccccccccc" />
<path
 style="fill:#ffff00;fill-opacity:1;fill-rule:nonzero;stroke:none"
 d="M 42,22 48.6888,23.1957 53.6031,24.0273 57.8369,22.742 59.0087,18.5838 62.9401,17.2229 68.2324,19.4154 70.3493,20.7763 75.1123,22.1372 80.1022,22.8176 82.5971,21.6079 86.1505,17.8278 88.4942,10.7966 89.4014,7.8481 92.0476,6.63844 96.8866,7.10991 97,30 42,30 z"
 id="path3289"
 inkscape:connector-curvature="0"
 sodipodi:nodetypes="ccccccccccccccccccc" />
<path
 style="fill:#ffff00;fill-opacity:1;fill-rule:nonzero;stroke:none"
 d="M 40.826,5.50438 45.3623,6.63844 49.7473,5.95801 53.6031,7.39448 57.4589,9.8138 56.9296,12.9136 56.0224,14.5768 58.9709,15.5597 63.734,14.8036 67.1361,16.0889 70.1603,18.1302 73.1088,18.735 79.0815,19.1887 81.5764,17.9034 83.6934,13.7452 85.1298,10.5698 87.1711,5.8824 89.7417,3.99231 91.4805,5.12637 94.5047,4.89955 96,5 96,0 41,0 z"
 id="path3291"
 inkscape:connector-curvature="0"
 sodipodi:nodetypes="cccccccccccccccccccccccc" />
<path
 style="fill:#ffff00;fill-opacity:1;fill-rule:nonzero;stroke:none"
 d="M 96,5 99.797,5.57999 101.385,4.52154 107.509,3.8411 113.557,4.82395 116.43,9.51138 118.169,13.7452 117.791,17.5254 118.849,20.6251 117.639,23.8761 124.066,22.4396 125.427,19.9447 127.846,17.223 130.19,10.5698 134.726,9.36018 137.07,13.6696 135.784,19.4155 132.836,21.0788 130,24 130,30 140,30 140,0 96,0 z"
 id="path3295"
 inkscape:connector-curvature="0"
 sodipodi:nodetypes="cccccccccccccccccccccccc" />
<path
 style="fill:#ffff00;fill-opacity:1;fill-rule:nonzero;stroke:none"
 d="M 96.8488,7.0721 100.1,8.7175 100.024,10.7588 101.46,15.7109 102.594,18.5838 102.216,21.9104 104.258,24.4053 102.594,26.6734 107.433,28.1855 115.371,27.2783 122.478,29.0172 125.653,27.5051 130,24 130,30 97,30 z"
 id="path3297"
 inkscape:connector-curvature="0"
 sodipodi:nodetypes="cccccccccccccccc" />
<path
 style="fill:#ffff00;fill-opacity:1;fill-rule:nonzero;stroke:none"
 d="M 104.756,6.87895 107.445,7.1924 108.952,6.34212 111.504,7.88868 114.309,10.0559 113.763,12.6266 115.33,15.1197 114.501,17.2324 115.826,19.0348 114.624,21.8014 114.562,24.568 111.56,24.2326 108.599,25.604 106.319,24.3122 105.982,21.973 105.288,19.5837 104.13,17.2333 104.633,14.1726 104.164,12.6248 105.022,11.5937 105.246,9.98072 103.987,8.42983 z"
 id="path3293"
 inkscape:connector-curvature="0"
 sodipodi:nodetypes="ccccccccccccccccccccccc" />
</g>
<g
 inkscape:groupmode="layer"
 id="layer4"
 inkscape:label="Items">
<image
 width="1"
 height="1"
 id="image3209-2-9-7-5"
 x="10.8406"
 y="24.1525"
 xlink:href="/home/acoppes/workspace/superflyingthing/superflyingthing-desktop/src/main/resources/data/levels/../images/white-rectangle-direction.png"
 sodipodi:absref="/home/acoppes/workspace/superflyingthing/superflyingthing-desktop/src/main/resources/data/levels/../images/white-rectangle-direction.png" />
<image
 width="1"
 height="1"
 id="image3209-2-9-7-5-3"
 x="20.1398"
 y="24.5858"
 xlink:href="/home/acoppes/workspace/superflyingthing/superflyingthing-desktop/src/main/resources/data/levels/../images/white-rectangle-direction.png"
 sodipodi:absref="/home/acoppes/workspace/superflyingthing/superflyingthing-desktop/src/main/resources/data/levels/../images/white-rectangle-direction.png" />
<image
 width="1"
 height="1"
 id="image3209-2-9-7-5-5"
 x="22.4079"
 y="23.5273"
 xlink:href="/home/acoppes/workspace/superflyingthing/superflyingthing-desktop/src/main/resources/data/levels/../images/white-rectangle-direction.png"
 sodipodi:absref="/home/acoppes/workspace/superflyingthing/superflyingthing-desktop/src/main/resources/data/levels/../images/white-rectangle-direction.png" />
<image
 width="1"
 height="1"
 id="image3209-2-9-7-5-33"
 x="31.2536"
 y="10.9771"
 xlink:href="/home/acoppes/workspace/superflyingthing/superflyingthing-desktop/src/main/resources/data/levels/../images/white-rectangle-direction.png"
 sodipodi:absref="/home/acoppes/workspace/superflyingthing/superflyingthing-desktop/src/main/resources/data/levels/../images/white-rectangle-direction.png" />
<image
 width="1"
 height="1"
 id="image3209-2-9-7-5-4"
 x="50.9106"
 y="20.8056"
 xlink:href="/home/acoppes/workspace/superflyingthing/superflyingthing-desktop/src/main/resources/data/levels/../images/white-rectangle-direction.png"
 sodipodi:absref="/home/acoppes/workspace/superflyingthing/superflyingthing-desktop/src/main/resources/data/levels/../images/white-rectangle-direction.png" />
<image
 width="1"
 height="1"
 id="image3209-2-9-7-5-56"
 x="54.3127"
 y="20.2007"
 xlink:href="/home/acoppes/workspace/superflyingthing/superflyingthing-desktop/src/main/resources/data/levels/../images/white-rectangle-direction.png"
 sodipodi:absref="/home/acoppes/workspace/superflyingthing/superflyingthing-desktop/src/main/resources/data/levels/../images/white-rectangle-direction.png" />
<image
 width="1"
 height="1"
 id="image3209-2-9-7-5-54"
 x="55.9004"
 y="17.101"
 xlink:href="/home/acoppes/workspace/superflyingthing/superflyingthing-desktop/src/main/resources/data/levels/../images/white-rectangle-direction.png"
 sodipodi:absref="/home/acoppes/workspace/superflyingthing/superflyingthing-desktop/src/main/resources/data/levels/../images/white-rectangle-direction.png" />
<image
 width="1"
 height="1"
 id="image3209-2-9-7-5-44"
 x="116.535"
 y="25.4174"
 xlink:href="/home/acoppes/workspace/superflyingthing/superflyingthing-desktop/src/main/resources/data/levels/../images/white-rectangle-direction.png"
 sodipodi:absref="/home/acoppes/workspace/superflyingthing/superflyingthing-desktop/src/main/resources/data/levels/../images/white-rectangle-direction.png" />
<image
 width="1"
 height="1"
 id="image3209-2-9-7-5-0"
 x="119.861"
 y="25.9466"
 xlink:href="/home/acoppes/workspace/superflyingthing/superflyingthing-desktop/src/main/resources/data/levels/../images/white-rectangle-direction.png"
 sodipodi:absref="/home/acoppes/workspace/superflyingthing/superflyingthing-desktop/src/main/resources/data/levels/../images/white-rectangle-direction.png" />
<image
 width="1"
 height="1"
 id="image3209-2-9-7-5-39"
 x="124.246"
 y="24.6614"
 xlink:href="/home/acoppes/workspace/superflyingthing/superflyingthing-desktop/src/main/resources/data/levels/../images/white-rectangle-direction.png"
 sodipodi:absref="/home/acoppes/workspace/superflyingthing/superflyingthing-desktop/src/main/resources/data/levels/../images/white-rectangle-direction.png" />
<image
 width="1"
 height="1"
 id="image3209-2-9-7-5-1"
 x="128.026"
 y="20.8056"
 xlink:href="/home/acoppes/workspace/superflyingthing/superflyingthing-desktop/src/main/resources/data/levels/../images/white-rectangle-direction.png"
 sodipodi:absref="/home/acoppes/workspace/superflyingthing/superflyingthing-desktop/src/main/resources/data/levels/../images/white-rectangle-direction.png" />
<image
 width="1"
 height="1"
 id="image3209-2-9-7-5-12"
 x="130.371"
 y="17.7058"
 xlink:href="/home/acoppes/workspace/superflyingthing/superflyingthing-desktop/src/main/resources/data/levels/../images/white-rectangle-direction.png"
 sodipodi:absref="/home/acoppes/workspace/superflyingthing/superflyingthing-desktop/src/main/resources/data/levels/../images/white-rectangle-direction.png" />
<image
 width="1"
 height="1"
 id="image3209-2-9-7-5-8"
 x="101.187"
 y="6.81887"
 xlink:href="/home/acoppes/workspace/superflyingthing/superflyingthing-desktop/src/main/resources/data/levels/../images/white-rectangle-direction.png"
 sodipodi:absref="/home/acoppes/workspace/superflyingthing/superflyingthing-desktop/src/main/resources/data/levels/../images/white-rectangle-direction.png" />
<image
 width="1"
 height="1"
 id="image3209-2-9-7-5-53"
 x="102.019"
 y="10.5235"
 xlink:href="/home/acoppes/workspace/superflyingthing/superflyingthing-desktop/src/main/resources/data/levels/../images/white-rectangle-direction.png"
 sodipodi:absref="/home/acoppes/workspace/superflyingthing/superflyingthing-desktop/src/main/resources/data/levels/../images/white-rectangle-direction.png" />
<image
 width="1"
 height="1"
 id="image3209-2-9-7-5-52"
 x="115.627"
 y="12.2623"
 xlink:href="/home/acoppes/workspace/superflyingthing/superflyingthing-desktop/src/main/resources/data/levels/../images/white-rectangle-direction.png"
 sodipodi:absref="/home/acoppes/workspace/superflyingthing/superflyingthing-desktop/src/main/resources/data/levels/../images/white-rectangle-direction.png" />
<image
 width="1"
 height="1"
 id="image3209-2-9-7-5-9"
 x="115.93"
 y="21.108"
 xlink:href="/home/acoppes/workspace/superflyingthing/superflyingthing-desktop/src/main/resources/data/levels/../images/white-rectangle-direction.png"
 sodipodi:absref="/home/acoppes/workspace/superflyingthing/superflyingthing-desktop/src/main/resources/data/levels/../images/white-rectangle-direction.png" />
<image
 width="1"
 height="1"
 id="image3209-2-9-7-5-128"
 x="32.2364"
 y="20.0495"
 xlink:href="/home/acoppes/workspace/superflyingthing/superflyingthing-desktop/src/main/resources/data/levels/../images/white-rectangle-direction.png"
 sodipodi:absref="/home/acoppes/workspace/superflyingthing/superflyingthing-desktop/src/main/resources/data/levels/../images/white-rectangle-direction.png" />
<image
 width="1"
 height="1"
 id="image3209-2-9-7-5-2"
 x="48.4912"
 y="7.95293"
 xlink:href="/home/acoppes/workspace/superflyingthing/superflyingthing-desktop/src/main/resources/data/levels/../images/white-rectangle-direction.png"
 sodipodi:absref="/home/acoppes/workspace/superflyingthing/superflyingthing-desktop/src/main/resources/data/levels/../images/white-rectangle-direction.png" />
<image
 width="1"
 height="1"
 id="image3209-2-9-7-5-6"
 x="10.8406"
 y="9.2382"
 xlink:href="/home/acoppes/workspace/superflyingthing/superflyingthing-desktop/src/main/resources/data/levels/../images/white-rectangle-direction.png"
 sodipodi:absref="/home/acoppes/workspace/superflyingthing/superflyingthing-desktop/src/main/resources/data/levels/../images/white-rectangle-direction.png" />
<image
 width="1"
 height="1"
 id="image3209-2-9-7-5-50"
 x="12.277"
 y="6.36525"
 xlink:href="/home/acoppes/workspace/superflyingthing/superflyingthing-desktop/src/main/resources/data/levels/../images/white-rectangle-direction.png"
 sodipodi:absref="/home/acoppes/workspace/superflyingthing/superflyingthing-desktop/src/main/resources/data/levels/../images/white-rectangle-direction.png" />
</g>
<g
 inkscape:groupmode="layer"
 id="layer5"
 inkscape:label="Portals">
<image
 sodipodi:absref="/home/acoppes/workspace/superflyingthing/superflyingthing-desktop/src/main/resources/data/levels/../images/white-rectangle-direction.png"
 xlink:href="../images/white-rectangle-direction.png"
 y="16.7353"
 x="-6.2016"
 id="portalB"
 height="4.31822"
 width="4.31822"
 targetPortalId="portalB"
 transform="matrix(0.988894,0.148622,-0.148622,0.988894,0,0)" />
<image
 sodipodi:absref="/home/acoppes/workspace/superflyingthing/superflyingthing-desktop/src/main/resources/data/levels/../images/white-rectangle-direction.png"
 xlink:href="../images/white-rectangle-direction.png"
 y="1.88102"
 x="-28.0938"
 id="portalA"
 height="4.31822"
 width="4.31822"
 targetPortalId="portalB"
 transform="matrix(0.402543,-0.915401,0.915401,0.402543,0,0)" />
</g>
<g
 inkscape:groupmode="layer"
 id="layer3"
 inkscape:label="World">
<path
 style="color:#000000;fill:none;stroke:#ff0000;stroke-width:0.1;stroke-linecap:butt;stroke-linejoin:miter;stroke-miterlimit:4;stroke-opacity:1;stroke-dasharray:none;stroke-dashoffset:0;marker:none;visibility:visible;display:inline;overflow:visible;enable-background:accumulate"
 d="M -1,5 z"
 id="path3806"
 inkscape:connector-curvature="0" />
<image
 sodipodi:absref="/home/acoppes/workspace/superflyingthing/superflyingthing-desktop/src/main/resources/data/levels/../images/planet.png"
 xlink:href="../images/planet.png"
 startPlanet=""
 width="2"
 height="2"
 id="image3824-5-8"
 x="5.0062"
 y="22.5144" />
<image
 sodipodi:absref="/home/acoppes/workspace/superflyingthing/superflyingthing-desktop/src/main/resources/data/levels/../images/planet.png"
 xlink:href="../images/planet.png"
 destinationPlanet=""
 width="2"
 height="2"
 id="image3824-5-1-9"
 x="131.624"
 y="14.3336" />
</g>
</svg>
