<?xml version="1.0" encoding="UTF-8" standalone="no"?>
<!-- Created with Inkscape (http://www.inkscape.org/) -->

<svg
 xmlns:dc="http://purl.org/dc/elements/1.1/"
 xmlns:cc="http://creativecommons.org/ns#"
 xmlns:rdf="http://www.w3.org/1999/02/22-rdf-syntax-ns#"
 xmlns:svg="http://www.w3.org/2000/svg"
 xmlns="http://www.w3.org/2000/svg"
 xmlns:xlink="http://www.w3.org/1999/xlink"
 xmlns:sodipodi="http://sodipodi.sourceforge.net/DTD/sodipodi-0.dtd"
 xmlns:inkscape="http://www.inkscape.org/namespaces/inkscape"
 width="40"
 height="25"
 id="svg2"
 version="1.1"
 inkscape:version="0.48.1 r9760"
 sodipodi:docname="level07.svg"
 levelName="Discover the way">
<defs
 id="defs4" />
<sodipodi:namedview
 id="base"
 pagecolor="#000000"
 bordercolor="#666666"
 borderopacity="1.0"
 inkscape:pageopacity="1"
 inkscape:pageshadow="2"
 inkscape:zoom="23.0914"
 inkscape:cx="26.2441"
 inkscape:cy="13.0497"
 inkscape:document-units="px"
 inkscape:current-layer="layer10"
 showgrid="true"
 units="px"
 inkscape:window-width="1440"
 inkscape:window-height="849"
 inkscape:window-x="0"
 inkscape:window-y="24"
 inkscape:window-maximized="1"
 showguides="true"
 inkscape:guide-bbox="true"
 inkscape:snap-global="false">
<inkscape:grid
 type="xygrid"
 id="grid3765"
 empspacing="5"
 visible="true"
 enabled="true"
 snapvisiblegridlinesonly="true" />
<sodipodi:guide
 orientation="1,0"
 position="-1840,4810"
 id="guide3838" />
<sodipodi:guide
 orientation="1,0"
 position="-960,5720"
 id="guide3840" />
</sodipodi:namedview>
<metadata
 id="metadata7">
<rdf:RDF>
<cc:Work
 rdf:about="">
<dc:format>image/svg+xml</dc:format>
<dc:type
 rdf:resource="http://purl.org/dc/dcmitype/StillImage" />
<dc:title />
</cc:Work>
</rdf:RDF>
</metadata>
<g
 inkscape:label="templates"
 inkscape:groupmode="layer"
 id="layer1"
 transform="translate(0,5)">
<text
 xml:space="preserve"
 style="font-size:0.420555px;font-style:normal;font-variant:normal;font-weight:normal;font-stretch:normal;line-height:125%;letter-spacing:0px;word-spacing:0px;fill:#ffffff;fill-opacity:1;stroke:none;font-family:Arial;-inkscape-font-specification:Arial"
 x="-3.82528"
 y="2.5579183"
 id="text3800"
 sodipodi:linespacing="125%"
 transform="scale(1.09098,0.916607)"><tspan
 sodipodi:role="line"
 id="tspan3802"
 x="-3.82528"
 y="2.5579183">start planet</tspan><tspan
 sodipodi:role="line"
 x="-3.82528"
 y="3.083612"
 id="tspan3804" /></text>
<image
 y="0"
 x="-4"
 id="image3824-5"
 xlink:href="file:///home/acoppes/workspace/superflyingthing/superflyingthing-desktop/src/main/resources/data/images/planet.png"
 height="2"
 width="2"
 startPlanet="" />
<image
 y="5"
 x="-4"
 id="image3824-5-1"
 xlink:href="file:///home/acoppes/workspace/superflyingthing/superflyingthing-desktop/src/main/resources/data/images/planet.png"
 height="2"
 width="2"
 destinationPlanet="" />
<text
 xml:space="preserve"
 style="font-size:0.420555px;font-style:normal;font-variant:normal;font-weight:normal;font-stretch:normal;line-height:125%;letter-spacing:0px;word-spacing:0px;fill:#ffffff;fill-opacity:1;stroke:none;font-family:Arial;-inkscape-font-specification:Arial"
 x="-4.2697434"
 y="8.116293"
 id="text3800-7"
 sodipodi:linespacing="125%"
 transform="scale(1.09098,0.916607)"><tspan
 sodipodi:role="line"
 x="-4.2697434"
 y="8.116293"
 id="tspan3906">destination planet</tspan><tspan
 sodipodi:role="line"
 x="-4.2697434"
 y="8.6419868"
 id="tspan3804-9" /></text>
</g>
<g
 inkscape:groupmode="layer"
 id="layer2"
 inkscape:label="Obstacles"
 style="display:inline">
<path
 style="fill:#0000f2;fill-opacity:1;fill-rule:nonzero;stroke:#ff0000;stroke-width:0.1;stroke-linecap:butt;stroke-linejoin:round;stroke-miterlimit:4;stroke-opacity:1;stroke-dasharray:none"
 d="M 19.6595,11.9928 20.4076,12.2038 21.0207,11.7687 21.0602,11.0567 20.6252,10.4437 19.8143,10.4832 19.3594,11.037 z"
 id="path3798"
 inkscape:connector-curvature="0"
 bodyType="DynamicBody"
 movementPath="movingObstacle01"
 sodipodi:nodetypes="cccccccc" />
<path
 style="fill:#0000f2;fill-opacity:1;fill-rule:nonzero;stroke:none"
 d="M 0,0 0,10 2,8 5.09036,8.10672 7.66351,9.33736 9.67728,12.0783 11.0757,14.2599 12.1385,15.7702 13.4251,17.1687 15.4948,18.3434 16.3898,17.9518 16.3339,16.0499 15.9983,13.7005 15.2711,12.4139 15.2711,10.4002 15.7186,8.55423 16.278,6.37264 16.9492,4.19106 17.9561,2.96042 18.8511,2.34511 20.1377,1.84166 21.8718,1.78573 23.2702,1.56197 24.6127,2.23323 25.8993,4.47075 26.6265,6.65233 27.4656,9.33736 27.8012,11.4071 28.0809,13.5886 28.5284,14.7633 29.1996,16.3296 29.5912,16.889 30.9337,17.2246 31.9406,16.7212 32.6119,15.099 33.0034,12.1343 32.9475,10.568 33.0034,8.55423 33.2272,6.42858 33.7306,4.80638 34.7934,3.68762 35.7444,3.12824 37.4225,2.51292 38.5972,2.45698 39.4363,2.45698 40,3 40,0"
 id="path3819"
 inkscape:connector-curvature="0"
 sodipodi:nodetypes="ccccccccccccccccccccccccccccccccccccccccccccccc" />
<path
 style="fill:#0000f2;fill-opacity:1;fill-rule:nonzero;stroke:none"
 d="M 0,16 2.85284,19.5181 4.58692,19.574 6.37693,20.2453 8.3907,21.1403 9.00602,21.8115 10.1807,23.3778 10.7401,24.2728 11.2156,24.5525 12.0826,24.6644 14.3481,24.5525 16.5576,24.4686 18.4595,24.3847 19.4664,22.7625 20.6971,20.525 20.8649,18.0637 20.8089,16.3855 20.9208,14.5955 21.5921,12.6936 22.9346,12.4139 23.7737,13.3649 24.5008,14.8193 25.0602,16.3296 25.3959,17.784 25.0043,19.3503 25.8993,21.0284 26.4587,22.4828 29.0878,22.8184 31.0456,22.8744 33.7866,22.4828 35.0172,21.1962 36.3038,19.2943 37.1428,17.5602 37.5903,16.889 38.821,14.4837 39.2685,14.204 40,14 40,25 0,25 z"
 id="path3821"
 inkscape:connector-curvature="0"
 sodipodi:nodetypes="cccccccccccccccccccccccccccccccccccccccc" />
<path
 style="fill:#0000f2;fill-opacity:1;fill-rule:nonzero;stroke:#ff0000;stroke-width:0.1;stroke-linecap:butt;stroke-linejoin:round;stroke-miterlimit:4;stroke-opacity:1;stroke-dasharray:none;display:inline"
 d="M 12.4779,24.6455 13.1386,24.2895 13.8553,24.6887 13.5314,24.0438 13.8226,23.2339 13.1499,23.6138 12.4369,23.3037 12.8071,24.0113 z"
 id="path3798-8"
 inkscape:connector-curvature="0"
 bodyType="DynamicBody"
 movementPath="movingObstacle02"
 sodipodi:nodetypes="ccccccccc" />
<path
 style="fill:#0000ff;fill-opacity:1;fill-rule:nonzero;stroke:none"
 d="M 0,10 0,16 0.310408,16.4948 0.827755,13.4942 1.42788,10.3074 0.786367,10.5557 0.64151,10.1004 0.393183,9.1485 z"
 id="path3963"
 inkscape:connector-curvature="0" />
</g>
<g
 inkscape:groupmode="layer"
 id="layer10"
 inkscape:label="Items">
<image
 y="10.8054"
 x="4.86013"
 id="image3019-7"
 xlink:href="file:///home/acoppes/workspace/superflyingthing/superflyingthing-desktop/src/main/resources/data/images/white-rectangle.png"
 height="0.5"
 width="0.5" />
<image
 y="23.4942"
 x="13.0017"
 id="image3019-7-9"
 xlink:href="file:///home/acoppes/workspace/superflyingthing/superflyingthing-desktop/src/main/resources/data/images/white-rectangle.png"
 height="0.5"
 width="0.5" />
<image
 y="10.0692"
 x="25.3007"
 id="image3019-7-8"
 xlink:href="file:///home/acoppes/workspace/superflyingthing/superflyingthing-desktop/src/main/resources/data/images/white-rectangle.png"
 height="0.5"
 width="0.5" />
<image
 y="11.5416"
 x="17.852"
 id="image3019-7-93"
 xlink:href="file:///home/acoppes/workspace/superflyingthing/superflyingthing-desktop/src/main/resources/data/images/white-rectangle.png"
 height="0.5"
 width="0.5" />
<image
 y="4.09293"
 x="21.0567"
 id="image3019-7-1"
 xlink:href="file:///home/acoppes/workspace/superflyingthing/superflyingthing-desktop/src/main/resources/data/images/white-rectangle.png"
 height="0.5"
 width="0.5" />
<image
 y="20.8958"
 x="27.3794"
 id="image3019-7-0"
 xlink:href="file:///home/acoppes/workspace/superflyingthing/superflyingthing-desktop/src/main/resources/data/images/white-rectangle.png"
 height="0.5"
 width="0.5" />
</g>
<g
 inkscape:groupmode="layer"
 id="layer3"
 inkscape:label="World">
<path
 style="color:#000000;fill:none;stroke:#ff0000;stroke-width:0.1;stroke-linecap:butt;stroke-linejoin:miter;stroke-miterlimit:4;stroke-opacity:1;stroke-dasharray:none;stroke-dashoffset:0;marker:none;visibility:visible;display:inline;overflow:visible;enable-background:accumulate"
 d="M -1,5 z"
 id="path3806"
 inkscape:connector-curvature="0" />
<image
 y="13.9396"
 x="3.11341"
 id="image3824-5-8"
 xlink:href="file:///home/acoppes/workspace/superflyingthing/superflyingthing-desktop/src/main/resources/data/images/planet.png"
 height="2"
 width="2"
 startPlanet="" />
<image
 y="6.45449"
 x="35.2548"
 id="image3824-5-1-9"
 xlink:href="file:///home/acoppes/workspace/superflyingthing/superflyingthing-desktop/src/main/resources/data/images/planet.png"
 height="2"
 width="2"
 destinationPlanet="" />
</g>
<g
 inkscape:groupmode="layer"
 id="layer4"
 inkscape:label="Paths"
 style="display:inline">
<path
 style="fill:#0000f2;fill-opacity:1;fill-rule:nonzero;stroke:#ff0000;stroke-width:0.1;stroke-miterlimit:4;stroke-opacity:1;stroke-dasharray:none"
 d="M 27.021,9.84521 16.1883,12.2815"
 id="movingObstacle01"
 inkscape:connector-curvature="0"
 sodipodi:nodetypes="cc" />
<path
 style="fill:#0000f2;fill-opacity:1;fill-rule:nonzero;stroke:#ff0000;stroke-width:0.1;stroke-miterlimit:4;stroke-opacity:1;stroke-dasharray:none;display:inline"
 d="M 15.2055,18.7195 13.155,24.0366"
 id="movingObstacle02"
 inkscape:connector-curvature="0"
 sodipodi:nodetypes="cc" />
</g>
</svg>
