<?xml version="1.0" encoding="UTF-8" standalone="no"?>
<!-- Created with Inkscape (http://www.inkscape.org/) -->

<svg
 xmlns:dc="http://purl.org/dc/elements/1.1/"
 xmlns:cc="http://creativecommons.org/ns#"
 xmlns:rdf="http://www.w3.org/1999/02/22-rdf-syntax-ns#"
 xmlns:svg="http://www.w3.org/2000/svg"
 xmlns="http://www.w3.org/2000/svg"
 xmlns:xlink="http://www.w3.org/1999/xlink"
 xmlns:sodipodi="http://sodipodi.sourceforge.net/DTD/sodipodi-0.dtd"
 xmlns:inkscape="http://www.inkscape.org/namespaces/inkscape"
 width="50"
 height="40"
 id="svg2"
 version="1.1"
 inkscape:version="0.48.1 r9760"
 sodipodi:docname="level06.svg"
 levelName="Ship moves in mysterious ways">
<defs
 id="defs4" />
<sodipodi:namedview
 id="base"
 pagecolor="#000000"
 bordercolor="#666666"
 borderopacity="1.0"
 inkscape:pageopacity="1"
 inkscape:pageshadow="2"
 inkscape:zoom="45.2548"
 inkscape:cx="29.3292"
 inkscape:cy="13.8794"
 inkscape:document-units="px"
 inkscape:current-layer="layer2"
 showgrid="true"
 units="px"
 inkscape:window-width="1440"
 inkscape:window-height="849"
 inkscape:window-x="0"
 inkscape:window-y="24"
 inkscape:window-maximized="1"
 showguides="true"
 inkscape:guide-bbox="true"
 inkscape:snap-global="false">
<inkscape:grid
 type="xygrid"
 id="grid3765"
 empspacing="5"
 visible="true"
 enabled="true"
 snapvisiblegridlinesonly="true" />
<sodipodi:guide
 orientation="1,0"
 position="-1840,4810"
 id="guide3838" />
<sodipodi:guide
 orientation="1,0"
 position="-960,5720"
 id="guide3840" />
</sodipodi:namedview>
<metadata
 id="metadata7">
<rdf:RDF>
<cc:Work
 rdf:about="">
<dc:format>image/svg+xml</dc:format>
<dc:type
 rdf:resource="http://purl.org/dc/dcmitype/StillImage" />
<dc:title />
</cc:Work>
</rdf:RDF>
</metadata>
<g
 inkscape:label="templates"
 inkscape:groupmode="layer"
 id="layer1"
 transform="translate(0,5)">
<text
 xml:space="preserve"
 style="font-size:0.420555px;font-style:normal;font-variant:normal;font-weight:normal;font-stretch:normal;line-height:125%;letter-spacing:0px;word-spacing:0px;fill:#ffffff;fill-opacity:1;stroke:none;font-family:Arial;-inkscape-font-specification:Arial"
 x="-3.82528"
 y="2.5579183"
 id="text3800"
 sodipodi:linespacing="125%"
 transform="scale(1.09098,0.916607)"><tspan
 sodipodi:role="line"
 id="tspan3802"
 x="-3.82528"
 y="2.5579183">start planet</tspan><tspan
 sodipodi:role="line"
 x="-3.82528"
 y="3.083612"
 id="tspan3804" /></text>
<image
 y="0"
 x="-4"
 id="image3824-5"
 xlink:href="file:///home/acoppes/workspace/superflyingthing/superflyingthing-desktop/src/main/resources/data/images/planet.png"
 height="2"
 width="2"
 startPlanet="" />
<image
 y="5"
 x="-4"
 id="image3824-5-1"
 xlink:href="file:///home/acoppes/workspace/superflyingthing/superflyingthing-desktop/src/main/resources/data/images/planet.png"
 height="2"
 width="2"
 destinationPlanet="" />
<text
 xml:space="preserve"
 style="font-size:0.420555px;font-style:normal;font-variant:normal;font-weight:normal;font-stretch:normal;line-height:125%;letter-spacing:0px;word-spacing:0px;fill:#ffffff;fill-opacity:1;stroke:none;font-family:Arial;-inkscape-font-specification:Arial"
 x="-4.2697434"
 y="8.116293"
 id="text3800-7"
 sodipodi:linespacing="125%"
 transform="scale(1.09098,0.916607)"><tspan
 sodipodi:role="line"
 x="-4.2697434"
 y="8.116293"
 id="tspan3906">destination planet</tspan><tspan
 sodipodi:role="line"
 x="-4.2697434"
 y="8.6419868"
 id="tspan3804-9" /></text>
</g>
<g
 inkscape:groupmode="layer"
 id="layer2"
 inkscape:label="Obstacles"
 style="display:inline">
<path
 style="fill:#0000f2;fill-opacity:1;fill-rule:nonzero;stroke:#ff0000;stroke-width:0.1;stroke-linecap:butt;stroke-linejoin:round;stroke-miterlimit:4;stroke-opacity:1;stroke-dasharray:none"
 d="M 28.9789,27.399 28.7803,28.0106 29.4246,27.5989 30.0032,28.0509 29.8144,27.4524 30.3208,27.0882 29.7414,27.0599 29.4275,26.3598 29.1025,27.0297 28.3961,27.0859 z"
 id="path3798"
 inkscape:connector-curvature="0"
 bodyType="DynamicBody"
 movementPath="movingObstacle01"
 sodipodi:nodetypes="ccccccccccc" />
<path
 style="fill:#000050;fill-opacity:1;fill-rule:nonzero;stroke:#0000b9;stroke-width:0.104;stroke-linecap:butt;stroke-linejoin:round;stroke-miterlimit:4;stroke-opacity:1;stroke-dasharray:none;display:inline"
 d="M 32.8994,28.9438 32.8994,27.9438 33.8397,27.8378 34.8009,27.165 35.2815,28.0301 36.4671,27.934 38.9984,28.2544 39.2547,26.9727 40.0237,25.7551 39.7994,23.4161 38.3575,21.8461 37.0118,22.3908 35.7301,21.1732 35.8994,19.9438 40.8994,19.9438 41.2758,21.8174 40.8994,24.4438 41.7548,26.4885 40.8994,28.9438 39.2758,29.9702 36.8652,29.457 34.9678,29.1491 z"
 id="path3904"
 inkscape:connector-curvature="0"
 sodipodi:nodetypes="ccccccccccccccccccccccc" />
<path
 style="fill:#000050;fill-opacity:1;fill-rule:nonzero;stroke:#0000b9;stroke-width:0.104;stroke-linecap:butt;stroke-linejoin:round;stroke-miterlimit:4;stroke-opacity:1;stroke-dasharray:none;display:inline"
 d="M 32.8994,27.9438 31.5006,28.2864 29.482,28.6068 27.912,27.5495 25.5409,27.197 25.5729,25.5949 24.1505,22.5751 23.5925,21.7105 23.7527,20.4609 24.0411,19.3715 24.0411,18.5385 23.0798,17.3209 22.0225,16.9684 21.3424,17.0123 20.5571,17.2665 19.5072,17.3203 17.4694,17.7103 15.6782,18.218 14.4606,18.7948 13.408,20.1344 12.4794,21.702 12.4038,22.7753 13.6535,24.2171 14.839,24.2812 16.0026,23.3933 17.5946,23.1598 18.4029,23.6543 19.197,24.3837 19.5837,25.0308 19.1031,26.2805 19.111,27.2401 18.7186,27.8826 16.8897,28.3826 14.4917,27.8403 13.4775,27.1626 12.8994,28.9438 17.2997,29.9161 20,30 22,29 24.4759,28.7781 26.7092,29.7835 29.8927,29.9382 32.8994,28.9438 z"
 id="path3906"
 inkscape:connector-curvature="0"
 sodipodi:nodetypes="cccccccccccccccccccccccccccccccccccccccccccc" />
<path
 style="fill:#000050;fill-opacity:1;fill-rule:nonzero;stroke:#0000b9;stroke-width:0.104;stroke-linecap:butt;stroke-linejoin:round;stroke-miterlimit:4;stroke-opacity:1;stroke-dasharray:none;display:inline"
 d="M 12.8994,28.9438 9.99617,27.2987 8.68974,25.3954 9.51231,18.6696 8.8349,15.218 9.80263,11.8954 11.6408,10.2673 13.6247,10.4125 15.2119,11.1781 17.6963,12.1547 19.9307,13.5375 23,15 23,16 21.6479,15.8684 19.5671,16.3097 18.1466,16.0552 16.9606,16.7069 14.7276,17.1086 12.9832,17.8635 12.4962,18.3806 11.277,21.2623 10.9633,22.8751 10.8994,24.9438 11.9408,26.3742 13.5088,27.1469 z"
 id="path3908"
 inkscape:connector-curvature="0"
 sodipodi:nodetypes="cccccccccccccccccccccccccc" />
<path
 style="fill:#000050;fill-opacity:1;fill-rule:nonzero;stroke:#0000b9;stroke-width:0.104;stroke-linecap:butt;stroke-linejoin:round;stroke-miterlimit:4;stroke-opacity:1;stroke-dasharray:none;display:inline"
 d="M 23,15 23,16 24.6153,16.371 24.7644,17.0937 25.3807,17.9535 25.7331,20.1964 26.7905,20.3246 29.3218,19.0109 31.1802,17.9535 32.9745,18.1458 33.9038,19.0109 34.8009,19.6838 35.8994,19.9438 40.8994,19.9438 40.4905,18.7808 39.578,18.2192 38.6967,17.6264 36.5967,16.9085 35.0592,15.9095 32.7716,15.0041 31.2029,14.9738 29.1028,13.8185 26.3465,14.6006 z"
 id="path3910"
 inkscape:connector-curvature="0"
 sodipodi:nodetypes="cccccccccccccccccccccccc" />
</g>
<g
 inkscape:groupmode="layer"
 id="layer8"
 inkscape:label="Items" />
<g
 inkscape:groupmode="layer"
 id="layer3"
 inkscape:label="World">
<path
 style="color:#000000;fill:none;stroke:#ff0000;stroke-width:0.1;stroke-linecap:butt;stroke-linejoin:miter;stroke-miterlimit:4;stroke-opacity:1;stroke-dasharray:none;stroke-dashoffset:0;marker:none;visibility:visible;display:inline;overflow:visible;enable-background:accumulate"
 d="M 8.8994,13.9438 z"
 id="path3806"
 inkscape:connector-curvature="0" />
<image
 y="24.9438"
 x="15.8994"
 id="image3824-5-8"
 xlink:href="file:///home/acoppes/workspace/superflyingthing/superflyingthing-desktop/src/main/resources/data/images/planet.png"
 height="2"
 width="2"
 startPlanet="" />
<image
 y="23.9438"
 x="35.8994"
 id="image3824-5-1-9"
 xlink:href="file:///home/acoppes/workspace/superflyingthing/superflyingthing-desktop/src/main/resources/data/images/planet.png"
 height="2"
 width="2"
 destinationPlanet="" />
</g>
<g
 inkscape:groupmode="layer"
 id="layer4"
 inkscape:label="Paths"
 style="display:inline">
<path
 style="fill:#0000f2;fill-opacity:1;fill-rule:nonzero;stroke:#ff0000;stroke-width:0.1;stroke-miterlimit:4;stroke-opacity:1;stroke-dasharray:none"
 d="M 32.7835,19.6607 29.387,27.3181"
 id="movingObstacle01"
 inkscape:connector-curvature="0"
 sodipodi:nodetypes="cc" />
</g>
</svg>
