<?xml version="1.0" encoding="UTF-8" standalone="no"?>
<!-- Created with Inkscape (http://www.inkscape.org/) -->

<svg
 xmlns:dc="http://purl.org/dc/elements/1.1/"
 xmlns:cc="http://creativecommons.org/ns#"
 xmlns:rdf="http://www.w3.org/1999/02/22-rdf-syntax-ns#"
 xmlns:svg="http://www.w3.org/2000/svg"
 xmlns="http://www.w3.org/2000/svg"
 xmlns:xlink="http://www.w3.org/1999/xlink"
 xmlns:sodipodi="http://sodipodi.sourceforge.net/DTD/sodipodi-0.dtd"
 xmlns:inkscape="http://www.inkscape.org/namespaces/inkscape"
 width="35"
 height="20"
 id="svg2"
 version="1.1"
 inkscape:version="0.48.1 r9760"
 sodipodi:docname="level06.svg"
 levelName="Ship moves in mysterious ways">
<defs
 id="defs4" />
<sodipodi:namedview
 id="base"
 pagecolor="#000000"
 bordercolor="#666666"
 borderopacity="1.0"
 inkscape:pageopacity="1"
 inkscape:pageshadow="2"
 inkscape:zoom="45.2548"
 inkscape:cx="16.7281"
 inkscape:cy="5.42408"
 inkscape:document-units="px"
 inkscape:current-layer="layer2"
 showgrid="true"
 units="px"
 inkscape:window-width="1440"
 inkscape:window-height="849"
 inkscape:window-x="0"
 inkscape:window-y="24"
 inkscape:window-maximized="1"
 showguides="true"
 inkscape:guide-bbox="true"
 inkscape:snap-global="false">
<inkscape:grid
 type="xygrid"
 id="grid3765"
 empspacing="5"
 visible="true"
 enabled="true"
 snapvisiblegridlinesonly="true" />
<sodipodi:guide
 orientation="1,0"
 position="-1840,4810"
 id="guide3838" />
<sodipodi:guide
 orientation="1,0"
 position="-960,5720"
 id="guide3840" />
</sodipodi:namedview>
<metadata
 id="metadata7">
<rdf:RDF>
<cc:Work
 rdf:about="">
<dc:format>image/svg+xml</dc:format>
<dc:type
 rdf:resource="http://purl.org/dc/dcmitype/StillImage" />
<dc:title></dc:title>
</cc:Work>
</rdf:RDF>
</metadata>
<g
 inkscape:label="templates"
 inkscape:groupmode="layer"
 id="layer1"
 transform="translate(0,5)">
<text
 xml:space="preserve"
 style="font-size:0.420555px;font-style:normal;font-variant:normal;font-weight:normal;font-stretch:normal;line-height:125%;letter-spacing:0px;word-spacing:0px;fill:#ffffff;fill-opacity:1;stroke:none;font-family:Arial;-inkscape-font-specification:Arial"
 x="-3.82528"
 y="2.5579183"
 id="text3800"
 sodipodi:linespacing="125%"
 transform="scale(1.09098,0.916607)"><tspan
 sodipodi:role="line"
 id="tspan3802"
 x="-3.82528"
 y="2.5579183">start planet</tspan><tspan
 sodipodi:role="line"
 x="-3.82528"
 y="3.083612"
 id="tspan3804" /></text>
<image
 y="0"
 x="-4"
 id="image3824-5"
 xlink:href="file:///home/acoppes/workspace/superflyingthing/superflyingthing-desktop/src/main/resources/data/images/planet.png"
 height="2"
 width="2"
 startPlanet="" />
<image
 y="5"
 x="-4"
 id="image3824-5-1"
 xlink:href="file:///home/acoppes/workspace/superflyingthing/superflyingthing-desktop/src/main/resources/data/images/planet.png"
 height="2"
 width="2"
 destinationPlanet="" />
<text
 xml:space="preserve"
 style="font-size:0.420555px;font-style:normal;font-variant:normal;font-weight:normal;font-stretch:normal;line-height:125%;letter-spacing:0px;word-spacing:0px;fill:#ffffff;fill-opacity:1;stroke:none;font-family:Arial;-inkscape-font-specification:Arial"
 x="-4.2697434"
 y="8.116293"
 id="text3800-7"
 sodipodi:linespacing="125%"
 transform="scale(1.09098,0.916607)"><tspan
 sodipodi:role="line"
 x="-4.2697434"
 y="8.116293"
 id="tspan3906">destination planet</tspan><tspan
 sodipodi:role="line"
 x="-4.2697434"
 y="8.6419868"
 id="tspan3804-9" /></text>
</g>
<g
 inkscape:groupmode="layer"
 id="layer2"
 inkscape:label="Obstacles"
 style="display:inline">
<path
 style="fill:#0000f2;fill-opacity:1;fill-rule:nonzero;stroke:#ff0000;stroke-width:0.1;stroke-linecap:butt;stroke-linejoin:round;stroke-miterlimit:4;stroke-opacity:1;stroke-dasharray:none"
 d="M 24.2467,18.7894 24.6027,19.2838 25.2158,18.8487 25.2553,18.1367 24.8203,17.5237 24.1281,17.9983 23.5545,18.117 z"
 id="path3798"
 inkscape:connector-curvature="0"
 bodyType="DynamicBody"
 movementPath="movingObstacle01" />
<path
 style="fill:#000050;fill-opacity:1;fill-rule:nonzero;stroke:#0000b9;stroke-width:0.104;stroke-linecap:butt;stroke-linejoin:round;stroke-miterlimit:4;stroke-opacity:1;stroke-dasharray:none;display:inline"
 d="M 27,20 27,19 27.9403,18.894 28.9015,18.2212 29.3821,19.0863 30.5677,18.9902 33.099,19.3106 33.3553,18.0289 34.1243,16.8113 33.9,14.4723 32.4581,12.9023 31.1124,13.447 29.8307,12.2294 30,11 35,11 35,20 z"
 id="path3904"
 inkscape:connector-curvature="0"
 sodipodi:nodetypes="ccccccccccccccccc" />
<path
 style="fill:#000050;fill-opacity:1;fill-rule:nonzero;stroke:#0000b9;stroke-width:0.104;stroke-linecap:butt;stroke-linejoin:round;stroke-miterlimit:4;stroke-opacity:1;stroke-dasharray:none;display:inline"
 d="M 27,19 25.6012,19.3426 23.5826,19.663 22.0126,18.6057 19.6415,18.2532 19.6735,16.6511 18.2511,13.6313 17.6931,12.7667 17.8533,11.5171 18.1417,10.4277 18.1417,9.59467 17.1804,8.37709 16.1231,8.02463 15.443,8.06855 14.6577,8.32272 13.6078,8.3765 11.57,8.76655 9.7788,9.27425 8.56122,9.851 7.5086,11.1906 6.57996,12.7582 6.50444,13.8315 7.75407,15.2733 8.93961,15.3374 10.1032,14.4495 11.6952,14.216 12.5035,14.7105 13.2976,15.4399 13.6843,16.087 13.2037,17.3367 13.2116,18.2963 12.8192,18.9388 10.9903,19.4388 8.59228,18.8965 7.57812,18.2188 7,20 11.4003,20.9723 14.0108,19.7569 14.7873,17.3042 14.9229,15.6248 12.9069,12.5671 13.1006,11.0562 14.5097,10.6944 15.1675,10.2441 16.0241,10.3021 16.8366,10.8905 16.2569,13.7106 17.6439,15.7132 17.4922,17.8124 18.5765,19.8343 20.8098,20.8397 23.9933,20.9944 27,20 z"
 id="path3906"
 inkscape:connector-curvature="0"
 sodipodi:nodetypes="cccccccccccccccccccccccccccccccccccccccccccccccccccccc" />
<path
 style="fill:#000050;fill-opacity:1;fill-rule:nonzero;stroke:#0000b9;stroke-width:0.104;stroke-linecap:butt;stroke-linejoin:round;stroke-miterlimit:4;stroke-opacity:1;stroke-dasharray:none;display:inline"
 d="M 6.98437,20.0313 6.15625,19.625 3.60937,17.1875 2.78125,13.8438 2.45313,9.96879 -0.45312,7.71878 -0.04687,1.59375 4.54688,-0.53125 7.06251,0.88281 9.2969,2.26562 11.7813,3.24219 14.0157,4.625 17.0525,6.02665 17.2801,7.112 15.7329,6.95591 13.6521,7.39716 12.2316,7.14266 11.0456,7.79441 8.81261,8.19615 7.26716,8.70725 6.71853,7.84168 8.02928,5.13232 7.44941,2.65733 4.82266,0.86985 1.85881,1.81508 1.04175,3.00062 1.58646,6.94174 2.73996,7.45444 4.82266,8.06325 6.58116,9.46805 5.362,12.3498 5.04826,13.9626 4.98438,16.0313 6.0258,17.4617 7.59375,18.2344 z"
 id="path3908"
 inkscape:connector-curvature="0"
 sodipodi:nodetypes="cccccccccccccccccccccccccccccccccccc" />
<path
 style="fill:#000050;fill-opacity:1;fill-rule:nonzero;stroke:#0000b9;stroke-width:0.104;stroke-linecap:butt;stroke-linejoin:round;stroke-miterlimit:4;stroke-opacity:1;stroke-dasharray:none;display:inline"
 d="M 17.0156,6.01562 17.2719,7.10912 18.7159,7.4272 18.865,8.14994 19.4813,9.00973 19.8337,11.2526 20.8911,11.3808 23.4224,10.0671 25.2808,9.00973 27.0751,9.20198 28.0044,10.0671 28.9015,10.74 30,11 35,11 34.5911,9.83699 33.6786,9.27541 32.7973,8.68258 30.6973,7.96475 29.1598,6.96567 26.8722,6.06034 25.3035,6.03001 23.2034,4.87468 20.4471,5.65685 z"
 id="path3910"
 inkscape:connector-curvature="0"
 sodipodi:nodetypes="cccccccccccccccccccccccc" />
</g>
<g
 inkscape:groupmode="layer"
 id="layer8"
 inkscape:label="Items">
<image
 y="14.4398"
 x="5.75149"
 id="image3019-7-8"
 xlink:href="file:///home/acoppes/workspace/superflyingthing/superflyingthing-desktop/src/main/resources/data/images/white-rectangle.png"
 height="0.5"
 width="0.5" />
<image
 y="13.9466"
 x="21.7506"
 id="image3019-7-2"
 xlink:href="file:///home/acoppes/workspace/superflyingthing/superflyingthing-desktop/src/main/resources/data/images/white-rectangle.png"
 height="0.5"
 width="0.5" />
<image
 y="4.92603"
 x="6.21749"
 id="image3019-7-9"
 xlink:href="file:///home/acoppes/workspace/superflyingthing/superflyingthing-desktop/src/main/resources/data/images/white-rectangle.png"
 height="0.5"
 width="0.5" />
<image
 y="3.1535"
 x="2.43672"
 id="image3019-7-10"
 xlink:href="file:///home/acoppes/workspace/superflyingthing/superflyingthing-desktop/src/main/resources/data/images/white-rectangle.png"
 height="0.5"
 width="0.5" />
</g>
<g
 inkscape:groupmode="layer"
 id="layer3"
 inkscape:label="World">
<path
 style="color:#000000;fill:none;stroke:#ff0000;stroke-width:0.1;stroke-linecap:butt;stroke-linejoin:miter;stroke-miterlimit:4;stroke-opacity:1;stroke-dasharray:none;stroke-dashoffset:0;marker:none;visibility:visible;display:inline;overflow:visible;enable-background:accumulate"
 d="M -1,5 z"
 id="path3806"
 inkscape:connector-curvature="0" />
<image
 y="15.9852"
 x="9.63317"
 id="image3824-5-8"
 xlink:href="file:///home/acoppes/workspace/superflyingthing/superflyingthing-desktop/src/main/resources/data/images/planet.png"
 height="2"
 width="2"
 startPlanet="" />
<image
 y="15.5677"
 x="30.6328"
 id="image3824-5-1-9"
 xlink:href="file:///home/acoppes/workspace/superflyingthing/superflyingthing-desktop/src/main/resources/data/images/planet.png"
 height="2"
 width="2"
 destinationPlanet="" />
</g>
<g
 inkscape:groupmode="layer"
 id="layer4"
 inkscape:label="Paths"
 style="display:inline">
<path
 style="fill:#0000f2;fill-opacity:1;fill-rule:nonzero;stroke:#ff0000;stroke-width:0.1;stroke-miterlimit:4;stroke-opacity:1;stroke-dasharray:none"
 d="M 28.0122,10.7152 24.6157,18.3726"
 id="movingObstacle01"
 inkscape:connector-curvature="0"
 sodipodi:nodetypes="cc" />
</g>
</svg>
