<?xml version="1.0" encoding="UTF-8" standalone="no"?>
<!-- Created with Inkscape (http://www.inkscape.org/) -->

<svg
 xmlns:dc="http://purl.org/dc/elements/1.1/"
 xmlns:cc="http://creativecommons.org/ns#"
 xmlns:rdf="http://www.w3.org/1999/02/22-rdf-syntax-ns#"
 xmlns:svg="http://www.w3.org/2000/svg"
 xmlns="http://www.w3.org/2000/svg"
 xmlns:xlink="http://www.w3.org/1999/xlink"
 xmlns:sodipodi="http://sodipodi.sourceforge.net/DTD/sodipodi-0.dtd"
 xmlns:inkscape="http://www.inkscape.org/namespaces/inkscape"
 width="40"
 height="25"
 id="svg2"
 version="1.1"
 inkscape:version="0.48.1 r9760"
 sodipodi:docname="level05.svg"
 levelName="Mysterious ways">
<defs
 id="defs4" />
<sodipodi:namedview
 id="base"
 pagecolor="#000000"
 bordercolor="#666666"
 borderopacity="1.0"
 inkscape:pageopacity="1"
 inkscape:pageshadow="2"
 inkscape:zoom="25.2818"
 inkscape:cx="13.5988"
 inkscape:cy="11.522"
 inkscape:document-units="px"
 inkscape:current-layer="layer2"
 showgrid="true"
 units="px"
 inkscape:window-width="1440"
 inkscape:window-height="849"
 inkscape:window-x="0"
 inkscape:window-y="24"
 inkscape:window-maximized="1"
 showguides="true"
 inkscape:guide-bbox="true"
 inkscape:snap-global="false">
<inkscape:grid
 type="xygrid"
 id="grid3765"
 empspacing="5"
 visible="true"
 enabled="true"
 snapvisiblegridlinesonly="true" />
<sodipodi:guide
 orientation="1,0"
 position="-1840,4810"
 id="guide3838" />
<sodipodi:guide
 orientation="1,0"
 position="-960,5720"
 id="guide3840" />
</sodipodi:namedview>
<metadata
 id="metadata7">
<rdf:RDF>
<cc:Work
 rdf:about="">
<dc:format>image/svg+xml</dc:format>
<dc:type
 rdf:resource="http://purl.org/dc/dcmitype/StillImage" />
<dc:title />
</cc:Work>
</rdf:RDF>
</metadata>
<g
 inkscape:label="templates"
 inkscape:groupmode="layer"
 id="layer1"
 transform="translate(0,5)">
<text
 xml:space="preserve"
 style="font-size:0.420555px;font-style:normal;font-variant:normal;font-weight:normal;font-stretch:normal;line-height:125%;letter-spacing:0px;word-spacing:0px;fill:#ffffff;fill-opacity:1;stroke:none;font-family:Arial;-inkscape-font-specification:Arial"
 x="-3.82528"
 y="2.5579183"
 id="text3800"
 sodipodi:linespacing="125%"
 transform="scale(1.09098,0.916607)"><tspan
 sodipodi:role="line"
 id="tspan3802"
 x="-3.82528"
 y="2.5579183">start planet</tspan><tspan
 sodipodi:role="line"
 x="-3.82528"
 y="3.083612"
 id="tspan3804" /></text>
<image
 y="0"
 x="-4"
 id="image3824-5"
 xlink:href="file:///home/acoppes/workspace/superflyingthing/superflyingthing-desktop/src/main/resources/data/images/planet.png"
 height="2"
 width="2"
 startPlanet="" />
<image
 y="5"
 x="-4"
 id="image3824-5-1"
 xlink:href="file:///home/acoppes/workspace/superflyingthing/superflyingthing-desktop/src/main/resources/data/images/planet.png"
 height="2"
 width="2"
 destinationPlanet="" />
<text
 xml:space="preserve"
 style="font-size:0.420555px;font-style:normal;font-variant:normal;font-weight:normal;font-stretch:normal;line-height:125%;letter-spacing:0px;word-spacing:0px;fill:#ffffff;fill-opacity:1;stroke:none;font-family:Arial;-inkscape-font-specification:Arial"
 x="-4.2697434"
 y="8.116293"
 id="text3800-7"
 sodipodi:linespacing="125%"
 transform="scale(1.09098,0.916607)"><tspan
 sodipodi:role="line"
 x="-4.2697434"
 y="8.116293"
 id="tspan3906">destination planet</tspan><tspan
 sodipodi:role="line"
 x="-4.2697434"
 y="8.6419868"
 id="tspan3804-9" /></text>
</g>
<g
 inkscape:groupmode="layer"
 id="layer2"
 inkscape:label="Obstacles"
 style="display:inline">
<path
 style="fill:#0000f2;fill-opacity:1;fill-rule:nonzero;stroke:none"
 d="M 13,25 13.2679,23.3783 14.1381,21.6775 14.4545,20.4908 14.0194,18.9087 13.0701,17.7616 11.6462,15.7048 10.5387,14.6368 8.3236,15.3884 6.97878,15.6652 5.47573,15.2697 5.11974,14.2413 4.96152,12.5009 6.66235,10.4045 7.88853,8.38728 8.5609,6.88422 10.5387,6.44912 12.3581,6.84467 14.3754,7.00288 15.0478,7.00288 15.6807,9.61345 17.1837,11.6307 17.5793,13.4106 17.6979,14.8741 17.9353,16.6541 19.0032,17.5243 19.4383,18.9482 19.913,20.7282 21.416,21.8357 22.6027,22.6663 23.3542,23.4178 23.9475,24.2089 25.6483,24.288 26.4131,24.5593 27,25 z"
 id="path3009"
 inkscape:connector-curvature="0"
 sodipodi:nodetypes="cccccccccccccccccccccccccccccccccccc" />
<path
 style="fill:#0000f2;fill-opacity:1;fill-rule:nonzero;stroke:none"
 d="M 22.0316,0.990657 22.6249,1.93996 22.3876,3.44301 23.3369,4.43186 23.416,6.88422 24.1676,8.1104 24.3258,10.1672 23.8907,10.8792 23.5347,11.9471 25.196,12.8964 26.2639,14.6764 29.3096,15.4279 31.0104,14.8346 31.9597,13.2524 33.3837,12.936 34.1747,12.8964 34.5307,11.077 33.8188,9.33657 32.7904,9.09925 31.2477,9.09925 29.8634,7.75441 29.0723,6.76556 29.626,4.3132 30.694,3.60123 31.4851,2.13773 32.197,1.93996 34.5703,1.34664 36.192,1.54441 37.4182,1.30709 38.4466,0.4369 40,0 21,0 z"
 id="path3011"
 inkscape:connector-curvature="0"
 sodipodi:nodetypes="ccccccccccccccccccccccccccccccccc" />
<path
 style="fill:#0000f2;fill-opacity:1;fill-rule:nonzero;stroke:#ff0000;stroke-width:0.1;stroke-linecap:butt;stroke-linejoin:round;stroke-miterlimit:4;stroke-opacity:1;stroke-dasharray:none"
 d="M 3.75764,5.85585 4.11364,6.35025 4.72674,5.91515 4.76624,5.20315 4.33124,4.59015 3.63904,5.06475 3.06544,5.18345 z"
 id="path3798"
 inkscape:connector-curvature="0"
 bodyType="DynamicBody"
 movementPath="movingObstacle01" />
</g>
<g
 inkscape:groupmode="layer"
 id="layer3"
 inkscape:label="World">
<path
 style="color:#000000;fill:none;stroke:#ff0000;stroke-width:0.1;stroke-linecap:butt;stroke-linejoin:miter;stroke-miterlimit:4;stroke-opacity:1;stroke-dasharray:none;stroke-dashoffset:0;marker:none;visibility:visible;display:inline;overflow:visible;enable-background:accumulate"
 d="M -1,5 z"
 id="path3806"
 inkscape:connector-curvature="0" />
<image
 y="19.1978"
 x="7.14095"
 id="image3824-5-8"
 xlink:href="file:///home/acoppes/workspace/superflyingthing/superflyingthing-desktop/src/main/resources/data/images/planet.png"
 height="2"
 width="2"
 startPlanet="" />
<image
 y="3.88134"
 x="34.0801"
 id="image3824-5-1-9"
 xlink:href="file:///home/acoppes/workspace/superflyingthing/superflyingthing-desktop/src/main/resources/data/images/planet.png"
 height="2"
 width="2"
 destinationPlanet="" />
</g>
<g
 inkscape:groupmode="layer"
 id="layer4"
 inkscape:label="Paths"
 style="display:inline">
<path
 style="fill:#0000f2;fill-opacity:1;fill-rule:nonzero;stroke:#ff0000;stroke-width:0.1;stroke-miterlimit:4;stroke-opacity:1;stroke-dasharray:none"
 d="M 17.5304,2.92376 5.31323,5.16217"
 id="movingObstacle01"
 inkscape:connector-curvature="0"
 sodipodi:nodetypes="cc" />
</g>
</svg>
