<?xml version="1.0" encoding="UTF-8" standalone="no"?>
<!-- Created with Inkscape (http://www.inkscape.org/) -->

<svg
 xmlns:dc="http://purl.org/dc/elements/1.1/"
 xmlns:cc="http://creativecommons.org/ns#"
 xmlns:rdf="http://www.w3.org/1999/02/22-rdf-syntax-ns#"
 xmlns:svg="http://www.w3.org/2000/svg"
 xmlns="http://www.w3.org/2000/svg"
 xmlns:xlink="http://www.w3.org/1999/xlink"
 xmlns:sodipodi="http://sodipodi.sourceforge.net/DTD/sodipodi-0.dtd"
 xmlns:inkscape="http://www.inkscape.org/namespaces/inkscape"
 width="30"
 height="20"
 id="svg2"
 version="1.1"
 inkscape:version="0.48.1 r9760"
 sodipodi:docname="level06.svg"
 levelName="Caves of doom">
<defs
 id="defs4" />
<sodipodi:namedview
 id="base"
 pagecolor="#000000"
 bordercolor="#666666"
 borderopacity="1.0"
 inkscape:pageopacity="1"
 inkscape:pageshadow="2"
 inkscape:zoom="16.3282"
 inkscape:cx="5.43791"
 inkscape:cy="12.4853"
 inkscape:document-units="px"
 inkscape:current-layer="layer2"
 showgrid="true"
 units="px"
 inkscape:window-width="1440"
 inkscape:window-height="849"
 inkscape:window-x="0"
 inkscape:window-y="24"
 inkscape:window-maximized="1"
 showguides="true"
 inkscape:guide-bbox="true"
 inkscape:snap-global="false">
<inkscape:grid
 type="xygrid"
 id="grid3765"
 empspacing="5"
 visible="true"
 enabled="true"
 snapvisiblegridlinesonly="true" />
<sodipodi:guide
 orientation="1,0"
 position="-1840,4810"
 id="guide3838" />
<sodipodi:guide
 orientation="1,0"
 position="-960,5720"
 id="guide3840" />
</sodipodi:namedview>
<metadata
 id="metadata7">
<rdf:RDF>
<cc:Work
 rdf:about="">
<dc:format>image/svg+xml</dc:format>
<dc:type
 rdf:resource="http://purl.org/dc/dcmitype/StillImage" />
<dc:title />
</cc:Work>
</rdf:RDF>
</metadata>
<g
 inkscape:label="templates"
 inkscape:groupmode="layer"
 id="layer1"
 transform="translate(0,5)">
<text
 xml:space="preserve"
 style="font-size:0.420555px;font-style:normal;font-variant:normal;font-weight:normal;font-stretch:normal;line-height:125%;letter-spacing:0px;word-spacing:0px;fill:#ffffff;fill-opacity:1;stroke:none;font-family:Arial;-inkscape-font-specification:Arial"
 x="-3.82528"
 y="2.5579183"
 id="text3800"
 sodipodi:linespacing="125%"
 transform="scale(1.09098,0.916607)"><tspan
 sodipodi:role="line"
 id="tspan3802"
 x="-3.82528"
 y="2.5579183">start planet</tspan><tspan
 sodipodi:role="line"
 x="-3.82528"
 y="3.083612"
 id="tspan3804" /></text>
<image
 y="0"
 x="-4"
 id="image3824-5"
 xlink:href="file:///home/acoppes/workspace/superflyingthing/superflyingthing-desktop/src/main/resources/data/images/planet.png"
 height="2"
 width="2"
 startPlanet="" />
<image
 y="5"
 x="-4"
 id="image3824-5-1"
 xlink:href="file:///home/acoppes/workspace/superflyingthing/superflyingthing-desktop/src/main/resources/data/images/planet.png"
 height="2"
 width="2"
 destinationPlanet="" />
<text
 xml:space="preserve"
 style="font-size:0.420555px;font-style:normal;font-variant:normal;font-weight:normal;font-stretch:normal;line-height:125%;letter-spacing:0px;word-spacing:0px;fill:#ffffff;fill-opacity:1;stroke:none;font-family:Arial;-inkscape-font-specification:Arial"
 x="-4.2697434"
 y="8.116293"
 id="text3800-7"
 sodipodi:linespacing="125%"
 transform="scale(1.09098,0.916607)"><tspan
 sodipodi:role="line"
 x="-4.2697434"
 y="8.116293"
 id="tspan3906">destination planet</tspan><tspan
 sodipodi:role="line"
 x="-4.2697434"
 y="8.6419868"
 id="tspan3804-9" /></text>
<image
 y="13.7946"
 x="-3.96967"
 id="image3019-7-8"
 xlink:href="file:///home/acoppes/workspace/superflyingthing/superflyingthing-desktop/src/main/resources/data/images/white-rectangle.png"
 height="0.5"
 width="0.5"
 transform="translate(0,-5)" />
</g>
<g
 inkscape:groupmode="layer"
 id="layer2"
 inkscape:label="Obstacles">
<path
 style="fill:#0000b4;fill-opacity:1;fill-rule:nonzero;stroke:#0000ff;stroke-opacity:1;stroke-width:0.1;stroke-miterlimit:4;stroke-dasharray:none"
 d="M 7.59443,6.3934 8.36572,5.9504 9.94215,5.96799 11.4509,6.51997 12.2223,6.55161 13.4088,6.17191 14.6547,6.61491 16.85,6.29847 18.1256,5.57067 19.4606,5.47574 20.9735,5.79218 23.1985,5.31753 24.0588,5.4441 24.5334,6.77311 23.9995,7.65914 24.6521,9.11474 24.1775,10.5071 24.4147,11.7412 24.3852,13.26 24.0291,13.9562 22.4568,13.8296 21.2405,15.2218 20.4099,15.2218 18.6893,14.7156 17.3247,14.2726 16.0194,13.8296 14.447,13.9878 12.8156,13.8296 11.0652,14.8737 10.027,14.4625 9.46335,12.9753 7.47572,13.1967 5.77024,14.2711 5.2956,12.9103 5.59225,11.8028 4.88028,10.5056 5.2956,9.49298 5.44392,7.94245 5.65159,6.83494 6.09657,5.91728 6.60088,5.98058 7.23839,6.36175 z"
 id="path3033"
 inkscape:connector-curvature="0"
 sodipodi:nodetypes="ccccccccccccccccccccccccccccccccccccccccccc" />
<path
 style="fill:#0000b4;fill-opacity:1;fill-rule:nonzero;stroke:#0000ff;stroke-opacity:1;stroke-width:0.1;stroke-miterlimit:4;stroke-dasharray:none"
 d="M 26.25,0 25.898,0.919097 26.3134,1.90005 26.165,2.91263 25.9766,4.37128 26.4216,7.31412 26.0952,8.80134 25.7393,11.3644 26.0656,13.1681 26.3304,15.568 27.1521,17.337 26.7881,18.9875 27,20 30,20 30,0 z"
 id="path3037"
 inkscape:connector-curvature="0"
 sodipodi:nodetypes="cccccccccccccccc" />
<path
 style="fill:#0000b4;fill-opacity:1;fill-rule:nonzero;stroke:#0000ff;stroke-opacity:1;stroke-width:0.1;stroke-miterlimit:4;stroke-dasharray:none"
 d="M 5.25,0 4.62783,1.74183 3.85652,2.84934 3.87793,5.73183 3,10.4 3.53648,12.5168 4.07322,15.2374 3.82687,16.8357 4.96178,18.9436 3.94552,19.8735 3,20 0,20 0,0 z"
 id="path3039"
 inkscape:connector-curvature="0"
 sodipodi:nodetypes="cccccccccccccc" />
<path
 style="fill:#0000b4;fill-opacity:1;fill-rule:nonzero;stroke:#0000ff;stroke-opacity:1;stroke-width:0.1;stroke-miterlimit:4;stroke-dasharray:none"
 d="M 3.72777,4.47649 4.48315,3.79113 5.52642,3.84967 7.21737,4.51419 9.17532,4.57746 11.0525,4.17197 13.053,1.99498 16.6286,1.42539 19.6574,3.7891 24.0484,3.92825 26.9713,4.77277 26.5211,0.001444 3.75,0 z"
 id="path3043"
 inkscape:connector-curvature="0"
 sodipodi:nodetypes="cccccccccccccc" />
<path
 style="fill:#0000b4;fill-opacity:1;fill-rule:nonzero;stroke:#0000ff;stroke-opacity:1;stroke-width:0.1;stroke-miterlimit:4;stroke-dasharray:none"
 d="M 3.90043,15.0288 4.7837,16.6608 5.88372,17.6902 7.87127,17.6902 9.14453,16.6608 11.3866,18.2083 14.8088,18.8074 15.8471,19.1872 18.3982,19.0606 20.6529,18.2379 22.3735,17.8898 25.2204,16.1525 26.9103,13.811 28.0635,16.3149 27.75,20 3,20 z"
 id="path3045"
 inkscape:connector-curvature="0"
 sodipodi:nodetypes="ccccccccccccccccc" />
</g>
<g
 inkscape:groupmode="layer"
 id="layer9"
 inkscape:label="Items" />
<g
 inkscape:groupmode="layer"
 id="layer3"
 inkscape:label="World">
<path
 style="color:#000000;fill:none;stroke:#ff0000;stroke-width:0.1;stroke-linecap:butt;stroke-linejoin:miter;stroke-miterlimit:4;stroke-opacity:1;stroke-dasharray:none;stroke-dashoffset:0;marker:none;visibility:visible;display:inline;overflow:visible;enable-background:accumulate"
 d="M -1,5 z"
 id="path3806"
 inkscape:connector-curvature="0" />
<image
 y="3.02165"
 x="14.3464"
 id="image3824-5-8"
 xlink:href="file:///home/acoppes/workspace/superflyingthing/superflyingthing-desktop/src/main/resources/data/images/planet.png"
 height="2"
 width="2"
 startPlanet="" />
<image
 y="15.6005"
 x="13.9982"
 id="image3824-5-1-9"
 xlink:href="file:///home/acoppes/workspace/superflyingthing/superflyingthing-desktop/src/main/resources/data/images/planet.png"
 height="2"
 width="2"
 destinationPlanet="" />
</g>
</svg>
