<?xml version="1.0" encoding="UTF-8" standalone="no"?>
<!-- Created with Inkscape (http://www.inkscape.org/) -->

<svg
 xmlns:dc="http://purl.org/dc/elements/1.1/"
 xmlns:cc="http://creativecommons.org/ns#"
 xmlns:rdf="http://www.w3.org/1999/02/22-rdf-syntax-ns#"
 xmlns:svg="http://www.w3.org/2000/svg"
 xmlns="http://www.w3.org/2000/svg"
 xmlns:sodipodi="http://sodipodi.sourceforge.net/DTD/sodipodi-0.dtd"
 xmlns:inkscape="http://www.inkscape.org/namespaces/inkscape"
 width="120"
 height="30"
 id="svg2"
 version="1.1"
 inkscape:version="0.48.1 r9760"
 sodipodi:docname="level-tiles-template.svg"
 levelName="No turning back!"
 inkscape:export-filename="/tmp/levelexample.png"
 inkscape:export-xdpi="180"
 inkscape:export-ydpi="180">
<defs
 id="defs4" />
<sodipodi:namedview
 id="base"
 pagecolor="#000000"
 bordercolor="#666666"
 borderopacity="1.0"
 inkscape:pageopacity="1"
 inkscape:pageshadow="2"
 inkscape:zoom="45.2548"
 inkscape:cx="99.1507"
 inkscape:cy="4.78929"
 inkscape:document-units="px"
 inkscape:current-layer="layer2"
 showgrid="true"
 units="px"
 inkscape:window-width="1440"
 inkscape:window-height="849"
 inkscape:window-x="0"
 inkscape:window-y="24"
 inkscape:window-maximized="1"
 showguides="true"
 inkscape:guide-bbox="true"
 inkscape:snap-global="true">
<inkscape:grid
 type="xygrid"
 id="grid3765"
 empspacing="5"
 visible="true"
 enabled="true"
 snapvisiblegridlinesonly="true" />
<sodipodi:guide
 orientation="1,0"
 position="-1840,4810"
 id="guide3838" />
<sodipodi:guide
 orientation="1,0"
 position="-960,5720"
 id="guide3840" />
</sodipodi:namedview>
<metadata
 id="metadata7">
<rdf:RDF>
<cc:Work
 rdf:about="">
<dc:format>image/svg+xml</dc:format>
<dc:type
 rdf:resource="http://purl.org/dc/dcmitype/StillImage" />
<dc:title />
</cc:Work>
</rdf:RDF>
</metadata>
<g
 inkscape:groupmode="layer"
 id="layer2"
 inkscape:label="Tiles">
<g
 id="A"
 type="start"
 style="fill:#000050;fill-opacity:1;stroke:#0000b9;stroke-width:0.1;stroke-miterlimit:4;stroke-opacity:1;stroke-dasharray:none"
 links="0,A">
<path
 sodipodi:nodetypes="ccccccccccccccccc"
 inkscape:connector-curvature="0"
 id="path-123123"
 d="M 1.41618,2.71677 3.21975,1.31156 5.25444,1.89583 6.80433,3.02989 8.3542,3.93713 10,4 10,0 0,0 0,10 10,10 10,6 8.2408,6.20523 6.20976,7.11137 4.25875,7.48113 2.26149,7.22659 0.902836,4.89612 z"
 style="fill:#000050;fill-opacity:1;fill-rule:nonzero;stroke:#0000b9;stroke-width:0.1;stroke-miterlimit:4;stroke-opacity:1;stroke-dasharray:none" />
</g>
<g
 id="B"
 transform="matrix(1.39166,0,0,1,10,0)"
 style="fill:#000050;fill-opacity:1;stroke:#0000b9;stroke-width:0.084768;stroke-miterlimit:4;stroke-opacity:1;stroke-dasharray:none"
 links="A,A">
<path
 sodipodi:nodetypes="ccccccccc"
 inkscape:connector-curvature="0"
 id="path3064"
 d="M 0,6 1.94285,4.98265 4.00674,4.87384 5.82633,5.15321 6.75552,5.52267 7.18564,6 7.18564,10 0,10 z"
 style="fill:#000050;fill-opacity:1;fill-rule:nonzero;stroke:#0000b9;stroke-width:0.084768;stroke-miterlimit:4;stroke-opacity:1;stroke-dasharray:none" />
<path
 sodipodi:nodetypes="cccccccc"
 inkscape:connector-curvature="0"
 id="path3068"
 d="M 0,4 0.9244,3.50858 3.15985,3.20694 5.12616,3.49665 7.18564,4 7.18564,0 0,0 z"
 style="fill:#000050;fill-opacity:1;fill-rule:nonzero;stroke:#0000b9;stroke-width:0.084768;stroke-miterlimit:4;stroke-opacity:1;stroke-dasharray:none" />
</g>
<g
 id="C"
 transform="translate(20,0)"
 style="fill:#000050;fill-opacity:1;stroke:#0000b9;stroke-width:0.1;stroke-miterlimit:4;stroke-opacity:1;stroke-dasharray:none"
 links="A,A">
<path
 sodipodi:nodetypes="ccccccccc"
 inkscape:connector-curvature="0"
 id="path3074"
 d="M 0,6 1.358,7.41489 4.41328,8.67299 7.12626,8.48985 9.00676,6.20927 10,6 10,10 0,10 z"
 style="fill:#000050;fill-opacity:1;fill-rule:nonzero;stroke:#0000b9;stroke-width:0.1;stroke-miterlimit:4;stroke-opacity:1;stroke-dasharray:none" />
<path
 sodipodi:nodetypes="cccccccccc"
 inkscape:connector-curvature="0"
 id="path3076"
 d="M 0,4 0.860364,3.9041 2.26597,2.09145 4.66474,1.37505 7.2646,2.24706 8.79866,3.88611 10,4 10,0 0,0 z"
 style="fill:#000050;fill-opacity:1;fill-rule:nonzero;stroke:#0000b9;stroke-width:0.1;stroke-miterlimit:4;stroke-opacity:1;stroke-dasharray:none" />
<path
 inkscape:connector-curvature="0"
 id="path3078"
 d="M 1.83105,5.25663 2.454,4.17146 3.45195,3.55503 5.5623,3.20977 7.3345,4.35844 6.73238,6.13029 5.03128,6.88633 2.62153,6.18473 z"
 style="fill:#000050;fill-opacity:1;fill-rule:nonzero;stroke:#0000b9;stroke-width:0.1;stroke-miterlimit:4;stroke-opacity:1;stroke-dasharray:none"
 sodipodi:nodetypes="ccccccccc" />
</g>
<g
 id="E"
 transform="matrix(-1,0,0,-1,50,10)"
 type="end"
 style="fill:#000050;fill-opacity:1;stroke:#0000b9;stroke-width:0.1;stroke-miterlimit:4;stroke-opacity:1;stroke-dasharray:none"
 links="A,0">
<path
 sodipodi:nodetypes="cccccccccccccccc"
 inkscape:connector-curvature="0"
 id="path-123123-0"
 d="M 1.66328,3.48351 2.87293,1.82023 5.25444,1.89583 6.80433,3.02989 8.3542,3.93713 10,4 10,0 0,0 0,10 10,10 10,6 8.2408,6.20523 6.4641,8.35993 2.60831,8.77573 1.13405,5.75161 z"
 style="fill:#000050;fill-opacity:1;fill-rule:nonzero;stroke:#0000b9;stroke-width:0.1;stroke-miterlimit:4;stroke-opacity:1;stroke-dasharray:none" />
</g>
<g
 id="D"
 transform="matrix(0.666662,0,0,0.666667,30,0)"
 style="fill:#000050;fill-opacity:1;stroke:#0000b9;stroke-width:0.156001;stroke-miterlimit:4;stroke-opacity:1;stroke-dasharray:none"
 links="A,A">
<path
 inkscape:connector-curvature="0"
 id="path3007"
 d="M 0,6 1.50055,6.35813 2.41516,6.85689 4.38971,9.31624 5.81251,10.1641 8.72665,10.0937 11.0025,9.11579 12.7125,7.22994 13.6922,6.42747 15.0001,6 15.0001,0 0,0 z"
 style="fill:#000050;fill-opacity:1;fill-rule:nonzero;stroke:#0000b9;stroke-width:0.156001;stroke-miterlimit:4;stroke-opacity:1;stroke-dasharray:none"
 sodipodi:nodetypes="ccccccccccccc" />
<path
 inkscape:connector-curvature="0"
 id="path3011"
 d="M 0,9 1.4233,9.87887 3.39548,11.6635 5.51782,12.5456 7.75441,12.5473 9.70841,12.1644 11.1408,11.6172 12.3651,10.9096 13.4967,9.8267 14.1781,9.27272 15.0001,9 15.0001,15 0,15 z"
 style="fill:#000050;fill-opacity:1;fill-rule:nonzero;stroke:#0000b9;stroke-width:0.156001;stroke-miterlimit:4;stroke-opacity:1;stroke-dasharray:none"
 sodipodi:nodetypes="cccccccccccccc" />
</g>
<g
 id="F2"
 transform="matrix(0.666667,0,0,0.666667,10,10)"
 style="fill:#000050;fill-opacity:1;stroke:#0000b9;stroke-width:0.156;stroke-miterlimit:4;stroke-opacity:1;stroke-dasharray:none"
 links="B1,A">
<path
 inkscape:connector-curvature="0"
 id="path3130"
 d="M 0,3 1.44378,3.2833 2.3462,3.4502 3.0582,3.0151 5.25847,3.58656 6.4598,4.8742 8.9517,5.151 11.1667,5.8235 11.9974,6.4959 12.3342,8.0678 10.966,9.57374 9.05407,10.1889 5.77259,10.019 2.78859,9.26905 1.50965,8.04579 0,7.5 z"
 style="fill:#000050;fill-opacity:1;fill-rule:nonzero;stroke:#0000b9;stroke-width:0.156;stroke-miterlimit:4;stroke-opacity:1;stroke-dasharray:none"
 sodipodi:nodetypes="ccccccccccccccccc" />
<path
 sodipodi:nodetypes="cccccccccccccc"
 inkscape:connector-curvature="0"
 id="path3132"
 d="M 0,1.5 2.2275,0.9583 4.9963,1.2352 7.4091,1.6703 8.30718,2.47747 9.189,2.9756 10.613,3.5689 12.1951,3.6084 13.5795,4.4391 14.0412,5.53443 15,6 15,0 0,0 z"
 style="fill:#000050;fill-opacity:1;fill-rule:nonzero;stroke:#0000b9;stroke-width:0.156;stroke-miterlimit:4;stroke-opacity:1;stroke-dasharray:none" />
<path
 sodipodi:nodetypes="ccccccccccccccc"
 inkscape:connector-curvature="0"
 id="path3134"
 d="M 0,13.5 1.41448,13.8794 2.4648,13.9716 3.8888,12.9432 5.7083,12.429 8.44764,11.8827 10.6069,11.0551 11.7951,10.8075 12.791,10.7846 13.8564,10.2931 14.1962,9.48082 15,9 15,15 0,15 z"
 style="fill:#000050;fill-opacity:1;fill-rule:nonzero;stroke:#0000b9;stroke-width:0.156;stroke-miterlimit:4;stroke-opacity:1;stroke-dasharray:none" />
</g>
<g
 id="F1"
 transform="matrix(0.666667,0,0,0.666667,0,10)"
 style="fill:#000050;fill-opacity:1;stroke:#0000b9;stroke-width:0.156;stroke-miterlimit:4;stroke-opacity:1;stroke-dasharray:none"
 links="A,B1">
<path
 sodipodi:nodetypes="ccccccccccc"
 inkscape:connector-curvature="0"
 id="path3044"
 d="M 0,6 0,0 15,0 15,1.5 10.6909,2.77987 8.06178,2.33237 5.01336,3.06432 3.9015,4.12019 2.6677,4.6515 1.493,5.6584 z"
 style="fill:#000050;fill-opacity:1;fill-rule:nonzero;stroke:#0000b9;stroke-width:0.156;stroke-miterlimit:4;stroke-opacity:1;stroke-dasharray:none" />
<path
 sodipodi:nodetypes="ccccccccccc"
 inkscape:connector-curvature="0"
 id="path3044-1"
 d="M 0,9 0,15 15,15 15,13.5 13.1049,12.1029 9.93677,11.6598 7.54687,11.6484 4.96211,10.3914 3.2271,9.9569 1.493,9.3416 z"
 style="fill:#000050;fill-opacity:1;fill-rule:nonzero;stroke:#0000b9;stroke-width:0.156;stroke-miterlimit:4;stroke-opacity:1;stroke-dasharray:none" />
<path
 sodipodi:nodetypes="cccccccccccccccc"
 inkscape:connector-curvature="0"
 id="path3097"
 d="M 5.00895,6.62484 5.03685,7.35204 5.45645,7.77154 6.35044,8.89581 8.80412,9.81759 10.4515,10.0201 12.4373,9.71244 13.7239,8.48184 15,7.5 15,3 12.9043,4.2599 11.2821,4.7634 9.96762,5.4906 7.16255,5.53404 5.70815,5.95364 z"
 style="fill:#000050;fill-opacity:1;fill-rule:nonzero;stroke:#0000b9;stroke-width:0.156;stroke-miterlimit:4;stroke-opacity:1;stroke-dasharray:none" />
</g>
<g
 id="G1"
 transform="matrix(0.666667,0,0,0.666667,-1e-5,-5e-6)"
 style="fill:#000050;fill-opacity:1;stroke:#0000b9;stroke-width:0.156;stroke-miterlimit:4;stroke-opacity:1;stroke-dasharray:none"
 links="A,C1">
<path
 sodipodi:nodetypes="ccccccccccc"
 inkscape:connector-curvature="0"
 id="path3149"
 d="M 30,21 31.3268,20.2697 31.5641,19.3204 32.5925,17.7382 34.0956,16.8681 38.1301,16.3143 42.8766,16.3934 45,16.5 45,15 30,15 z"
 style="fill:#000050;fill-opacity:1;fill-rule:nonzero;stroke:#0000b9;stroke-width:0.156;stroke-miterlimit:4;stroke-opacity:1;stroke-dasharray:none" />
<path
 sodipodi:nodetypes="ccccccccccc"
 inkscape:connector-curvature="0"
 id="path3151"
 d="M 30,24 31.6982,23.273 32.6009,22.1814 34.9774,20.1362 38.1291,19.3335 39.6412,18.5932 42.3425,18.1985 45,18 45,30 30,30 z"
 style="fill:#000050;fill-opacity:1;fill-rule:nonzero;stroke:#0000b9;stroke-width:0.156;stroke-miterlimit:4;stroke-opacity:1;stroke-dasharray:none" />
</g>
<g
 id="G2"
 transform="matrix(0.666667,0,0,0.666667,-1.5e-5,-5e-6)"
 style="fill:#000050;fill-opacity:1;stroke:#0000b9;stroke-width:0.156;stroke-miterlimit:4;stroke-opacity:1;stroke-dasharray:none"
 links="C1,C2">
<path
 sodipodi:nodetypes="ccccccccccccc"
 inkscape:connector-curvature="0"
 id="path3153"
 d="M 45,16.5 45.4222,16.4872 48.9456,16.2952 52.3019,15.6799 54.5394,16.0155 58.1194,19.3159 58.6727,21.5803 57.6437,25.1409 58.4443,25.89 60,25.5 60,15 45,15 z"
 style="fill:#000050;fill-opacity:1;fill-rule:nonzero;stroke:#0000b9;stroke-width:0.156;stroke-miterlimit:4;stroke-opacity:1;stroke-dasharray:none" />
<path
 sodipodi:nodetypes="cccccccccccc"
 inkscape:connector-curvature="0"
 id="path3155"
 d="M 45,18 48.8915,18.3487 51.8031,18.974 53.8516,20.1441 54.1182,23.4353 53.8428,26.2141 56.5788,28.3263 58.4228,28.1557 60,28.5 60,30 45,30 z"
 style="fill:#000050;fill-opacity:1;fill-rule:nonzero;stroke:#0000b9;stroke-width:0.156;stroke-miterlimit:4;stroke-opacity:1;stroke-dasharray:none" />
</g>
<g
 id="G3"
 transform="matrix(0.666667,0,0,0.666667,50,9.99999)"
 style="fill:#000050;fill-opacity:1;stroke:#0000b9;stroke-width:0.156;stroke-miterlimit:4;stroke-opacity:1;stroke-dasharray:none"
 links="C2,A">
<path
 sodipodi:nodetypes="ccccccccccc"
 inkscape:connector-curvature="0"
 id="path3157"
 d="M 60,25.5 62.1923,25.4622 63.3776,24.2384 63.937,22.784 66.2864,21.1059 70.5376,20.2668 73.1108,20.6024 75,21 75,15 60,15 z"
 style="fill:#000050;fill-opacity:1;fill-rule:nonzero;stroke:#0000b9;stroke-width:0.156;stroke-miterlimit:4;stroke-opacity:1;stroke-dasharray:none" />
<path
 sodipodi:nodetypes="cccccccccccc"
 inkscape:connector-curvature="0"
 id="path3159"
 d="M 60,28.5 62.9619,27.9485 64.5379,27.06 65.7814,24.9053 67.3477,23.4562 68.7326,22.7369 71.0973,22.2887 73.6992,23.0878 75,24 75,30 60,30 z"
 style="fill:#000050;fill-opacity:1;fill-rule:nonzero;stroke:#0000b9;stroke-width:0.156;stroke-miterlimit:4;stroke-opacity:1;stroke-dasharray:none" />
</g>
<g
 id="G2_2"
 transform="matrix(0.666667,0,0,0.666667,20,9.99999)"
 style="fill:#000050;fill-opacity:1;stroke:#0000b9;stroke-width:0.156;stroke-miterlimit:4;stroke-opacity:1;stroke-dasharray:none"
 links="C1,C2">
<path
 sodipodi:nodetypes="ccccccccccccc"
 inkscape:connector-curvature="0"
 id="path3153-4"
 d="M 45,16.5 48,18 49.9768,22.2952 51.6925,24.6799 54.0707,25.6249 55.6819,25.6909 56.3758,26.0334 57.2804,25.469 58.5615,25.679 60,25.5 60,15 45,15 z"
 style="fill:#000050;fill-opacity:1;fill-rule:nonzero;stroke:#0000b9;stroke-width:0.156;stroke-miterlimit:4;stroke-opacity:1;stroke-dasharray:none" />
<path
 sodipodi:nodetypes="cccccccccccc"
 inkscape:connector-curvature="0"
 id="path3155-9"
 d="M 45,18 46.5,19.5 48,22.5 49.0313,25.6875 51,27 53.4678,28.0422 56.5788,28.3263 58.5927,27.7807 60,28.5 60,30 45,30 z"
 style="fill:#000050;fill-opacity:1;fill-rule:nonzero;stroke:#0000b9;stroke-width:0.156;stroke-miterlimit:4;stroke-opacity:1;stroke-dasharray:none" />
</g>
<g
 id="E-6"
 transform="matrix(-1,0,0,-1,20,30)"
 type="end"
 style="fill:#000050;fill-opacity:1;stroke:#0000b9;stroke-width:0.1;stroke-miterlimit:4;stroke-opacity:1;stroke-dasharray:none"
 links="B1,0">
<path
 style="fill:#000050;fill-opacity:1;fill-rule:nonzero;stroke:#0000b9;stroke-width:0.104;stroke-linecap:butt;stroke-linejoin:round;stroke-miterlimit:4;stroke-opacity:1;stroke-dasharray:none"
 d="M 8.44183,5.33146 9.16562,4.87847 10,5 10,8 9,7.74015 8.32041,7.65186 8.18219,6.23765 z"
 id="path3089"
 inkscape:connector-curvature="0"
 sodipodi:nodetypes="cccccccc" />
<path
 sodipodi:nodetypes="cccccccccccccccc"
 inkscape:connector-curvature="0"
 id="path-123123-0-8"
 d="M 1.66328,3.48351 2.87293,1.82023 4.35951,1.35445 6.31819,1.27317 8,1 10,1 10,0 0,0 0,10 10,10 10,9 7.94249,9.26568 5.75699,9.18857 2.60831,8.77573 1.13405,5.75161 z"
 style="fill:#000050;fill-opacity:1;fill-rule:nonzero;stroke:#0000b9;stroke-width:0.1;stroke-miterlimit:4;stroke-opacity:1;stroke-dasharray:none" />
</g>
<g
 id="E-5"
 transform="matrix(-1,0,0,-1,40,30)"
 type="end"
 style="fill:#000050;fill-opacity:1;stroke:#0000b9;stroke-width:0.1;stroke-miterlimit:4;stroke-opacity:1;stroke-dasharray:none"
 links="C1,0">
<path
 sodipodi:nodetypes="cccccccccccccccc"
 inkscape:connector-curvature="0"
 id="path-123123-0-3"
 d="M 0.85078,2.51476 2.68543,0.57023 6.17147,1.16663 7.94233,2.75368 8.8025,7.20239 10,8 10,0 0,0 0,10 10,10 10,9 7.90934,9.04471 5.7141,7.64118 1.73331,7.18198 1.13405,5.75161 z"
 style="fill:#000050;fill-opacity:1;fill-rule:nonzero;stroke:#0000b9;stroke-width:0.1;stroke-miterlimit:4;stroke-opacity:1;stroke-dasharray:none" />
</g>
<g
 id="E-5-7"
 transform="matrix(-1,0,0,1,70,20)"
 type="end"
 style="fill:#000050;fill-opacity:1;stroke:#0000b9;stroke-width:0.1;stroke-miterlimit:4;stroke-opacity:1;stroke-dasharray:none"
 links="C2,0">
<path
 sodipodi:nodetypes="cccccccccccccccc"
 inkscape:connector-curvature="0"
 id="path-123123-0-3-8"
 d="M 0.85078,2.51476 2.68543,0.57023 6.17147,1.16663 7.94233,2.75368 8.84034,6.88709 10,7 10,0 0,0 0,10 10,10 10,9 7.90934,9.04471 5.7141,7.64118 1.73331,7.18198 1.13405,5.75161 z"
 style="fill:#000050;fill-opacity:1;fill-rule:nonzero;stroke:#0000b9;stroke-width:0.1;stroke-miterlimit:4;stroke-opacity:1;stroke-dasharray:none" />
</g>
<g
 id="H1"
 links="B1,B1"
 transform="translate(-70,15)">
<path
 sodipodi:nodetypes="ccccccccc"
 inkscape:connector-curvature="0"
 id="path3061"
 d="M 70,6 70.5781,5.84787 71.8819,5.80367 75.329,5.93625 78.8204,5.84787 80,6 80,5 70,5 z"
 style="fill:#000058;fill-opacity:0.795699;fill-rule:nonzero;stroke:#0000c3;stroke-width:0.1;stroke-linecap:butt;stroke-linejoin:round;stroke-miterlimit:4;stroke-opacity:1;stroke-dasharray:none" />
<path
 sodipodi:nodetypes="cccccccccccc"
 inkscape:connector-curvature="0"
 id="path3831"
 d="M 70,7 70.7549,7.1074 71.3957,7.32837 73.1414,7.15159 73.959,8.23435 73.7159,9.51599 73.2077,10.3336 72.3459,10.886 71.0422,10.4441 70.2467,10.2894 70,10 z"
 style="fill:#000058;fill-opacity:0.795699;fill-rule:nonzero;stroke:#0000c3;stroke-width:0.1;stroke-linecap:butt;stroke-linejoin:round;stroke-miterlimit:4;stroke-opacity:1;stroke-dasharray:none" />
<path
 sodipodi:nodetypes="cccccccccccccccc"
 inkscape:connector-curvature="0"
 id="path3833"
 d="M 70,14 71.1306,13.9796 71.7714,13.4714 72.3238,13.162 73.0751,12.8526 73.7601,11.9025 74.9755,11.1291 75.6163,11.5268 76.0582,12.4991 76.3234,13.2725 77.5829,13.5156 79.3728,13.6702 80,14 80,15 70,15 z"
 style="fill:#000058;fill-opacity:0.795699;fill-rule:nonzero;stroke:#0000c3;stroke-width:0.1;stroke-linecap:butt;stroke-linejoin:round;stroke-miterlimit:4;stroke-opacity:1;stroke-dasharray:none" />
<path
 sodipodi:nodetypes="ccccccccccccc"
 inkscape:connector-curvature="0"
 id="path3835"
 d="M 80,7 79.1518,7.06321 78.4005,7.21789 77.362,7.74822 76.5223,9.09614 76.6549,9.73696 77.4503,10.7976 78.0912,11.2617 78.4005,12.013 79.3065,11.5931 79.4501,10.7755 80,10 z"
 style="fill:#000058;fill-opacity:0.795699;fill-rule:nonzero;stroke:#0000c3;stroke-width:0.1;stroke-linecap:butt;stroke-linejoin:round;stroke-miterlimit:4;stroke-opacity:1;stroke-dasharray:none" />
</g>
<g
 id="H2"
 links="B1,C1">
<path
 sodipodi:nodetypes="ccccccccc"
 inkscape:connector-curvature="0"
 id="path3061-7"
 d="M 70,11 70.5781,10.8479 71.8819,10.8037 75.329,10.9363 78.8204,10.8479 80,11 80,10 70,10 z"
 style="fill:#000058;fill-opacity:0.795699;fill-rule:nonzero;stroke:#0000c3;stroke-width:0.1;stroke-linecap:butt;stroke-linejoin:round;stroke-miterlimit:4;stroke-opacity:1;stroke-dasharray:none" />
<path
 sodipodi:nodetypes="cccccccccccc"
 inkscape:connector-curvature="0"
 id="path3831-8"
 d="M 70,12 70.7549,12.1074 71.3957,12.3284 73.1414,12.1516 73.959,13.2343 73.7159,14.516 73.2077,15.3336 72.3459,15.886 71.0422,15.4441 70.2467,15.2894 70,15 z"
 style="fill:#000058;fill-opacity:0.795699;fill-rule:nonzero;stroke:#0000c3;stroke-width:0.1;stroke-linecap:butt;stroke-linejoin:round;stroke-miterlimit:4;stroke-opacity:1;stroke-dasharray:none" />
<path
 sodipodi:nodetypes="cccccccccccccccc"
 inkscape:connector-curvature="0"
 id="path3833-3"
 d="M 70,19 71.1306,18.9796 71.7714,18.4714 72.3238,18.162 73.0751,17.8526 73.2077,17.4328 73.6718,17.0572 75.0197,15.9744 75.6825,14.4718 76.7654,13.6542 77.6271,12.8367 79.0606,12.0832 80,12 80,20 70,20 z"
 style="fill:#000058;fill-opacity:0.795699;fill-rule:nonzero;stroke:#0000c3;stroke-width:0.1;stroke-linecap:butt;stroke-linejoin:round;stroke-miterlimit:4;stroke-opacity:1;stroke-dasharray:none" />
</g>
<g
 id="J"
 links="A,C1">
<path
 sodipodi:nodetypes="ccccccccccccccccccc"
 inkscape:connector-curvature="0"
 id="path3890"
 d="M 50,16 50.5582,16.2998 51.3979,16.5208 52.2376,16.8743 52.9226,17.4047 53.8064,17.6698 55.8615,17.6477 56.5244,17.0069 56.8779,16.2335 56.9,15.438 57.1873,14.0238 57.6071,13.3167 58.0712,12.8968 58.6236,12.4549 59.1098,12.1455 60,12 60,20 50,20 z"
 style="fill:#000058;fill-opacity:0.795699;fill-rule:nonzero;stroke:#0000c3;stroke-width:0.1;stroke-linecap:butt;stroke-linejoin:round;stroke-miterlimit:4;stroke-opacity:1;stroke-dasharray:none" />
<path
 sodipodi:nodetypes="ccccccccccccccccc"
 inkscape:connector-curvature="0"
 id="path3892"
 d="M 50,14 50.7349,14.2448 51.5304,14.7309 52.2376,15.1949 53.2761,15.7032 54.1821,15.6811 54.8229,15.1728 54.9776,14.6425 55.9057,13.0515 56.9663,11.9688 58.0933,11.3942 58.5904,11.1733 59.5959,11.0352 60,11 60,10 50,10 z"
 style="fill:#000058;fill-opacity:0.795699;fill-rule:nonzero;stroke:#0000c3;stroke-width:0.1;stroke-linecap:butt;stroke-linejoin:round;stroke-miterlimit:4;stroke-opacity:1;stroke-dasharray:none" />
</g>
<g
 id="K"
 links="C1,C1"
 transform="translate(-40,0)">
<path
 sodipodi:nodetypes="ccccccccccccccc"
 inkscape:connector-curvature="0"
 id="path3898"
 d="M 90,2 91.209,1.9688 92.2696,2.013 93.1756,2.3444 94.4131,2.2339 94.9655,1.9688 95.8052,1.8362 96.9763,1.9025 97.816,1.9909 98.4126,1.9909 99.3628,1.9246 100,2 100,10 90,10 z"
 style="fill:#000058;fill-opacity:0.795699;fill-rule:nonzero;stroke:#0000c3;stroke-width:0.1;stroke-linecap:butt;stroke-linejoin:round;stroke-miterlimit:4;stroke-opacity:1;stroke-dasharray:none" />
<path
 sodipodi:nodetypes="cccccccccccccc"
 inkscape:connector-curvature="0"
 id="path3900"
 d="M 90,0 100,0 100,1 98.7662,0.9744 97.5508,0.9523 96.667,0.9523 95.6947,0.8639 94.7887,0.7976 93.6176,0.9302 92.8,1.1291 92.4464,1.107 91.3637,1.0186 90,1 z"
 style="fill:#000058;fill-opacity:0.795699;fill-rule:nonzero;stroke:#0000c3;stroke-width:0.1;stroke-linecap:butt;stroke-linejoin:round;stroke-miterlimit:4;stroke-opacity:1;stroke-dasharray:none" />
</g>
<g
 id="L"
 links="C1,A">
<path
 sodipodi:nodetypes="ccccccccccccccc"
 inkscape:connector-curvature="0"
 id="path3052"
 d="M 60,1 61.2813,0.9375 62.125,1.4375 62.8438,1.8125 63.4688,2 64.3438,1.875 65.5313,1.875 66.75,2.65625 67.4688,3.53125 68.25,3.84375 69.0625,3.96875 70,4 70,0 60,0 z"
 style="fill:#000058;fill-opacity:0.795699;fill-rule:nonzero;stroke:#0000c3;stroke-width:0.1;stroke-linecap:butt;stroke-linejoin:round;stroke-miterlimit:4;stroke-opacity:1;stroke-dasharray:none" />
<path
 sodipodi:nodetypes="ccccccccccccccc"
 inkscape:connector-curvature="0"
 id="path3054"
 d="M 60,2 60,10 70,10 70,6 68.9688,5.71875 68.3125,5.65625 67.0938,5.21875 66.3125,4.6875 65.5625,4.15625 64.0625,4.09375 63.0938,3.75 62.2188,3.1875 61.75,2.75 60.7188,2.34375 z"
 style="fill:#000058;fill-opacity:0.795699;fill-rule:nonzero;stroke:#0000c3;stroke-width:0.1;stroke-linecap:butt;stroke-linejoin:round;stroke-miterlimit:4;stroke-opacity:1;stroke-dasharray:none" />
</g>
<g
 id="g3064"
 links="A,A">
<path
 sodipodi:nodetypes="cccccccccccccccc"
 inkscape:connector-curvature="0"
 id="path3060"
 d="M 70,4 70.2466,4.08012 70.9096,4.1906 72.3017,4.03592 72.8099,3.68237 73.981,3.50559 75.1743,3.61608 76.2791,3.52769 76.6548,3.39511 77.848,3.61608 78.8424,3.99173 79.5053,3.99173 80,4 80,0 70,0 z"
 style="fill:#000058;fill-opacity:0.795699;fill-rule:nonzero;stroke:#0000c3;stroke-width:0.1;stroke-linecap:butt;stroke-linejoin:round;stroke-miterlimit:4;stroke-opacity:1;stroke-dasharray:none" />
<path
 sodipodi:nodetypes="cccccccccccccc"
 inkscape:connector-curvature="0"
 id="path3062"
 d="M 70,6 70.7328,5.95837 72.6773,5.64901 73.1193,5.42804 74.423,5.33965 75.4616,5.56062 76.5664,5.64901 77.5608,5.38385 78.4005,5.38385 79.7042,5.86998 80,6 80,10 70,10 z"
 style="fill:#000058;fill-opacity:0.795699;fill-rule:nonzero;stroke:#0000c3;stroke-width:0.1;stroke-linecap:butt;stroke-linejoin:round;stroke-miterlimit:4;stroke-opacity:1;stroke-dasharray:none" />
</g>
<g
 id="g3097"
 transform="translate(20,10)"
 links="A,C2">
<path
 sodipodi:nodetypes="cccccccccccccc"
 inkscape:connector-curvature="0"
 id="path3069"
 d="M 80,16 80.6986,16.4666 80.9195,17.019 81.2731,17.8587 82.1128,18.6984 84.0131,19.0299 85.8914,19.0741 87.5266,18.9857 89.228,19.052 90,19 90,20 85,20 80,20 z"
 style="fill:#000058;fill-opacity:0.795699;fill-rule:nonzero;stroke:#0000c3;stroke-width:0.1;stroke-linecap:butt;stroke-linejoin:round;stroke-miterlimit:4;stroke-opacity:1;stroke-dasharray:none" />
<path
 sodipodi:nodetypes="ccccccccccccccccc"
 inkscape:connector-curvature="0"
 id="path3071"
 d="M 80,14 80.4997,14.0138 81.2731,14.3895 81.9802,15.185 82.3337,16.091 82.7978,16.9527 83.8143,17.3505 85.0738,17.3726 86.3996,17.1295 87.0183,17.4168 88.1674,17.4168 89.2722,17.1295 90,17 90,10 85,10 80,10 z"
 style="fill:#000058;fill-opacity:0.795699;fill-rule:nonzero;stroke:#0000c3;stroke-width:0.1;stroke-linecap:butt;stroke-linejoin:round;stroke-miterlimit:4;stroke-opacity:1;stroke-dasharray:none" />
</g>
<g
 id="g3089"
 links="A,C2">
<path
 sodipodi:nodetypes="ccccccccccccccccc"
 inkscape:connector-curvature="0"
 id="path3085"
 d="M 80,4 80.6406,3.75 81.5313,3.21875 81.9375,2.60937 83.0469,2.04687 84.4063,1.84375 85.5781,2.20312 86.7344,2.90625 87.3906,3.9375 87.4844,5 87.5781,6.20312 88.0469,6.6875 89,7 90,7 90,0 80,0 z"
 style="fill:#000058;fill-opacity:0.795699;fill-rule:nonzero;stroke:#0000c3;stroke-width:0.1;stroke-linecap:butt;stroke-linejoin:round;stroke-miterlimit:4;stroke-opacity:1;stroke-dasharray:none" />
<path
 sodipodi:nodetypes="ccccccccccccccccccccc"
 inkscape:connector-curvature="0"
 id="path3087"
 d="M 80,6 81.1406,5.98437 81.9531,5.60937 82.3125,5.20312 82.6875,4.73437 83.3125,4.3125 84.3594,4.17187 85.2813,4.39062 85.75,5.21875 85.7813,6.09375 85.7031,6.78125 85.7656,7.42187 85.9531,7.8125 86.375,8.35937 87.3906,8.5625 88.6719,8.64062 89.2813,8.85937 90,9 90,10 80,10 z"
 style="fill:#000058;fill-opacity:0.795699;fill-rule:nonzero;stroke:#0000c3;stroke-width:0.1;stroke-linecap:butt;stroke-linejoin:round;stroke-miterlimit:4;stroke-opacity:1;stroke-dasharray:none" />
</g>
<g
 transform="translate(0,10)"
 id="H2-2"
 links="B1,A">
<path
 sodipodi:nodetypes="cccccccccccc"
 inkscape:connector-curvature="0"
 id="path3061-7-0"
 d="M 70,11 70.5781,10.8479 71.8819,10.8037 73.5226,10.5883 74.9202,11.1241 76.2516,12.2787 77.3177,13.7205 78.7762,14.0299 80,14 80,10 70,10 z"
 style="fill:#000058;fill-opacity:0.795699;fill-rule:nonzero;stroke:#0000c3;stroke-width:0.1;stroke-linecap:butt;stroke-linejoin:round;stroke-miterlimit:4;stroke-opacity:1;stroke-dasharray:none" />
<path
 sodipodi:nodetypes="cccccccccccc"
 inkscape:connector-curvature="0"
 id="path3831-8-8"
 d="M 70,12 70.7549,12.1074 71.3957,12.3284 72.5669,12.9913 73.031,13.7646 73.0751,14.737 72.4343,15.5767 71.462,15.886 70.8212,15.8418 70.2467,15.2894 70,15 z"
 style="fill:#000058;fill-opacity:0.795699;fill-rule:nonzero;stroke:#0000c3;stroke-width:0.1;stroke-linecap:butt;stroke-linejoin:round;stroke-miterlimit:4;stroke-opacity:1;stroke-dasharray:none" />
<path
 sodipodi:nodetypes="cccccccccccccccc"
 inkscape:connector-curvature="0"
 id="path3833-3-6"
 d="M 70,19 71.1306,18.9796 71.7714,18.4714 72.3238,18.162 73.0751,17.8526 73.2077,17.4328 73.6718,17.0572 75.0197,15.9744 76.1023,15.8639 76.7875,15.5766 77.2735,15.9303 78.5745,15.8618 80,16 80,20 70,20 z"
 style="fill:#000058;fill-opacity:0.795699;fill-rule:nonzero;stroke:#0000c3;stroke-width:0.1;stroke-linecap:butt;stroke-linejoin:round;stroke-miterlimit:4;stroke-opacity:1;stroke-dasharray:none" />
</g>
<g
 transform="translate(10,10)"
 id="H2-7"
 links="B1,C2">
<path
 sodipodi:nodetypes="cccccccccccccccc"
 inkscape:connector-curvature="0"
 id="path3061-7-1"
 d="M 70,11 70.5781,10.8479 71.8819,10.8037 74.0253,11.2236 74.9699,11.5881 75.561,11.8644 75.9975,11.8533 76.8979,11.7539 77.5774,12.3395 78.0138,13.5879 77.8095,15.8971 79.1519,16.7699 80,17 80,10 70,10 z"
 style="fill:#000058;fill-opacity:0.795699;fill-rule:nonzero;stroke:#0000c3;stroke-width:0.1;stroke-linecap:butt;stroke-linejoin:round;stroke-miterlimit:4;stroke-opacity:1;stroke-dasharray:none" />
<path
 sodipodi:nodetypes="cccccccccccc"
 inkscape:connector-curvature="0"
 id="path3831-8-4"
 d="M 70,12 71.4841,12.2179 72.6773,13.146 74.2683,13.3228 75.5721,13.9635 76.014,14.9137 75.3069,15.9965 74.1358,15.7313 72.7437,15.7756 70.2467,15.2894 70,15 z"
 style="fill:#000058;fill-opacity:0.795699;fill-rule:nonzero;stroke:#0000c3;stroke-width:0.1;stroke-linecap:butt;stroke-linejoin:round;stroke-miterlimit:4;stroke-opacity:1;stroke-dasharray:none" />
<path
 sodipodi:nodetypes="cccccccccc"
 inkscape:connector-curvature="0"
 id="path3833-3-0"
 d="M 70,19 71.1306,18.9796 71.7714,18.4714 72.3238,18.162 74.6219,18.1731 78.5026,18.7127 80,19 80,20 70,20 z"
 style="fill:#000058;fill-opacity:0.795699;fill-rule:nonzero;stroke:#0000c3;stroke-width:0.1;stroke-linecap:butt;stroke-linejoin:round;stroke-miterlimit:4;stroke-opacity:1;stroke-dasharray:none" />
</g>
</g>
</svg>
