<?xml version="1.0" encoding="UTF-8" standalone="no"?>
<!-- Created with Inkscape (http://www.inkscape.org/) -->

<svg
 xmlns:dc="http://purl.org/dc/elements/1.1/"
 xmlns:cc="http://creativecommons.org/ns#"
 xmlns:rdf="http://www.w3.org/1999/02/22-rdf-syntax-ns#"
 xmlns:svg="http://www.w3.org/2000/svg"
 xmlns="http://www.w3.org/2000/svg"
 xmlns:xlink="http://www.w3.org/1999/xlink"
 xmlns:sodipodi="http://sodipodi.sourceforge.net/DTD/sodipodi-0.dtd"
 xmlns:inkscape="http://www.inkscape.org/namespaces/inkscape"
 width="80"
 height="20"
 id="svg2"
 version="1.1"
 inkscape:version="0.48.1 r9760"
 sodipodi:docname="level12.svg"
 levelName="Shortcuts">
<defs
 id="defs4" />
<sodipodi:namedview
 id="base"
 pagecolor="#000000"
 bordercolor="#666666"
 borderopacity="1.0"
 inkscape:pageopacity="1"
 inkscape:pageshadow="2"
 inkscape:zoom="46.1824"
 inkscape:cx="72.6587"
 inkscape:cy="8.19252"
 inkscape:document-units="px"
 inkscape:current-layer="layer5"
 showgrid="true"
 units="px"
 inkscape:window-width="1440"
 inkscape:window-height="849"
 inkscape:window-x="0"
 inkscape:window-y="24"
 inkscape:window-maximized="1"
 showguides="true"
 inkscape:guide-bbox="true"
 inkscape:snap-global="false">
<inkscape:grid
 type="xygrid"
 id="grid3765"
 empspacing="5"
 visible="true"
 enabled="true"
 snapvisiblegridlinesonly="true" />
<sodipodi:guide
 orientation="1,0"
 position="-1840,4810"
 id="guide3838" />
<sodipodi:guide
 orientation="1,0"
 position="-960,5720"
 id="guide3840" />
</sodipodi:namedview>
<metadata
 id="metadata7">
<rdf:RDF>
<cc:Work
 rdf:about="">
<dc:format>image/svg+xml</dc:format>
<dc:type
 rdf:resource="http://purl.org/dc/dcmitype/StillImage" />
<dc:title />
</cc:Work>
</rdf:RDF>
</metadata>
<g
 inkscape:label="templates"
 inkscape:groupmode="layer"
 id="layer1"
 transform="translate(0,5)">
<text
 xml:space="preserve"
 style="font-size:0.420555px;font-style:normal;font-variant:normal;font-weight:normal;font-stretch:normal;line-height:125%;letter-spacing:0px;word-spacing:0px;fill:#ffffff;fill-opacity:1;stroke:none;font-family:Arial;-inkscape-font-specification:Arial"
 x="-3.82528"
 y="2.5579183"
 id="text3800"
 sodipodi:linespacing="125%"
 transform="scale(1.09098,0.916607)"><tspan
 sodipodi:role="line"
 id="tspan3802"
 x="-3.82528"
 y="2.5579183">start planet</tspan><tspan
 sodipodi:role="line"
 x="-3.82528"
 y="3.083612"
 id="tspan3804" /></text>
<image
 y="0"
 x="-4"
 id="image3824-5"
 xlink:href="file:///home/acoppes/workspace/superflyingthing/superflyingthing-desktop/src/main/resources/data/images/planet.png"
 height="2"
 width="2"
 startPlanet="" />
<image
 y="5"
 x="-4"
 id="image3824-5-1"
 xlink:href="file:///home/acoppes/workspace/superflyingthing/superflyingthing-desktop/src/main/resources/data/images/planet.png"
 height="2"
 width="2"
 destinationPlanet="" />
<text
 xml:space="preserve"
 style="font-size:0.420555px;font-style:normal;font-variant:normal;font-weight:normal;font-stretch:normal;line-height:125%;letter-spacing:0px;word-spacing:0px;fill:#ffffff;fill-opacity:1;stroke:none;font-family:Arial;-inkscape-font-specification:Arial"
 x="-4.2697434"
 y="8.116293"
 id="text3800-7"
 sodipodi:linespacing="125%"
 transform="scale(1.09098,0.916607)"><tspan
 sodipodi:role="line"
 x="-4.2697434"
 y="8.116293"
 id="tspan3906">destination planet</tspan><tspan
 sodipodi:role="line"
 x="-4.2697434"
 y="8.6419868"
 id="tspan3804-9" /></text>
<image
 style="display:inline"
 y="15.2819"
 x="-4.64181"
 id="image3019-4"
 xlink:href="file:///home/acoppes/workspace/superflyingthing/superflyingthing-desktop/src/main/resources/data/images/white-rectangle.png"
 height="0.5"
 width="0.5"
 transform="translate(0,-5)" />
</g>
<g
 inkscape:groupmode="layer"
 id="layer2"
 inkscape:label="Obstacles"
 style="display:inline">
<path
 style="fill:#ffdd55;fill-opacity:1;fill-rule:nonzero;stroke:none"
 d="M 0.936499,5.07454 1.28769,3.55273 2.57537,3.02595 3.98012,1.73826 5.97018,1.6212 7.19934,1.21148 8.95528,2.20651 9.30646,2.73329 10.07,3.78763 10.5383,4.43147 12.4405,4.60706 14.3721,5.66062 15.2794,3.43643 17.5621,4.02175 20.5472,5.01678 23.7663,4.31441 27.3367,4.78266 28.9463,6.65566 30.0292,4.54853 32.0751,3.66979 35.0017,2.42164 36.3187,5.34821 39.9769,4.41171 43.7228,6.2847 46.122,7.31232 47,0 0,0 0,20 15,20 15.0293,18.2341 7.90171,18.3318 4.6825,17.132 3.07289,15.932 2.63391,14.3517 2.69244,13.1519 3.51187,11.5715 3.5704,9.43512 1.69741,7.64991 1.05356,6.47929 z"
 id="path3023"
 inkscape:connector-curvature="0"
 sodipodi:nodetypes="cccccccccccccccccccccccccccccccccccccccc" />
<path
 style="fill:#ffdd55;fill-opacity:1;fill-rule:nonzero;stroke:none"
 d="M 10.2576,16.5759 11.2233,16.7515 12.1598,16.4296 13.5499,16.5613 14.8376,16.0931 15.6132,15.0249 15.7449,14.3225 16.5058,12.6251 18.4959,11.4544 20.7786,12.7421 21.3054,14.5566 21.3639,15.5516 20.7786,17.0149 21.3054,17.8343 22.476,18.3611 24.5246,18.5367 26.5146,18.127 27.8609,16.7223 28.9144,15.6687 30.4363,15.1419 31.2557,15.4346 32.4848,15.7858 33.9481,17.7173 33.831,18.8294 32.9531,19.2976 32,20 35,20 35,10 33.1287,10.5179 31.4898,10.635 29.9095,8.46936 28.6218,10.2253 27.7438,10.2838 25.5781,10.635 23.354,11.1618 21.8907,10.0497 19.3153,9.40585 17.4423,9.58144 15.6864,10.5179 14.6036,9.46438 13.8719,10.8106 11.9404,10.1668 9.71618,9.58144 8.07731,9.75704 7.3164,10.8106 5.10685,11.7763 4.66787,13.5615 5.04833,14.9371 6.86278,16.0491 9.20405,16.3419 z"
 id="path3025"
 inkscape:connector-curvature="0"
 sodipodi:nodetypes="ccccccccccccccccccccccccccccccccccccccccccccccccccc" />
<path
 style="fill:#ffdd55;fill-opacity:1;fill-rule:nonzero;stroke:none"
 d="M 14.9415,18.2927 16.0376,17.5417 16.7985,16.6052 17.3252,15.1419 17.9691,14.0299 19.0226,14.1908 19.2861,15.5955 19.1251,16.7223 18.8471,17.9514 18.9641,19.0635 20.4274,19.7073 22.9442,19.9415 27.8023,19.6488 28.6218,18.7708 29.1485,18.7123 30.0851,18.9465 31.3142,19.4147 33,20 15,20 z"
 id="path3027"
 inkscape:connector-curvature="0"
 sodipodi:nodetypes="cccccccccccccccccccc" />
<path
 style="fill:#ffdd55;fill-opacity:1;fill-rule:nonzero;stroke:none"
 d="M 35,10 35,20 65,20 65,18 63.9746,16.5467 61.6334,16.0784 60.3457,17.6002 58.7653,14.0884 57.0094,17.6588 52.6781,18.3026 50.3076,16.1077 49.4588,18.4782 46.5908,17.3076 44.5422,17.7173 43.3131,16.0784 43.0204,13.386 40.8548,14.3225 37.46,13.386 36.2308,11.1618 z"
 id="path3048"
 inkscape:connector-curvature="0"
 sodipodi:nodetypes="cccccccccccccccccccc" />
<path
 style="fill:#ffdd55;fill-opacity:1;fill-rule:nonzero;stroke:none"
 d="M 46.0356,7.2817 47.332,8.12166 46.9223,10.8726 48.8538,9.40934 50.0245,10.1702 52.4242,10.8726 53.829,12.8627 55.6435,9.46788 58.0044,9.11319 61.5163,9.69851 64.4429,11.9812 65.672,12.9177 66.9597,11.4544 66.7841,9.46438 65.8476,8.17669 65.3794,6.59635 65.9647,5.01601 67.6621,3.37713 70.5301,2.32357 72.8714,1.73826 74.6273,2.08945 76.1491,2.67476 77.4368,2.79182 78.1392,4.19657 78.5489,5.60132 79.0757,6.65488 79.1927,9.63997 79.0757,11.5715 78.3733,12.3324 77.8465,13.9713 78.1392,15.9613 78.2562,17.3076 78.1392,18.5953 75.915,18.9464 73.9249,18.9464 72.4616,19.0635 70.6472,18.4197 69.1839,18.4782 68.1303,18.6538 66.7256,18.2441 65,18 65,20 80,20 80,0 47,0 z"
 id="path3050"
 inkscape:connector-curvature="0"
 sodipodi:nodetypes="cccccccccccccccccccccccccccccccccccccccccccccc" />
</g>
<g
 inkscape:groupmode="layer"
 id="layer7"
 inkscape:label="Portals">
<image
 y="-20.489"
 x="-32.3216"
 id="portalA"
 xlink:href="file:///home/acoppes/workspace/superflyingthing/superflyingthing-desktop/src/main/resources/data/images/white-rectangle.png"
 height="3.36417"
 width="3.36417"
 targetPortalId="portalB"
 transform="matrix(-0.99901,0.044481,-0.044481,-0.99901,0,0)" />
<image
 y="-54.5586"
 x="40.7163"
 id="portalB"
 xlink:href="file:///home/acoppes/workspace/superflyingthing/superflyingthing-desktop/src/main/resources/data/images/white-rectangle.png"
 height="2.16365"
 width="2.16365"
 targetPortalId="portalA"
 transform="matrix(0.550988,0.834513,-0.834513,0.550988,0,0)" />
</g>
<g
 inkscape:groupmode="layer"
 id="layer5"
 inkscape:label="Items">
<image
 style="display:inline"
 y="7.09846"
 x="68.6634"
 id="image3019-4-3"
 xlink:href="file:///home/acoppes/workspace/superflyingthing/superflyingthing-desktop/src/main/resources/data/images/white-rectangle.png"
 height="0.5"
 width="0.5" />
<image
 style="display:inline"
 y="9.65535"
 x="70.3"
 id="image3019-4-2"
 xlink:href="file:///home/acoppes/workspace/superflyingthing/superflyingthing-desktop/src/main/resources/data/images/white-rectangle.png"
 height="0.5"
 width="0.5" />
<image
 style="display:inline"
 y="8.30271"
 x="69.4296"
 id="image3019-4-6"
 xlink:href="file:///home/acoppes/workspace/superflyingthing/superflyingthing-desktop/src/main/resources/data/images/white-rectangle.png"
 height="0.5"
 width="0.5" />
<image
 style="display:inline"
 y="10.9262"
 x="71.2063"
 id="image3019-4-28"
 xlink:href="file:///home/acoppes/workspace/superflyingthing/superflyingthing-desktop/src/main/resources/data/images/white-rectangle.png"
 height="0.5"
 width="0.5" />
<image
 style="display:inline"
 y="11.0911"
 x="4.09282"
 id="image3019-4-0"
 xlink:href="file:///home/acoppes/workspace/superflyingthing/superflyingthing-desktop/src/main/resources/data/images/white-rectangle.png"
 height="0.5"
 width="0.5" />
<image
 style="display:inline"
 y="17.4548"
 x="28.6355"
 id="image3019-4-0-9"
 xlink:href="file:///home/acoppes/workspace/superflyingthing/superflyingthing-desktop/src/main/resources/data/images/white-rectangle.png"
 height="0.5"
 width="0.5" />
<image
 style="display:inline"
 y="12.1497"
 x="72.0719"
 id="image3019-4-28-0"
 xlink:href="file:///home/acoppes/workspace/superflyingthing/superflyingthing-desktop/src/main/resources/data/images/white-rectangle.png"
 height="0.5"
 width="0.5" />
<image
 style="display:inline"
 y="13.384"
 x="73.0247"
 id="image3019-4-28-3"
 xlink:href="file:///home/acoppes/workspace/superflyingthing/superflyingthing-desktop/src/main/resources/data/images/white-rectangle.png"
 height="0.5"
 width="0.5" />
</g>
<g
 inkscape:groupmode="layer"
 id="layer3"
 inkscape:label="World">
<path
 style="color:#000000;fill:none;stroke:#ff0000;stroke-width:0.1;stroke-linecap:butt;stroke-linejoin:miter;stroke-miterlimit:4;stroke-opacity:1;stroke-dasharray:none;stroke-dashoffset:0;marker:none;visibility:visible;display:inline;overflow:visible;enable-background:accumulate"
 d="M -1,5 z"
 id="path3806"
 inkscape:connector-curvature="0" />
<image
 y="4.24136"
 x="3.85844"
 id="image3824-5-8"
 xlink:href="file:///home/acoppes/workspace/superflyingthing/superflyingthing-desktop/src/main/resources/data/images/planet.png"
 height="2"
 width="2"
 startPlanet="" />
<image
 y="14.5927"
 x="73.5659"
 id="image3824-5-1-9"
 xlink:href="file:///home/acoppes/workspace/superflyingthing/superflyingthing-desktop/src/main/resources/data/images/planet.png"
 height="2"
 width="2"
 destinationPlanet="" />
</g>
<g
 inkscape:groupmode="layer"
 id="layer6"
 inkscape:label="Lasers">
<image
 y="12.3322"
 x="-5.62356"
 id="image3019-4-01"
 xlink:href="file:///home/acoppes/workspace/superflyingthing/superflyingthing-desktop/src/main/resources/data/images/white-rectangle.png"
 height="0.5"
 width="0.5"
 transform="matrix(0.35268,-0.935744,0.935744,0.35268,0,0)"
 fireRate="2500" />
<image
 y="21.0065"
 x="-16.9857"
 id="image3019-4-01-9"
 xlink:href="file:///home/acoppes/workspace/superflyingthing/superflyingthing-desktop/src/main/resources/data/images/white-rectangle.png"
 height="0.5"
 width="0.5"
 transform="matrix(-0.25789,-0.966174,0.966174,-0.25789,0,0)" />
<image
 y="34.194"
 x="14.3925"
 id="image3019-4-01-3"
 xlink:href="file:///home/acoppes/workspace/superflyingthing/superflyingthing-desktop/src/main/resources/data/images/white-rectangle.png"
 height="0.5"
 width="0.5"
 transform="matrix(0.638181,-0.769886,0.769886,0.638181,0,0)" />
<image
 y="-52.8923"
 x="-0.42495"
 id="image3019-4-01-1"
 xlink:href="file:///home/acoppes/workspace/superflyingthing/superflyingthing-desktop/src/main/resources/data/images/white-rectangle.png"
 height="0.5"
 width="0.5"
 transform="matrix(-0.205996,0.978553,-0.978553,-0.205996,0,0)" />
<image
 y="64.2369"
 x="-2.44793"
 id="image3019-4-01-1-7"
 xlink:href="file:///home/acoppes/workspace/superflyingthing/superflyingthing-desktop/src/main/resources/data/images/white-rectangle.png"
 height="0.5"
 width="0.5"
 transform="matrix(0.218153,-0.975915,0.975915,0.218153,0,0)" />
<image
 y="18.2326"
 x="-9.33288"
 id="image3019-4-01-2"
 xlink:href="file:///home/acoppes/workspace/superflyingthing/superflyingthing-desktop/src/main/resources/data/images/white-rectangle.png"
 height="0.5"
 width="0.5"
 transform="matrix(0.017551,-0.999846,0.999846,0.017551,0,0)" />
<image
 y="-44.6292"
 x="-14.5562"
 id="image3019-4-01-3-0"
 xlink:href="file:///home/acoppes/workspace/superflyingthing/superflyingthing-desktop/src/main/resources/data/images/white-rectangle.png"
 height="0.5"
 width="0.5"
 transform="matrix(-0.452815,0.891604,-0.891604,-0.452815,0,0)" />
<image
 y="16.1846"
 x="-57.9695"
 id="image3019-4-01-1-7-6"
 xlink:href="file:///home/acoppes/workspace/superflyingthing/superflyingthing-desktop/src/main/resources/data/images/white-rectangle.png"
 height="0.5"
 width="0.5"
 transform="matrix(-0.86028,-0.509822,0.509822,-0.86028,0,0)" />
</g>
<g
 inkscape:groupmode="layer"
 id="layer4"
 inkscape:label="Paths"
 style="display:inline" />
</svg>
