<?xml version="1.0" encoding="UTF-8" standalone="no"?>
<!-- Created with Inkscape (http://www.inkscape.org/) -->

<svg
 xmlns:dc="http://purl.org/dc/elements/1.1/"
 xmlns:cc="http://creativecommons.org/ns#"
 xmlns:rdf="http://www.w3.org/1999/02/22-rdf-syntax-ns#"
 xmlns:svg="http://www.w3.org/2000/svg"
 xmlns="http://www.w3.org/2000/svg"
 xmlns:xlink="http://www.w3.org/1999/xlink"
 xmlns:sodipodi="http://sodipodi.sourceforge.net/DTD/sodipodi-0.dtd"
 xmlns:inkscape="http://www.inkscape.org/namespaces/inkscape"
 width="40"
 height="25"
 id="svg2"
 version="1.1"
 inkscape:version="0.48.1 r9760"
 sodipodi:docname="level06.svg"
 levelName="Caves of doom">
<defs
 id="defs4" />
<sodipodi:namedview
 id="base"
 pagecolor="#000000"
 bordercolor="#666666"
 borderopacity="1.0"
 inkscape:pageopacity="1"
 inkscape:pageshadow="2"
 inkscape:zoom="17.877"
 inkscape:cx="16.6648"
 inkscape:cy="18.4508"
 inkscape:document-units="px"
 inkscape:current-layer="layer2"
 showgrid="true"
 units="px"
 inkscape:window-width="1440"
 inkscape:window-height="849"
 inkscape:window-x="0"
 inkscape:window-y="24"
 inkscape:window-maximized="1"
 showguides="true"
 inkscape:guide-bbox="true"
 inkscape:snap-global="true">
<inkscape:grid
 type="xygrid"
 id="grid3765"
 empspacing="5"
 visible="true"
 enabled="true"
 snapvisiblegridlinesonly="true" />
<sodipodi:guide
 orientation="1,0"
 position="-1840,4810"
 id="guide3838" />
<sodipodi:guide
 orientation="1,0"
 position="-960,5720"
 id="guide3840" />
</sodipodi:namedview>
<metadata
 id="metadata7">
<rdf:RDF>
<cc:Work
 rdf:about="">
<dc:format>image/svg+xml</dc:format>
<dc:type
 rdf:resource="http://purl.org/dc/dcmitype/StillImage" />
<dc:title></dc:title>
</cc:Work>
</rdf:RDF>
</metadata>
<g
 inkscape:label="templates"
 inkscape:groupmode="layer"
 id="layer1"
 transform="translate(0,5)">
<text
 xml:space="preserve"
 style="font-size:0.420555px;font-style:normal;font-variant:normal;font-weight:normal;font-stretch:normal;line-height:125%;letter-spacing:0px;word-spacing:0px;fill:#ffffff;fill-opacity:1;stroke:none;font-family:Arial;-inkscape-font-specification:Arial"
 x="-3.82528"
 y="2.5579183"
 id="text3800"
 sodipodi:linespacing="125%"
 transform="scale(1.09098,0.916607)"><tspan
 sodipodi:role="line"
 id="tspan3802"
 x="-3.82528"
 y="2.5579183">start planet</tspan><tspan
 sodipodi:role="line"
 x="-3.82528"
 y="3.083612"
 id="tspan3804" /></text>
<image
 y="0"
 x="-4"
 id="image3824-5"
 xlink:href="file:///home/acoppes/workspace/superflyingthing/superflyingthing-desktop/src/main/resources/data/images/planet.png"
 height="2"
 width="2"
 startPlanet="" />
<image
 y="5"
 x="-4"
 id="image3824-5-1"
 xlink:href="file:///home/acoppes/workspace/superflyingthing/superflyingthing-desktop/src/main/resources/data/images/planet.png"
 height="2"
 width="2"
 destinationPlanet="" />
<text
 xml:space="preserve"
 style="font-size:0.420555px;font-style:normal;font-variant:normal;font-weight:normal;font-stretch:normal;line-height:125%;letter-spacing:0px;word-spacing:0px;fill:#ffffff;fill-opacity:1;stroke:none;font-family:Arial;-inkscape-font-specification:Arial"
 x="-4.2697434"
 y="8.116293"
 id="text3800-7"
 sodipodi:linespacing="125%"
 transform="scale(1.09098,0.916607)"><tspan
 sodipodi:role="line"
 x="-4.2697434"
 y="8.116293"
 id="tspan3906">destination planet</tspan><tspan
 sodipodi:role="line"
 x="-4.2697434"
 y="8.6419868"
 id="tspan3804-9" /></text>
</g>
<g
 inkscape:groupmode="layer"
 id="layer2"
 inkscape:label="Obstacles">
<path
 style="fill:#0000f2;fill-opacity:1;fill-rule:nonzero;stroke:none"
 d="M 10.1259,7.99173 11.1543,7.43798 13.132,6.96333 15.2679,8.14995 16.2963,8.1895 17.8785,7.71486 19.5397,8.26861 22.4667,7.87307 24.1676,6.96333 25.9475,6.84467 27.9648,7.24021 30.9313,6.64689 32.0784,6.80511 32.7112,8.46638 31.9993,9.5739 32.8695,11.3934 32.2366,13.1338 32.553,14.6764 32.5135,16.575 32.0388,17.4452 29.9425,17.2869 28.3207,19.0273 27.2132,19.0273 24.9191,18.3945 23.0996,17.8407 21.3592,17.2869 19.2628,17.4847 17.0874,17.2869 14.7537,18.5922 13.3693,18.078 12.6178,16.219 9.96763,16.4959 7.2384,17.8803 6.60554,16.1794 7.00108,14.795 6.05178,13.1733 6.60554,11.9076 6.80331,9.96944 7.08019,8.58505 7.6735,7.43798 8.34592,7.51709 9.6512,7.95218 z"
 id="path3033"
 inkscape:connector-curvature="0" />
<path
 style="fill:#0000f2;fill-opacity:1;fill-rule:nonzero;stroke:none"
 d="M 35,0 34.5307,1.14887 35.0845,2.37505 34.8867,3.64078 35.0845,5.57893 35.6778,9.25747 35.2427,11.1165 34.7681,14.3204 35.2032,16.575 34.3725,19.8184 35.1636,21.4006 35.7174,23.7343 36,25 40,25 40,0 z"
 id="path3037"
 inkscape:connector-curvature="0"
 sodipodi:nodetypes="cccccccccccccccc" />
<path
 style="fill:#0000f2;fill-opacity:1;fill-rule:nonzero;stroke:none"
 d="M 7,0 6.17044,2.17728 5.14203,3.56167 5.41891,7.08199 4.94426,12.8964 5.41891,15.1906 6.05178,19.502 5.10248,21.0446 5.02337,23.2201 5.2607,24.8418 4,25 0,25 0,0 z"
 id="path3039"
 inkscape:connector-curvature="0"
 sodipodi:nodetypes="cccccccccccccc" />
<path
 style="fill:#0000f2;fill-opacity:1;fill-rule:nonzero;stroke:none"
 d="M 5.49802,2.01906 5.93312,2.01906 8.26681,4.35276 10.5214,5.1834 13.132,5.2625 15.3866,4.59008 17.4039,2.49372 22.5854,1.78174 29.3491,2.53327 32.5135,3.24524 35.0449,1.9004 35.3614,0.001805 5,0 z"
 id="path3043"
 inkscape:connector-curvature="0"
 sodipodi:nodetypes="cccccccccccccc" />
<path
 style="fill:#0000f2;fill-opacity:1;fill-rule:nonzero;stroke:none"
 d="M 4.74649,24.1694 6.84286,23.932 8.42502,24.4067 11.0751,24.4067 12.6573,23.932 14.279,23.9716 19.6584,24.0507 21.0428,24.5254 24.4444,24.3671 27.4505,23.3387 29.7447,22.9036 32.9486,23.8134 34.6098,23.8529 36.3107,24.1694 37,25 4,25 z"
 id="path3045"
 inkscape:connector-curvature="0"
 sodipodi:nodetypes="ccccccccccccccccc" />
</g>
<g
 inkscape:groupmode="layer"
 id="layer3"
 inkscape:label="World">
<path
 style="color:#000000;fill:none;stroke:#ff0000;stroke-width:0.1;stroke-linecap:butt;stroke-linejoin:miter;stroke-miterlimit:4;stroke-opacity:1;stroke-dasharray:none;stroke-dashoffset:0;marker:none;visibility:visible;display:inline;overflow:visible;enable-background:accumulate"
 d="M -1,5 z"
 id="path3806"
 inkscape:connector-curvature="0" />
<image
 y="4"
 x="19"
 id="image3824-5-8"
 xlink:href="file:///home/acoppes/workspace/superflyingthing/superflyingthing-desktop/src/main/resources/data/images/planet.png"
 height="2"
 width="2"
 startPlanet="" />
<image
 y="19"
 x="19"
 id="image3824-5-1-9"
 xlink:href="file:///home/acoppes/workspace/superflyingthing/superflyingthing-desktop/src/main/resources/data/images/planet.png"
 height="2"
 width="2"
 destinationPlanet="" />
</g>
</svg>
