<?xml version="1.0" encoding="UTF-8" standalone="no"?>
<!-- Created with Inkscape (http://www.inkscape.org/) -->

<svg
 xmlns:dc="http://purl.org/dc/elements/1.1/"
 xmlns:cc="http://creativecommons.org/ns#"
 xmlns:rdf="http://www.w3.org/1999/02/22-rdf-syntax-ns#"
 xmlns:svg="http://www.w3.org/2000/svg"
 xmlns="http://www.w3.org/2000/svg"
 xmlns:xlink="http://www.w3.org/1999/xlink"
 xmlns:sodipodi="http://sodipodi.sourceforge.net/DTD/sodipodi-0.dtd"
 xmlns:inkscape="http://www.inkscape.org/namespaces/inkscape"
 width="30"
 height="30"
 id="svg2"
 version="1.1"
 inkscape:version="0.48.1 r9760"
 sodipodi:docname="level14.svg"
 levelName="Not so fast, amigo...">
<defs
 id="defs4" />
<sodipodi:namedview
 id="base"
 pagecolor="#000000"
 bordercolor="#666666"
 borderopacity="1.0"
 inkscape:pageopacity="1"
 inkscape:pageshadow="2"
 inkscape:zoom="65.3121"
 inkscape:cx="8.48931"
 inkscape:cy="5.64061"
 inkscape:document-units="px"
 inkscape:current-layer="layer1"
 showgrid="true"
 units="px"
 inkscape:window-width="1440"
 inkscape:window-height="849"
 inkscape:window-x="0"
 inkscape:window-y="24"
 inkscape:window-maximized="1"
 showguides="true"
 inkscape:guide-bbox="true"
 inkscape:snap-global="false">
<inkscape:grid
 type="xygrid"
 id="grid3765"
 empspacing="5"
 visible="true"
 enabled="true"
 snapvisiblegridlinesonly="true" />
<sodipodi:guide
 orientation="1,0"
 position="-1840,4810"
 id="guide3838" />
<sodipodi:guide
 orientation="1,0"
 position="-960,5720"
 id="guide3840" />
</sodipodi:namedview>
<metadata
 id="metadata7">
<rdf:RDF>
<cc:Work
 rdf:about="">
<dc:format>image/svg+xml</dc:format>
<dc:type
 rdf:resource="http://purl.org/dc/dcmitype/StillImage" />
<dc:title />
</cc:Work>
</rdf:RDF>
</metadata>
<g
 inkscape:label="templates"
 inkscape:groupmode="layer"
 id="layer1"
 transform="translate(0,5)">
<text
 xml:space="preserve"
 style="font-size:0.420555px;font-style:normal;font-variant:normal;font-weight:normal;font-stretch:normal;line-height:125%;letter-spacing:0px;word-spacing:0px;fill:#ffffff;fill-opacity:1;stroke:none;font-family:Arial;-inkscape-font-specification:Arial"
 x="-3.82528"
 y="2.5579183"
 id="text3800"
 sodipodi:linespacing="125%"
 transform="scale(1.09098,0.916607)"><tspan
 sodipodi:role="line"
 id="tspan3802"
 x="-3.82528"
 y="2.5579183">start planet</tspan><tspan
 sodipodi:role="line"
 x="-3.82528"
 y="3.083612"
 id="tspan3804" /></text>
<image
 y="0"
 x="-4"
 id="image3824-5"
 xlink:href="file:///home/acoppes/workspace/superflyingthing/superflyingthing-desktop/src/main/resources/data/images/planet.png"
 height="2"
 width="2"
 startPlanet="" />
<image
 y="5"
 x="-4"
 id="image3824-5-1"
 xlink:href="file:///home/acoppes/workspace/superflyingthing/superflyingthing-desktop/src/main/resources/data/images/planet.png"
 height="2"
 width="2"
 destinationPlanet="" />
<text
 xml:space="preserve"
 style="font-size:0.420555px;font-style:normal;font-variant:normal;font-weight:normal;font-stretch:normal;line-height:125%;letter-spacing:0px;word-spacing:0px;fill:#ffffff;fill-opacity:1;stroke:none;font-family:Arial;-inkscape-font-specification:Arial"
 x="-4.2697434"
 y="8.116293"
 id="text3800-7"
 sodipodi:linespacing="125%"
 transform="scale(1.09098,0.916607)"><tspan
 sodipodi:role="line"
 x="-4.2697434"
 y="8.116293"
 id="tspan3906">destination planet</tspan><tspan
 sodipodi:role="line"
 x="-4.2697434"
 y="8.6419868"
 id="tspan3804-9" /></text>
<image
 style="display:inline"
 y="18.1662"
 x="-1.94958"
 id="image3019-4-8-4"
 xlink:href="file:///home/acoppes/workspace/superflyingthing/superflyingthing-desktop/src/main/resources/data/images/white-rectangle.png"
 height="0.5"
 width="0.5" />
</g>
<g
 inkscape:groupmode="layer"
 id="layer2"
 inkscape:label="Obstacles"
 style="display:inline">
<path
 style="fill:#0000ff;fill-opacity:1;fill-rule:nonzero;stroke:none"
 d="M 2.0787,26.6221 2.20862,28.2677 2.98814,28.7874 8.57466,28.3544 11.9526,25.8426 10.4801,24.2836 13.8147,23.7206 16.7163,24.2403 18.795,23.2442 20.1405,20.3917 21.8364,18.4223 23.4085,15.344 24.0975,13.1769 25.0761,12.2233 25.9838,11.335 27.0665,11.335 29.7515,10.8586 30.1412,10.6854 29.968,30.0433 -0.043306,30.1299 0,23.9371 1.86217,20.5592 4.02749,19.5199 3.76765,21.0356 2.38185,23.0277 2.20862,25.1064 z"
 id="path3071"
 inkscape:connector-curvature="0"
 sodipodi:nodetypes="ccccccccccccccccccccccccccc" />
<path
 style="fill:#0000ff;fill-opacity:1;fill-rule:nonzero;stroke:none"
 d="M 0,23.9371 1.81887,20.6891 3.98418,19.6498 4.93692,19.0435 7.55152,19.5361 9.40934,18.9569 10.1884,17.2036 9.60966,14.271 8.79164,13.3218 7.31877,12.2011 4.80701,10.9019 3.94088,9.68932 3.24798,7.04763 4.54717,4.70909 8.44474,4.1028 10.2203,3.97288 11.2597,3.02014 12.5588,2.717 14.3344,3.23667 15.6769,2.84692 16.9761,2.45716 18.7083,1.33119 20.1808,1.07136 21.35,2.28393 23.2555,2.84692 25.8972,3.49651 27.4129,3.49651 28.0625,5.40199 27.0232,8.82319 25.9405,10.1224 25.9405,11.3783 28.3657,11.5948 30.0546,10.8153 30.0113,-0.011303 0,-0.011303 z"
 id="path3077"
 inkscape:connector-curvature="0"
 sodipodi:nodetypes="cccccccccccccccccccccccccccccccccccc" />
<path
 style="fill:#0000ff;fill-opacity:1;fill-rule:nonzero;stroke:none"
 d="M 10.2636,22.6379 12.6887,22.1183 15.98,20.8624 15.3737,18.2207 15.2005,15.1026 15.8934,12.4609 18.4052,11.5082 20.6138,11.0318 22.0429,10.3389 23.472,8.1736 24.7279,4.92562 22.7603,4.11594 20.6396,4.31453 19.6178,5.4453 19.0115,7.87046 16.8895,8.82319 13.4683,9.34287 12.1691,10.6854 10.74,13.6735 11.173,17.0947 10.7719,18.6804 10.111,19.9311 9.78724,21.9017 z"
 id="path3073"
 inkscape:connector-curvature="0"
 sodipodi:nodetypes="cccccccccccccccccccccccc" />
<path
 style="fill:#0000ff;fill-opacity:1;fill-rule:nonzero;stroke:none"
 d="M 18.6593,19.0602 17.49,18.7137 17.1003,16.5918 17.9664,14.7295 19.179,13.2571 20.9978,13.1272 22.3399,13.5883 22.6578,14.8511 21.6413,17.093 20.2358,18.8047 z"
 id="path3075"
 inkscape:connector-curvature="0"
 sodipodi:nodetypes="ccccccccccc" />
<path
 style="fill:#0000ff;fill-opacity:1;fill-rule:nonzero;stroke:none"
 d="M 13.2517,8.34682 12.1258,9.47279 10.8699,11.335 10.047,11.8113 9.22425,11.4216 7.57861,10.3389 7.23216,8.26021 7.96837,6.57126 8.96442,5.92167 11.3896,6.09489 13.2517,7.30747 z"
 id="path3079"
 inkscape:connector-curvature="0"
 sodipodi:nodetypes="cccccccccccc" />
</g>
<g
 inkscape:groupmode="layer"
 id="layer5"
 inkscape:label="Items">
<image
 y="15.3594"
 x="-3.37651"
 id="image3019-4-8"
 xlink:href="file:///home/acoppes/workspace/superflyingthing/superflyingthing-desktop/src/main/resources/data/images/white-rectangle.png"
 height="0.5"
 width="0.5" />
</g>
<g
 inkscape:groupmode="layer"
 id="layer3"
 inkscape:label="World">
<path
 style="color:#000000;fill:none;stroke:#ff0000;stroke-width:0.1;stroke-linecap:butt;stroke-linejoin:miter;stroke-miterlimit:4;stroke-opacity:1;stroke-dasharray:none;stroke-dashoffset:0;marker:none;visibility:visible;display:inline;overflow:visible;enable-background:accumulate"
 d="M -1,5 z"
 id="path3806"
 inkscape:connector-curvature="0" />
<image
 y="24.5928"
 x="4.39599"
 id="image3824-5-8"
 xlink:href="file:///home/acoppes/workspace/superflyingthing/superflyingthing-desktop/src/main/resources/data/images/planet.png"
 height="2"
 width="2"
 startPlanet="" />
<image
 y="4.76588"
 x="15.1769"
 id="image3824-5-1-9"
 xlink:href="file:///home/acoppes/workspace/superflyingthing/superflyingthing-desktop/src/main/resources/data/images/planet.png"
 height="2"
 width="2"
 destinationPlanet="" />
</g>
<g
 inkscape:groupmode="layer"
 id="layer6"
 inkscape:label="Lasers" />
<g
 inkscape:groupmode="layer"
 id="layer4"
 inkscape:label="Paths"
 style="display:inline" />
</svg>
