<?xml version="1.0" encoding="UTF-8" standalone="no"?>
<!-- Created with Inkscape (http://www.inkscape.org/) -->

<svg
 xmlns:dc="http://purl.org/dc/elements/1.1/"
 xmlns:cc="http://creativecommons.org/ns#"
 xmlns:rdf="http://www.w3.org/1999/02/22-rdf-syntax-ns#"
 xmlns:svg="http://www.w3.org/2000/svg"
 xmlns="http://www.w3.org/2000/svg"
 xmlns:xlink="http://www.w3.org/1999/xlink"
 xmlns:sodipodi="http://sodipodi.sourceforge.net/DTD/sodipodi-0.dtd"
 xmlns:inkscape="http://www.inkscape.org/namespaces/inkscape"
 width="30"
 height="10"
 id="svg2"
 version="1.1"
 inkscape:version="0.48.1 r9760"
 sodipodi:docname="level01.svg"
 levelName="Learning to fly">
<defs
 id="defs4" />
<sodipodi:namedview
 id="base"
 pagecolor="#000000"
 bordercolor="#666666"
 borderopacity="1.0"
 inkscape:pageopacity="1"
 inkscape:pageshadow="2"
 inkscape:zoom="39.1454"
 inkscape:cx="18.853"
 inkscape:cy="6.59292"
 inkscape:document-units="px"
 inkscape:current-layer="layer2"
 showgrid="true"
 units="px"
 inkscape:window-width="1440"
 inkscape:window-height="849"
 inkscape:window-x="0"
 inkscape:window-y="24"
 inkscape:window-maximized="1"
 showguides="true"
 inkscape:guide-bbox="true"
 inkscape:snap-global="true">
<inkscape:grid
 type="xygrid"
 id="grid3765"
 empspacing="5"
 visible="true"
 enabled="true"
 snapvisiblegridlinesonly="true" />
<sodipodi:guide
 orientation="1,0"
 position="-1840,4810"
 id="guide3838" />
<sodipodi:guide
 orientation="1,0"
 position="-960,5720"
 id="guide3840" />
</sodipodi:namedview>
<metadata
 id="metadata7">
<rdf:RDF>
<cc:Work
 rdf:about="">
<dc:format>image/svg+xml</dc:format>
<dc:type
 rdf:resource="http://purl.org/dc/dcmitype/StillImage" />
<dc:title />
</cc:Work>
</rdf:RDF>
</metadata>
<g
 inkscape:label="templates"
 inkscape:groupmode="layer"
 id="layer1">
<text
 xml:space="preserve"
 style="font-size:0.420555px;font-style:normal;font-variant:normal;font-weight:normal;font-stretch:normal;line-height:125%;letter-spacing:0px;word-spacing:0px;fill:#ffffff;fill-opacity:1;stroke:none;font-family:Arial;-inkscape-font-specification:Arial"
 x="-3.82528"
 y="2.5579183"
 id="text3800"
 sodipodi:linespacing="125%"
 transform="scale(1.09098,0.916607)"><tspan
 sodipodi:role="line"
 id="tspan3802"
 x="-3.82528"
 y="2.5579183">start planet</tspan><tspan
 sodipodi:role="line"
 x="-3.82528"
 y="3.083612"
 id="tspan3804" /></text>
<image
 y="0"
 x="-4"
 id="image3824-5"
 xlink:href="file:///home/acoppes/workspace/superflyingthing/superflyingthing-desktop/src/main/resources/data/images/planet.png"
 height="2"
 width="2"
 startPlanet="" />
<image
 y="5"
 x="-4"
 id="image3824-5-1"
 xlink:href="file:///home/acoppes/workspace/superflyingthing/superflyingthing-desktop/src/main/resources/data/images/planet.png"
 height="2"
 width="2"
 destinationPlanet="" />
<text
 xml:space="preserve"
 style="font-size:0.420555px;font-style:normal;font-variant:normal;font-weight:normal;font-stretch:normal;line-height:125%;letter-spacing:0px;word-spacing:0px;fill:#ffffff;fill-opacity:1;stroke:none;font-family:Arial;-inkscape-font-specification:Arial"
 x="-4.2697434"
 y="8.116293"
 id="text3800-7"
 sodipodi:linespacing="125%"
 transform="scale(1.09098,0.916607)"><tspan
 sodipodi:role="line"
 x="-4.2697434"
 y="8.116293"
 id="tspan3906">destination planet</tspan><tspan
 sodipodi:role="line"
 x="-4.2697434"
 y="8.6419868"
 id="tspan3804-9" /></text>
</g>
<g
 inkscape:groupmode="layer"
 id="layer2"
 inkscape:label="Obstacles">
<path
 style="fill:#00006e;fill-opacity:1;fill-rule:nonzero;stroke:#0000ff;stroke-width:0.05000000000000000;stroke-linecap:butt;stroke-linejoin:round;stroke-miterlimit:4;stroke-opacity:1;stroke-dasharray:none"
 d="M 7,2 7,0 0,0 0,10 5,10 5,8 3.45014,8.24783 2.23988,8.53685 1.69798,8.03107 1.9328,7.50723 1.26445,7.03757 1.30058,6.00795 1.31864,4.41835 0.921243,3.3526 1.62572,3.49711 1.7341,2.50361 2.27601,2.3591 2.69147,1.79913 2.87211,1.38367 3.61272,1.90751 4.64234,2.03396 5.61777,1.90751 6.21387,2.1604 z"
 id="path3798"
 inkscape:connector-curvature="0"
 sodipodi:nodetypes="cccccccccccccccccccccccc" />
<path
 style="fill:#00006e;fill-opacity:1;fill-rule:nonzero;stroke:#0000ff;stroke-width:0.05000000000000000;stroke-miterlimit:4;stroke-opacity:1;stroke-dasharray:none"
 d="M 9.28468,4.56286 9.41113,4.56286 10.4769,4.61705 11.2897,4.59899 12.3555,4.27384 13.5116,4.45448 14.5231,4.59899 15.5347,4.68931 16.4379,4.58092 17.5397,4.59899 18.2262,4.65318 19.31,4.59899 20.159,4.50867 20.5022,4.61705 22.0737,2.91908 22,0 7,0 7,2 8.27312,3.02746 8.21893,3.58743 8.86922,4.07514 z"
 id="path3018"
 inkscape:connector-curvature="0"
 sodipodi:nodetypes="cccccccccccccccccccccc" />
<path
 style="fill:#00006e;fill-opacity:1;fill-rule:nonzero;stroke:#0000ff;stroke-width:0.05000000000000000;stroke-linecap:butt;stroke-linejoin:round;stroke-miterlimit:4;stroke-opacity:1;stroke-dasharray:none"
 d="M 8.85116,5.84538 8.95954,5.84538 9.91691,5.79118 11.2897,5.75506 12.229,5.73699 13.1322,5.95376 14.2702,5.93569 15.3179,5.79118 16.3837,5.77312 17.5036,5.86344 19.2558,5.86344 20.177,5.82731 20.6105,5.8815 22.0556,7.39884 23.1214,7.8685 24.4039,8.08526 25,8 25,10 5,10 5,8 6.43064,8.57298 7.47832,8.19364 7.7854,7.4711 7.87572,6.94725 z"
 id="path3796"
 inkscape:connector-curvature="0"
 sodipodi:nodetypes="ccccccccccccccccccccccccc" />
<path
 style="fill:#00006e;fill-opacity:1;fill-rule:nonzero;stroke:#0000ff;stroke-width:0.05000000000000000;stroke-linecap:butt;stroke-linejoin:round;stroke-miterlimit:4;stroke-opacity:1;stroke-dasharray:none"
 d="M 22,0 30,0 30,10 25,10 25,8 25.9935,8.37428 27.2399,8.21171 27.0954,7.8685 28.0347,7.36272 28.1069,6.40535 28.6308,5.73699 28.2153,5.1409 28.1973,3.91257 28.3418,3.53324 28.5947,2.19653 27.565,2.3591 26.3548,1.76301 26.0477,2.17847 24.5484,2.46749 24.0426,1.85332 23.4285,2.32298 22.0195,2.90101 z"
 id="path3802"
 inkscape:connector-curvature="0"
 sodipodi:nodetypes="ccccccccccccccccccccccc" />
</g>
<g
 inkscape:groupmode="layer"
 id="layer4"
 inkscape:label="Items" />
<g
 inkscape:groupmode="layer"
 id="layer3"
 inkscape:label="World">
<path
 style="color:#000000;fill:none;stroke:#ff0000;stroke-width:0.1;stroke-linecap:butt;stroke-linejoin:miter;stroke-miterlimit:4;stroke-opacity:1;stroke-dasharray:none;stroke-dashoffset:0;marker:none;visibility:visible;display:inline;overflow:visible;enable-background:accumulate"
 d="M -1,5 z"
 id="path3806"
 inkscape:connector-curvature="0" />
<image
 y="4"
 x="3"
 id="image3824-5-8"
 xlink:href="file:///home/acoppes/workspace/superflyingthing/superflyingthing-desktop/src/main/resources/data/images/planet.png"
 height="2"
 width="2"
 startPlanet="" />
<image
 y="4.01156"
 x="24.0145"
 id="image3824-5-1-9"
 xlink:href="file:///home/acoppes/workspace/superflyingthing/superflyingthing-desktop/src/main/resources/data/images/planet.png"
 height="2"
 width="2"
 destinationPlanet="" />
</g>
</svg>
