<?xml version="1.0" encoding="UTF-8" standalone="no"?>
<!-- Created with Inkscape (http://www.inkscape.org/) -->

<svg
 xmlns:dc="http://purl.org/dc/elements/1.1/"
 xmlns:cc="http://creativecommons.org/ns#"
 xmlns:rdf="http://www.w3.org/1999/02/22-rdf-syntax-ns#"
 xmlns:svg="http://www.w3.org/2000/svg"
 xmlns="http://www.w3.org/2000/svg"
 xmlns:xlink="http://www.w3.org/1999/xlink"
 xmlns:sodipodi="http://sodipodi.sourceforge.net/DTD/sodipodi-0.dtd"
 xmlns:inkscape="http://www.inkscape.org/namespaces/inkscape"
 width="30"
 height="10"
 id="svg2"
 version="1.1"
 inkscape:version="0.48.1 r9760"
 sodipodi:docname="level02.svg"
 levelName="Learning to fly">
<defs
 id="defs4" />
<sodipodi:namedview
 id="base"
 pagecolor="#000000"
 bordercolor="#666666"
 borderopacity="1.0"
 inkscape:pageopacity="1"
 inkscape:pageshadow="2"
 inkscape:zoom="39.1454"
 inkscape:cx="12.3549"
 inkscape:cy="3.71512"
 inkscape:document-units="px"
 inkscape:current-layer="layer2"
 showgrid="true"
 units="px"
 inkscape:window-width="1440"
 inkscape:window-height="849"
 inkscape:window-x="0"
 inkscape:window-y="24"
 inkscape:window-maximized="1"
 showguides="true"
 inkscape:guide-bbox="true"
 inkscape:snap-global="false">
<inkscape:grid
 type="xygrid"
 id="grid3765"
 empspacing="5"
 visible="true"
 enabled="true"
 snapvisiblegridlinesonly="true" />
<sodipodi:guide
 orientation="1,0"
 position="-1840,4810"
 id="guide3838" />
<sodipodi:guide
 orientation="1,0"
 position="-960,5720"
 id="guide3840" />
</sodipodi:namedview>
<metadata
 id="metadata7">
<rdf:RDF>
<cc:Work
 rdf:about="">
<dc:format>image/svg+xml</dc:format>
<dc:type
 rdf:resource="http://purl.org/dc/dcmitype/StillImage" />
<dc:title></dc:title>
</cc:Work>
</rdf:RDF>
</metadata>
<g
 inkscape:label="templates"
 inkscape:groupmode="layer"
 id="layer1">
<text
 xml:space="preserve"
 style="font-size:0.420555px;font-style:normal;font-variant:normal;font-weight:normal;font-stretch:normal;line-height:125%;letter-spacing:0px;word-spacing:0px;fill:#ffffff;fill-opacity:1;stroke:none;font-family:Arial;-inkscape-font-specification:Arial"
 x="-3.82528"
 y="2.5579183"
 id="text3800"
 sodipodi:linespacing="125%"
 transform="scale(1.09098,0.916607)"><tspan
 sodipodi:role="line"
 id="tspan3802"
 x="-3.82528"
 y="2.5579183">start planet</tspan><tspan
 sodipodi:role="line"
 x="-3.82528"
 y="3.083612"
 id="tspan3804" /></text>
<image
 y="0"
 x="-4"
 id="image3824-5"
 xlink:href="file:///home/acoppes/workspace/superflyingthing/superflyingthing-desktop/src/main/resources/data/images/planet.png"
 height="2"
 width="2"
 startPlanet="" />
<image
 y="5"
 x="-4"
 id="image3824-5-1"
 xlink:href="file:///home/acoppes/workspace/superflyingthing/superflyingthing-desktop/src/main/resources/data/images/planet.png"
 height="2"
 width="2"
 destinationPlanet="" />
<text
 xml:space="preserve"
 style="font-size:0.420555px;font-style:normal;font-variant:normal;font-weight:normal;font-stretch:normal;line-height:125%;letter-spacing:0px;word-spacing:0px;fill:#ffffff;fill-opacity:1;stroke:none;font-family:Arial;-inkscape-font-specification:Arial"
 x="-4.2697434"
 y="8.116293"
 id="text3800-7"
 sodipodi:linespacing="125%"
 transform="scale(1.09098,0.916607)"><tspan
 sodipodi:role="line"
 x="-4.2697434"
 y="8.116293"
 id="tspan3906">destination planet</tspan><tspan
 sodipodi:role="line"
 x="-4.2697434"
 y="8.6419868"
 id="tspan3804-9" /></text>
</g>
<g
 inkscape:groupmode="layer"
 id="layer2"
 inkscape:label="Obstacles">
<path
 style="fill:#00006e;fill-opacity:1;fill-rule:nonzero;stroke:#0000ff;stroke-width:0.05;stroke-linecap:butt;stroke-linejoin:round;stroke-miterlimit:4;stroke-opacity:1;stroke-dasharray:none"
 d="M 7,2 7,0 0,0 0,10 5,10 5.34321,7.18714 4.44364,8.04913 3.45014,8.55491 1.69798,8.03107 1.02962,7.68787 1.26445,7.03757 1.77023,5.98989 1.31864,4.41835 0.921243,3.3526 1.62572,3.49711 1.7341,2.50361 2.27601,2.3591 2.69147,1.79913 3.16257,2.47616 3.61272,1.90751 4.71459,1.04046 5.40101,1.41979 6.30419,1.51011 z"
 id="path3798"
 inkscape:connector-curvature="0"
 sodipodi:nodetypes="cccccccccccccccccccccccc" />
<path
 style="fill:#00006e;fill-opacity:1;fill-rule:nonzero;stroke:#0000ff;stroke-width:0.05;stroke-miterlimit:4;stroke-opacity:1;stroke-dasharray:none"
 d="M 9.13669,4.54026 9.82515,4.52749 10.6994,4.92655 11.3078,4.12934 12.3736,3.80419 13.5297,3.98483 14.5412,4.12934 15.5528,4.21966 16.456,4.11127 17.4045,4.34648 19.3044,4.89881 20.3882,4.84462 21.2372,4.7543 21.5804,4.86268 22.0285,2.86489 22,0 7,0 7,2 8.27312,3.02746 8.21893,3.58743 8.86922,4.07514 z"
 id="path3018"
 inkscape:connector-curvature="0"
 sodipodi:nodetypes="cccccccccccccccccccccc" />
<path
 style="fill:#00006e;fill-opacity:1;fill-rule:nonzero;stroke:#0000ff;stroke-width:0.05;stroke-linecap:butt;stroke-linejoin:round;stroke-miterlimit:4;stroke-opacity:1;stroke-dasharray:none"
 d="M 8.54461,5.6596 9.32995,5.55742 10.3512,5.87363 10.6936,6.4776 12.0823,7.20437 13.6176,7.60728 14.7556,7.58921 15.8033,7.4447 16.7797,7.50328 17.8996,7.5936 19.5751,5.8948 20.4963,5.85867 20.9298,5.91286 22.1833,6.40256 23.1214,7.8685 24.4039,8.08526 25,8 25,10 5,10 5.33418,7.19617 6.6474,7.70593 7.33381,7.41691 7.7854,7.4711 7.87572,6.94725 z"
 id="path3796"
 inkscape:connector-curvature="0"
 sodipodi:nodetypes="ccccccccccccccccccccccccc" />
<path
 style="fill:#00006e;fill-opacity:1;fill-rule:nonzero;stroke:#0000ff;stroke-width:0.05;stroke-linecap:butt;stroke-linejoin:round;stroke-miterlimit:4;stroke-opacity:1;stroke-dasharray:none"
 d="M 22,0 30,0 30,10 25,10 25,8 25.4516,7.83237 25.9754,7.41691 27.1857,7.32659 27.4205,6.51373 28.1069,6.40535 28.6308,5.73699 28.2153,5.1409 28.1973,3.91257 28.3418,3.53324 27.5109,2.93714 27.565,2.3591 26.3548,1.76301 26.0116,1.07659 24.5123,1.36561 24.0426,1.85332 23.3201,2.63006 22.0195,2.90101 z"
 id="path3802"
 inkscape:connector-curvature="0"
 sodipodi:nodetypes="ccccccccccccccccccccccc" />
<path
 style="fill:#00006e;fill-opacity:1;fill-rule:nonzero;stroke:#0000ff;stroke-width:0.05;stroke-linecap:butt;stroke-linejoin:round;stroke-miterlimit:4;stroke-opacity:1;stroke-dasharray:none"
 d="M 12.709,5.59335 13.1177,5.17185 14.625,5.46563 16.643,5.26126 16.7325,5.7594 16.2726,6.30864 13.3732,6.24477 z"
 id="path3864"
 inkscape:connector-curvature="0"
 sodipodi:nodetypes="cccccccc" />
</g>
<g
 inkscape:groupmode="layer"
 id="layer4"
 inkscape:label="Items" />
<g
 inkscape:groupmode="layer"
 id="layer3"
 inkscape:label="World">
<path
 style="color:#000000;fill:none;stroke:#ff0000;stroke-width:0.1;stroke-linecap:butt;stroke-linejoin:miter;stroke-miterlimit:4;stroke-opacity:1;stroke-dasharray:none;stroke-dashoffset:0;marker:none;visibility:visible;display:inline;overflow:visible;enable-background:accumulate"
 d="M -1,5 z"
 id="path3806"
 inkscape:connector-curvature="0" />
<image
 y="4"
 x="3"
 id="image3824-5-8"
 xlink:href="file:///home/acoppes/workspace/superflyingthing/superflyingthing-desktop/src/main/resources/data/images/planet.png"
 height="2"
 width="2"
 startPlanet="" />
<image
 y="4.01156"
 x="24.0145"
 id="image3824-5-1-9"
 xlink:href="file:///home/acoppes/workspace/superflyingthing/superflyingthing-desktop/src/main/resources/data/images/planet.png"
 height="2"
 width="2"
 destinationPlanet="" />
</g>
</svg>
