<?xml version="1.0" encoding="UTF-8" standalone="no"?>
<!-- Created with Inkscape (http://www.inkscape.org/) -->

<svg
 xmlns:dc="http://purl.org/dc/elements/1.1/"
 xmlns:cc="http://creativecommons.org/ns#"
 xmlns:rdf="http://www.w3.org/1999/02/22-rdf-syntax-ns#"
 xmlns:svg="http://www.w3.org/2000/svg"
 xmlns="http://www.w3.org/2000/svg"
 xmlns:xlink="http://www.w3.org/1999/xlink"
 xmlns:sodipodi="http://sodipodi.sourceforge.net/DTD/sodipodi-0.dtd"
 xmlns:inkscape="http://www.inkscape.org/namespaces/inkscape"
 width="35"
 height="15"
 id="svg2"
 version="1.1"
 inkscape:version="0.48.1 r9760"
 sodipodi:docname="level02.svg"
 levelName="Look ma' I'm flying">
<defs
 id="defs4" />
<sodipodi:namedview
 id="base"
 pagecolor="#000000"
 bordercolor="#666666"
 borderopacity="1.0"
 inkscape:pageopacity="1"
 inkscape:pageshadow="2"
 inkscape:zoom="30.5823"
 inkscape:cx="16.3386"
 inkscape:cy="8.47418"
 inkscape:document-units="px"
 inkscape:current-layer="layer2"
 showgrid="true"
 units="px"
 inkscape:window-width="1440"
 inkscape:window-height="849"
 inkscape:window-x="0"
 inkscape:window-y="24"
 inkscape:window-maximized="1"
 showguides="true"
 inkscape:guide-bbox="true"
 inkscape:snap-global="false">
<inkscape:grid
 type="xygrid"
 id="grid3765"
 empspacing="5"
 visible="true"
 enabled="true"
 snapvisiblegridlinesonly="true" />
<sodipodi:guide
 orientation="1,0"
 position="-1840,4810"
 id="guide3838" />
<sodipodi:guide
 orientation="1,0"
 position="-960,5720"
 id="guide3840" />
</sodipodi:namedview>
<metadata
 id="metadata7">
<rdf:RDF>
<cc:Work
 rdf:about="">
<dc:format>image/svg+xml</dc:format>
<dc:type
 rdf:resource="http://purl.org/dc/dcmitype/StillImage" />
<dc:title />
</cc:Work>
</rdf:RDF>
</metadata>
<g
 inkscape:label="templates"
 inkscape:groupmode="layer"
 id="layer1">
<text
 xml:space="preserve"
 style="font-size:0.420555px;font-style:normal;font-variant:normal;font-weight:normal;font-stretch:normal;line-height:125%;letter-spacing:0px;word-spacing:0px;fill:#ffffff;fill-opacity:1;stroke:none;font-family:Arial;-inkscape-font-specification:Arial"
 x="-3.82528"
 y="2.5579183"
 id="text3800"
 sodipodi:linespacing="125%"
 transform="scale(1.09098,0.916607)"><tspan
 sodipodi:role="line"
 id="tspan3802"
 x="-3.82528"
 y="2.5579183">start planet</tspan><tspan
 sodipodi:role="line"
 x="-3.82528"
 y="3.083612"
 id="tspan3804" /></text>
<image
 y="0"
 x="-4"
 id="image3824-5"
 xlink:href="file:///home/acoppes/workspace/superflyingthing/superflyingthing-desktop/src/main/resources/data/images/planet.png"
 height="2"
 width="2"
 startPlanet="" />
<image
 y="5"
 x="-4"
 id="image3824-5-1"
 xlink:href="file:///home/acoppes/workspace/superflyingthing/superflyingthing-desktop/src/main/resources/data/images/planet.png"
 height="2"
 width="2"
 destinationPlanet="" />
<text
 xml:space="preserve"
 style="font-size:0.420555px;font-style:normal;font-variant:normal;font-weight:normal;font-stretch:normal;line-height:125%;letter-spacing:0px;word-spacing:0px;fill:#ffffff;fill-opacity:1;stroke:none;font-family:Arial;-inkscape-font-specification:Arial"
 x="-4.2697434"
 y="8.116293"
 id="text3800-7"
 sodipodi:linespacing="125%"
 transform="scale(1.09098,0.916607)"><tspan
 sodipodi:role="line"
 x="-4.2697434"
 y="8.116293"
 id="tspan3906">destination planet</tspan><tspan
 sodipodi:role="line"
 x="-4.2697434"
 y="8.6419868"
 id="tspan3804-9" /></text>
</g>
<g
 inkscape:groupmode="layer"
 id="layer2"
 inkscape:label="Obstacles">
<path
 style="fill:#00006e;fill-opacity:1;fill-rule:nonzero;stroke:#0000ff;stroke-width:0.05;stroke-linecap:butt;stroke-linejoin:round;stroke-miterlimit:4;stroke-opacity:1;stroke-dasharray:none"
 d="M 9.1308,3.34605 9,0 0,0 0,15 7,15 7.77424,12.0703 6.63984,12.011 5.64634,12.5168 2.35735,11.993 1.68899,11.6498 1.92382,10.9995 1,9.47144 0.539271,6.94155 0.697748,5.61421 1.20604,4.48347 2.32807,3.84966 2.86998,3.70515 3.28544,3.14518 4.73749,2.44887 5.74352,3.25356 6.84539,2.38651 7.53181,2.76584 8.435,2.85616 z"
 id="path3798"
 inkscape:connector-curvature="0"
 sodipodi:nodetypes="cccccccccccccccccccccccc" />
<path
 style="fill:#00006e;fill-opacity:1;fill-rule:nonzero;stroke:#0000ff;stroke-width:0.05;stroke-miterlimit:4;stroke-opacity:1;stroke-dasharray:none"
 d="M 11.1767,4.24642 11.8652,4.23365 12.6925,4.41396 13.3478,3.8355 14.4136,3.51035 15.5697,3.69099 16.5812,3.8355 17.5928,3.92582 18.496,3.81743 19.4445,4.05264 20.7885,4.24529 22.0031,4.1257 23.1508,4.24897 24.1487,4.53654 24,0 9,0 9.1308,3.34605 10.1086,3.60611 10.9092,3.7813 z"
 id="path3018"
 inkscape:connector-curvature="0"
 sodipodi:nodetypes="cccccccccccccccccccc" />
<path
 style="fill:#00006e;fill-opacity:1;fill-rule:nonzero;stroke:#0000ff;stroke-width:0.05;stroke-linecap:butt;stroke-linejoin:round;stroke-miterlimit:4;stroke-opacity:1;stroke-dasharray:none"
 d="M 10.7919,10.5667 11.5772,10.4645 12.5048,10.8588 12.9409,11.3847 14.5912,11.5883 16.1265,11.9912 17.2645,11.9731 18.3122,11.8286 19.2886,11.8872 20.6116,11.6494 21.9205,10.9654 22.8417,10.9293 23.2752,10.9835 24.4306,11.3096 25.3176,11.8304 26.6001,12.0472 27.1962,11.9619 27,15 7,15 7.76521,12.0793 8.8947,12.613 9.5811,12.324 10.0327,12.3782 10.123,11.8543 z"
 id="path3796"
 inkscape:connector-curvature="0"
 sodipodi:nodetypes="ccccccccccccccccccccccccc" />
<path
 style="fill:#00006e;fill-opacity:1;fill-rule:nonzero;stroke:#0000ff;stroke-width:0.05;stroke-linecap:butt;stroke-linejoin:round;stroke-miterlimit:4;stroke-opacity:1;stroke-dasharray:none"
 d="M 24,0 35,0 35,15 27,15 27.1962,11.9619 28.3999,12.9715 30.7875,12.8503 32.0959,11.9425 32.1345,11.1623 32.6901,10.4981 33.214,9.82972 32.7985,7.76219 32.7805,6.53386 32.925,6.15453 32.0287,4.41398 32.0828,3.83594 30.8726,3.23985 28.1424,2.42264 26.6431,2.71166 26.1734,3.19937 25.4509,4.2704 24.1503,4.54135 z"
 id="path3802"
 inkscape:connector-curvature="0"
 sodipodi:nodetypes="ccccccccccccccccccccccc" />
<path
 style="fill:#0000b4;fill-opacity:1;fill-rule:nonzero;stroke:#0000ff;stroke-width:0.1;stroke-linecap:butt;stroke-linejoin:round;stroke-miterlimit:4;stroke-opacity:1;stroke-dasharray:none"
 d="M 11.2587,6.4905 12.3056,6.63113 13.3056,6.78738 14.2274,6.52175 15.4149,6.303 16.7118,6.44363 18.9149,6.3655 21.832,5.64148 24.1294,5.69239 25.9485,6.32572 26.4876,7.99248 26.0645,9.92619 24.5977,10.0884 22.6252,9.5686 20.9967,9.81309 17.5556,10.0221 16.3993,10.0533 15.6337,9.86578 14.8368,9.52208 14.1024,9.38138 13.6337,8.94388 12.7743,8.58456 11.6493,7.78738 10.8437,7.59997 10.4931,6.9905 10.4161,6.69508 10.6902,6.35145 z"
 id="path3038"
 inkscape:connector-curvature="0"
 sodipodi:nodetypes="cccccccccccccccccccccccccccc" />
</g>
<g
 inkscape:groupmode="layer"
 id="layer4"
 inkscape:label="Items" />
<g
 inkscape:groupmode="layer"
 id="layer3"
 inkscape:label="World">
<path
 style="color:#000000;fill:none;stroke:#ff0000;stroke-width:0.1;stroke-linecap:butt;stroke-linejoin:miter;stroke-miterlimit:4;stroke-opacity:1;stroke-dasharray:none;stroke-dashoffset:0;marker:none;visibility:visible;display:inline;overflow:visible;enable-background:accumulate"
 d="M -1,5 z"
 id="path3806"
 inkscape:connector-curvature="0" />
<image
 y="6.52319"
 x="4.96731"
 id="image3824-5-8"
 xlink:href="file:///home/acoppes/workspace/superflyingthing/superflyingthing-desktop/src/main/resources/data/images/planet.png"
 height="2"
 width="2"
 startPlanet="" />
<image
 y="6.76365"
 x="28.3034"
 id="image3824-5-1-9"
 xlink:href="file:///home/acoppes/workspace/superflyingthing/superflyingthing-desktop/src/main/resources/data/images/planet.png"
 height="2"
 width="2"
 destinationPlanet="" />
</g>
</svg>
