<?xml version="1.0" encoding="UTF-8" standalone="no"?>
<!-- Created with Inkscape (http://www.inkscape.org/) -->

<svg
 xmlns:dc="http://purl.org/dc/elements/1.1/"
 xmlns:cc="http://creativecommons.org/ns#"
 xmlns:rdf="http://www.w3.org/1999/02/22-rdf-syntax-ns#"
 xmlns:svg="http://www.w3.org/2000/svg"
 xmlns="http://www.w3.org/2000/svg"
 xmlns:xlink="http://www.w3.org/1999/xlink"
 xmlns:sodipodi="http://sodipodi.sourceforge.net/DTD/sodipodi-0.dtd"
 xmlns:inkscape="http://www.inkscape.org/namespaces/inkscape"
 width="30"
 height="15"
 id="svg2"
 version="1.1"
 inkscape:version="0.48.1 r9760"
 sodipodi:docname="level01.svg"
 levelName="Learning to fly">
<defs
 id="defs4" />
<sodipodi:namedview
 id="base"
 pagecolor="#000000"
 bordercolor="#666666"
 borderopacity="1.0"
 inkscape:pageopacity="1"
 inkscape:pageshadow="2"
 inkscape:zoom="35.7538"
 inkscape:cx="15.8604"
 inkscape:cy="8.0281"
 inkscape:document-units="px"
 inkscape:current-layer="layer2"
 showgrid="true"
 units="px"
 inkscape:window-width="1440"
 inkscape:window-height="849"
 inkscape:window-x="0"
 inkscape:window-y="24"
 inkscape:window-maximized="1"
 showguides="true"
 inkscape:guide-bbox="true"
 inkscape:snap-global="false">
<inkscape:grid
 type="xygrid"
 id="grid3765"
 empspacing="5"
 visible="true"
 enabled="true"
 snapvisiblegridlinesonly="true" />
<sodipodi:guide
 orientation="1,0"
 position="-1840,4810"
 id="guide3838" />
<sodipodi:guide
 orientation="1,0"
 position="-960,5720"
 id="guide3840" />
</sodipodi:namedview>
<metadata
 id="metadata7">
<rdf:RDF>
<cc:Work
 rdf:about="">
<dc:format>image/svg+xml</dc:format>
<dc:type
 rdf:resource="http://purl.org/dc/dcmitype/StillImage" />
<dc:title />
</cc:Work>
</rdf:RDF>
</metadata>
<g
 inkscape:label="templates"
 inkscape:groupmode="layer"
 id="layer1">
<text
 xml:space="preserve"
 style="font-size:0.420555px;font-style:normal;font-variant:normal;font-weight:normal;font-stretch:normal;line-height:125%;letter-spacing:0px;word-spacing:0px;fill:#ffffff;fill-opacity:1;stroke:none;font-family:Arial;-inkscape-font-specification:Arial"
 x="-3.82528"
 y="2.5579183"
 id="text3800"
 sodipodi:linespacing="125%"
 transform="scale(1.09098,0.916607)"><tspan
 sodipodi:role="line"
 id="tspan3802"
 x="-3.82528"
 y="2.5579183">start planet</tspan><tspan
 sodipodi:role="line"
 x="-3.82528"
 y="3.083612"
 id="tspan3804" /></text>
<image
 y="0"
 x="-4"
 id="image3824-5"
 xlink:href="file:///home/acoppes/workspace/superflyingthing/superflyingthing-desktop/src/main/resources/data/images/planet.png"
 height="2"
 width="2"
 startPlanet="" />
<image
 y="5"
 x="-4"
 id="image3824-5-1"
 xlink:href="file:///home/acoppes/workspace/superflyingthing/superflyingthing-desktop/src/main/resources/data/images/planet.png"
 height="2"
 width="2"
 destinationPlanet="" />
<text
 xml:space="preserve"
 style="font-size:0.420555px;font-style:normal;font-variant:normal;font-weight:normal;font-stretch:normal;line-height:125%;letter-spacing:0px;word-spacing:0px;fill:#ffffff;fill-opacity:1;stroke:none;font-family:Arial;-inkscape-font-specification:Arial"
 x="-4.2697434"
 y="8.116293"
 id="text3800-7"
 sodipodi:linespacing="125%"
 transform="scale(1.09098,0.916607)"><tspan
 sodipodi:role="line"
 x="-4.2697434"
 y="8.116293"
 id="tspan3906">destination planet</tspan><tspan
 sodipodi:role="line"
 x="-4.2697434"
 y="8.6419868"
 id="tspan3804-9" /></text>
</g>
<g
 inkscape:groupmode="layer"
 id="layer2"
 inkscape:label="Obstacles">
<path
 style="fill:#00006e;fill-opacity:1;fill-rule:nonzero;stroke:#0000ff;stroke-width:0.05;stroke-linecap:butt;stroke-linejoin:round;stroke-miterlimit:4;stroke-opacity:1;stroke-dasharray:none"
 d="M 6.96395,2.28938 7,0 0,0 0,15 5,15 4.4102,12.9115 2.86034,13.1593 2.16428,12.5781 1.62238,12.0724 1.8572,11.5485 1.18885,11.0789 0.268105,8.57068 0.360952,5.85593 0.845639,4.70994 1.58967,3.78648 1.69805,2.79298 2.23996,2.64848 2.65542,2.08848 3.10239,1.74903 3.57667,2.19688 4.60629,2.32338 5.58172,2.19688 6.17782,2.44978 z"
 id="path3798"
 inkscape:connector-curvature="0"
 sodipodi:nodetypes="cccccccccccccccccccccccc" />
<path
 style="fill:#00006e;fill-opacity:1;fill-rule:nonzero;stroke:#0000ff;stroke-width:0.05;stroke-miterlimit:4;stroke-opacity:1;stroke-dasharray:none"
 d="M 9.54375,4.27812 10.3822,4.39679 10.7755,5.43984 11.5883,5.42174 12.173,6.12042 13.3291,6.72066 14.3406,6.86516 15.3522,6.95546 16.2554,6.84706 17.4908,7.079 18.1773,7.1332 19.2611,7.079 21.007,6.99366 22.0788,6.87512 22.8267,5.07834 22,0 7,0 6.88485,2.24982 8.53219,2.74272 8.478,3.30262 9.12829,3.79032 z"
 id="path3018"
 inkscape:connector-curvature="0"
 sodipodi:nodetypes="cccccccccccccccccccccc" />
<path
 style="fill:#00006e;fill-opacity:1;fill-rule:nonzero;stroke:#0000ff;stroke-width:0.05;stroke-linecap:butt;stroke-linejoin:round;stroke-miterlimit:4;stroke-opacity:1;stroke-dasharray:none"
 d="M 10.4322,12.0313 10.7186,11.1215 10.964,10.474 11.4229,9.787 12.2286,9.31449 13.1635,8.92588 14.3015,8.90778 15.3492,8.76328 16.415,8.74518 18.2621,8.33204 19.9336,8.18652 21.6387,8.38904 22.112,9.28125 22.274,10.6382 23.3398,11.1079 24.3283,12.1266 24.9244,12.0413 25,15 5,15 4.4102,12.9115 5.38643,13.4043 7.69675,12.5824 8.49625,12.4506 9.55565,12.4014 z"
 id="path3796"
 inkscape:connector-curvature="0"
 sodipodi:nodetypes="ccccccccccccccccccccccccc" />
<path
 style="fill:#00006e;fill-opacity:1;fill-rule:nonzero;stroke:#0000ff;stroke-width:0.05;stroke-linecap:butt;stroke-linejoin:round;stroke-miterlimit:4;stroke-opacity:1;stroke-dasharray:none"
 d="M 22,0 30,0 30,15 25,15 24.9244,12.0413 25.9179,12.4156 27.1643,12.253 27.6613,11.9633 27.9591,11.404 28.0313,10.4467 28.5552,9.77827 29.2356,7.56744 29.2444,5.69762 29.2819,4.24902 28.5191,3.55384 27.4894,3.71644 26.1456,3.84205 25.0633,3.5893 24.4728,3.82484 23.967,3.21064 23.3529,3.68034 22.826,5.1137 z"
 id="path3802"
 inkscape:connector-curvature="0"
 sodipodi:nodetypes="ccccccccccccccccccccccc" />
</g>
<g
 inkscape:groupmode="layer"
 id="layer4"
 inkscape:label="Items" />
<g
 inkscape:groupmode="layer"
 id="layer3"
 inkscape:label="World">
<path
 style="color:#000000;fill:none;stroke:#ff0000;stroke-width:0.1;stroke-linecap:butt;stroke-linejoin:miter;stroke-miterlimit:4;stroke-opacity:1;stroke-dasharray:none;stroke-dashoffset:0;marker:none;visibility:visible;display:inline;overflow:visible;enable-background:accumulate"
 d="M -1,5 z"
 id="path3806"
 inkscape:connector-curvature="0" />
<image
 y="6.78583"
 x="4.42952"
 id="image3824-5-8"
 xlink:href="file:///home/acoppes/workspace/superflyingthing/superflyingthing-desktop/src/main/resources/data/images/planet.png"
 height="2"
 width="2"
 startPlanet="" />
<image
 y="6.5408"
 x="24.0145"
 id="image3824-5-1-9"
 xlink:href="file:///home/acoppes/workspace/superflyingthing/superflyingthing-desktop/src/main/resources/data/images/planet.png"
 height="2"
 width="2"
 destinationPlanet="" />
</g>
</svg>
