<?xml version="1.0" encoding="UTF-8" standalone="no"?>
<!-- Created with Inkscape (http://www.inkscape.org/) -->

<svg
 xmlns:dc="http://purl.org/dc/elements/1.1/"
 xmlns:cc="http://creativecommons.org/ns#"
 xmlns:rdf="http://www.w3.org/1999/02/22-rdf-syntax-ns#"
 xmlns:svg="http://www.w3.org/2000/svg"
 xmlns="http://www.w3.org/2000/svg"
 xmlns:xlink="http://www.w3.org/1999/xlink"
 xmlns:sodipodi="http://sodipodi.sourceforge.net/DTD/sodipodi-0.dtd"
 xmlns:inkscape="http://www.inkscape.org/namespaces/inkscape"
 width="20"
 height="15"
 id="svg2"
 version="1.1"
 inkscape:version="0.48.1 r9760"
 sodipodi:docname="level03.svg"
 levelName="Obstacles are not my friends">
<defs
 id="defs4" />
<sodipodi:namedview
 id="base"
 pagecolor="#000000"
 bordercolor="#666666"
 borderopacity="1.0"
 inkscape:pageopacity="1"
 inkscape:pageshadow="2"
 inkscape:zoom="22.6274"
 inkscape:cx="11.6373"
 inkscape:cy="8.58839"
 inkscape:document-units="px"
 inkscape:current-layer="layer2"
 showgrid="true"
 units="px"
 inkscape:window-width="1440"
 inkscape:window-height="849"
 inkscape:window-x="0"
 inkscape:window-y="24"
 inkscape:window-maximized="1"
 showguides="true"
 inkscape:guide-bbox="true"
 inkscape:snap-global="false">
<inkscape:grid
 type="xygrid"
 id="grid3765"
 empspacing="5"
 visible="true"
 enabled="true"
 snapvisiblegridlinesonly="true" />
<sodipodi:guide
 orientation="1,0"
 position="-1840,4810"
 id="guide3838" />
<sodipodi:guide
 orientation="1,0"
 position="-960,5720"
 id="guide3840" />
</sodipodi:namedview>
<metadata
 id="metadata7">
<rdf:RDF>
<cc:Work
 rdf:about="">
<dc:format>image/svg+xml</dc:format>
<dc:type
 rdf:resource="http://purl.org/dc/dcmitype/StillImage" />
<dc:title />
</cc:Work>
</rdf:RDF>
</metadata>
<g
 inkscape:label="templates"
 inkscape:groupmode="layer"
 id="layer1"
 transform="translate(0,5)">
<text
 xml:space="preserve"
 style="font-size:0.420555px;font-style:normal;font-variant:normal;font-weight:normal;font-stretch:normal;line-height:125%;letter-spacing:0px;word-spacing:0px;fill:#ffffff;fill-opacity:1;stroke:none;font-family:Arial;-inkscape-font-specification:Arial"
 x="-3.82528"
 y="2.5579183"
 id="text3800"
 sodipodi:linespacing="125%"
 transform="scale(1.09098,0.916607)"><tspan
 sodipodi:role="line"
 id="tspan3802"
 x="-3.82528"
 y="2.5579183">start planet</tspan><tspan
 sodipodi:role="line"
 x="-3.82528"
 y="3.083612"
 id="tspan3804" /></text>
<image
 y="0"
 x="-4"
 id="image3824-5"
 xlink:href="file:///home/acoppes/workspace/superflyingthing/superflyingthing-desktop/src/main/resources/data/images/planet.png"
 height="2"
 width="2"
 startPlanet="" />
<image
 y="5"
 x="-4"
 id="image3824-5-1"
 xlink:href="file:///home/acoppes/workspace/superflyingthing/superflyingthing-desktop/src/main/resources/data/images/planet.png"
 height="2"
 width="2"
 destinationPlanet="" />
<text
 xml:space="preserve"
 style="font-size:0.420555px;font-style:normal;font-variant:normal;font-weight:normal;font-stretch:normal;line-height:125%;letter-spacing:0px;word-spacing:0px;fill:#ffffff;fill-opacity:1;stroke:none;font-family:Arial;-inkscape-font-specification:Arial"
 x="-4.2697434"
 y="8.116293"
 id="text3800-7"
 sodipodi:linespacing="125%"
 transform="scale(1.09098,0.916607)"><tspan
 sodipodi:role="line"
 x="-4.2697434"
 y="8.116293"
 id="tspan3906">destination planet</tspan><tspan
 sodipodi:role="line"
 x="-4.2697434"
 y="8.6419868"
 id="tspan3804-9" /></text>
</g>
<g
 inkscape:groupmode="layer"
 id="layer2"
 inkscape:label="Obstacles">
<path
 style="fill:#00006e;fill-opacity:1;fill-rule:nonzero;stroke:#0000ff;stroke-width:0.05000000000000000;stroke-linecap:butt;stroke-linejoin:round;stroke-miterlimit:4;stroke-opacity:1;stroke-dasharray:none"
 d="M 0,15 11,15 11.0856,14.0528 9.40171,14.4036 7.89323,13.7371 6.31458,13.6669 5.5428,14.0528 4.52545,14.4036 2.56091,14.4036 0.841944,14.5089 0.526215,14.3685 0.631458,13.0004 0.561296,12.0883 0.666539,11.0709 0.596377,10.7201 1.33308,10.4395 2.66616,9.49228 2.91172,9.17655 3.71859,9.42212 4.63069,9.31687 4.9815,8.40477 0,8 z"
 id="path3049"
 inkscape:connector-curvature="0"
 sodipodi:nodetypes="ccccccccccccccccccccccc" />
<path
 style="fill:#00006e;fill-opacity:1;fill-rule:nonzero;stroke:#0000ff;stroke-width:0.05000000000000000;stroke-linecap:butt;stroke-linejoin:round;stroke-miterlimit:4;stroke-opacity:1;stroke-dasharray:none"
 d="M 6.47437,9.59229 7.09452,8.27757 6.89608,7.06207 6.27592,6.21867 5.85422,5.30084 6.07748,3.96132 7.24336,2.99388 9.02939,3.21714 10.3937,3.8869 11.8573,3.71326 13.7425,3.63884 14.1642,4.65589 14.8836,5.22643 15.6774,5.27604 16.3472,5.69774 16.7689,5.97061 16.7441,7.95509 16.5456,8.45121 15.6774,8.92252 15.1565,9.79073 15.1317,10.4109 15.5534,11.3039 15.6526,12.1225 14.958,12.5194 13.048,12.8171 12.1798,12.5442 11.2867,12.5442 10.2697,12.569 9.52551,12.6186 8.60769,12.4202 7.14414,12.1969 6.42476,11.552 6.42476,10.2372 z"
 id="path3051"
 inkscape:connector-curvature="0" />
<path
 style="fill:#00006e;fill-opacity:1;fill-rule:nonzero;stroke:#0000ff;stroke-width:0.05000000000000000;stroke-linecap:butt;stroke-linejoin:round;stroke-miterlimit:4;stroke-opacity:1;stroke-dasharray:none"
 d="M 11,15 20,15 20,0 13,0 12.7619,0.889885 13.3704,1.25746 13.941,1.4311 14.6604,0.959789 16.0247,0.885371 16.6448,0.835759 17.9596,0.835759 18.927,1.05901 19.1999,1.70397 19.1254,2.42334 19.3983,3.01869 19.2743,3.29156 19.4975,3.93651 19.2247,4.50705 19.1006,5.77216 19.1751,6.91324 18.4061,7.65742 18.034,9.09617 16.7937,9.79073 16.9673,10.4605 16.6448,11.0062 16.8929,12.4946 16.9921,13.214 16.1487,14.107 15.2309,13.983 13.7673,14.1814 11.9317,13.8341 11.0803,14.0574 z"
 id="path3053"
 inkscape:connector-curvature="0"
 sodipodi:nodetypes="ccccccccccccccccccccccccccccccccc" />
<path
 style="fill:#00006e;fill-opacity:1;fill-rule:nonzero;stroke:#0000ff;stroke-width:0.05000000000000000;stroke-linecap:butt;stroke-linejoin:round;stroke-miterlimit:4;stroke-opacity:1;stroke-dasharray:none"
 d="M 0,0 13,0 12.7751,0.885371 12.5518,0.934983 12.4526,1.65436 11.8821,2.15048 10.7162,2.32412 9.15342,2.12567 7.46661,1.85281 6.37515,1.828 5.87903,2.02645 5.15965,3.16753 4.26664,4.68069 4.61392,5.40007 5.01082,6.29308 4.46508,6.91324 4.9821,8.41332 0,8 z"
 id="path3055"
 inkscape:connector-curvature="0"
 sodipodi:nodetypes="ccccccccccccccccccc" />
</g>
<g
 inkscape:groupmode="layer"
 id="layer6"
 inkscape:label="Items" />
<g
 inkscape:groupmode="layer"
 id="layer3"
 inkscape:label="World">
<path
 style="color:#000000;fill:none;stroke:#ff0000;stroke-width:0.1;stroke-linecap:butt;stroke-linejoin:miter;stroke-miterlimit:4;stroke-opacity:1;stroke-dasharray:none;stroke-dashoffset:0;marker:none;visibility:visible;display:inline;overflow:visible;enable-background:accumulate"
 d="M -1,5 z"
 id="path3806"
 inkscape:connector-curvature="0" />
<image
 y="11.2239"
 x="1.85116"
 id="image3824-5-8"
 xlink:href="file:///home/acoppes/workspace/superflyingthing/superflyingthing-desktop/src/main/resources/data/images/planet.png"
 height="2"
 width="2"
 startPlanet="" />
<image
 y="1.82397"
 x="16.273"
 id="image3824-5-1-9"
 xlink:href="file:///home/acoppes/workspace/superflyingthing/superflyingthing-desktop/src/main/resources/data/images/planet.png"
 height="2"
 width="2"
 destinationPlanet="" />
</g>
</svg>
