<?xml version="1.0" encoding="UTF-8" standalone="no"?>
<!-- Created with Inkscape (http://www.inkscape.org/) -->

<svg
 xmlns:dc="http://purl.org/dc/elements/1.1/"
 xmlns:cc="http://creativecommons.org/ns#"
 xmlns:rdf="http://www.w3.org/1999/02/22-rdf-syntax-ns#"
 xmlns:svg="http://www.w3.org/2000/svg"
 xmlns="http://www.w3.org/2000/svg"
 xmlns:xlink="http://www.w3.org/1999/xlink"
 xmlns:sodipodi="http://sodipodi.sourceforge.net/DTD/sodipodi-0.dtd"
 xmlns:inkscape="http://www.inkscape.org/namespaces/inkscape"
 width="30"
 height="10"
 id="svg2"
 version="1.1"
 inkscape:version="0.48.1 r9760"
 sodipodi:docname="level02.svg"
 levelName="Look ma' I'm flying">
<defs
 id="defs4" />
<sodipodi:namedview
 id="base"
 pagecolor="#000000"
 bordercolor="#666666"
 borderopacity="1.0"
 inkscape:pageopacity="1"
 inkscape:pageshadow="2"
 inkscape:zoom="52.9075"
 inkscape:cx="27.4483"
 inkscape:cy="3.61351"
 inkscape:document-units="px"
 inkscape:current-layer="layer2"
 showgrid="true"
 units="px"
 inkscape:window-width="1440"
 inkscape:window-height="849"
 inkscape:window-x="0"
 inkscape:window-y="24"
 inkscape:window-maximized="1"
 showguides="true"
 inkscape:guide-bbox="true"
 inkscape:snap-global="false">
<inkscape:grid
 type="xygrid"
 id="grid3765"
 empspacing="5"
 visible="true"
 enabled="true"
 snapvisiblegridlinesonly="true" />
<sodipodi:guide
 orientation="1,0"
 position="-1840,4810"
 id="guide3838" />
<sodipodi:guide
 orientation="1,0"
 position="-960,5720"
 id="guide3840" />
</sodipodi:namedview>
<metadata
 id="metadata7">
<rdf:RDF>
<cc:Work
 rdf:about="">
<dc:format>image/svg+xml</dc:format>
<dc:type
 rdf:resource="http://purl.org/dc/dcmitype/StillImage" />
<dc:title />
</cc:Work>
</rdf:RDF>
</metadata>
<g
 inkscape:label="templates"
 inkscape:groupmode="layer"
 id="layer1">
<text
 xml:space="preserve"
 style="font-size:0.420555px;font-style:normal;font-variant:normal;font-weight:normal;font-stretch:normal;line-height:125%;letter-spacing:0px;word-spacing:0px;fill:#ffffff;fill-opacity:1;stroke:none;font-family:Arial;-inkscape-font-specification:Arial"
 x="-3.82528"
 y="2.5579183"
 id="text3800"
 sodipodi:linespacing="125%"
 transform="scale(1.09098,0.916607)"><tspan
 sodipodi:role="line"
 id="tspan3802"
 x="-3.82528"
 y="2.5579183">start planet</tspan><tspan
 sodipodi:role="line"
 x="-3.82528"
 y="3.083612"
 id="tspan3804" /></text>
<image
 y="0"
 x="-4"
 id="image3824-5"
 xlink:href="file:///home/acoppes/workspace/superflyingthing/superflyingthing-desktop/src/main/resources/data/images/planet.png"
 height="2"
 width="2"
 startPlanet="" />
<image
 y="5"
 x="-4"
 id="image3824-5-1"
 xlink:href="file:///home/acoppes/workspace/superflyingthing/superflyingthing-desktop/src/main/resources/data/images/planet.png"
 height="2"
 width="2"
 destinationPlanet="" />
<text
 xml:space="preserve"
 style="font-size:0.420555px;font-style:normal;font-variant:normal;font-weight:normal;font-stretch:normal;line-height:125%;letter-spacing:0px;word-spacing:0px;fill:#ffffff;fill-opacity:1;stroke:none;font-family:Arial;-inkscape-font-specification:Arial"
 x="-4.2697434"
 y="8.116293"
 id="text3800-7"
 sodipodi:linespacing="125%"
 transform="scale(1.09098,0.916607)"><tspan
 sodipodi:role="line"
 x="-4.2697434"
 y="8.116293"
 id="tspan3906">destination planet</tspan><tspan
 sodipodi:role="line"
 x="-4.2697434"
 y="8.6419868"
 id="tspan3804-9" /></text>
</g>
<g
 inkscape:groupmode="layer"
 id="layer2"
 inkscape:label="Obstacles">
<path
 style="color:#000000;fill:#0000ff;fill-opacity:1;stroke:none;stroke-width:0.1;marker:none;visibility:visible;display:inline;overflow:visible;enable-background:accumulate"
 d="M 23,1 24,0 19,0 z"
 id="path2994"
 inkscape:connector-curvature="0"
 sodipodi:nodetypes="cccc" />
<path
 style="color:#000000;fill:#0000ff;fill-opacity:1;stroke:none;stroke-width:0.1;marker:none;visibility:visible;display:inline;overflow:visible;enable-background:accumulate"
 d="M 19,10 20,6 9,7 9,10 z"
 id="path3000"
 inkscape:connector-curvature="0"
 sodipodi:nodetypes="ccccc" />
<path
 style="color:#000000;fill:#0000ff;fill-opacity:1;stroke:none;stroke-width:0.1;marker:none;visibility:visible;display:inline;overflow:visible;enable-background:accumulate"
 d="M 9,10 9,7 7,8 6,10 z"
 id="path3002"
 inkscape:connector-curvature="0" />
<path
 style="color:#000000;fill:#0000ff;fill-opacity:1;stroke:none;stroke-width:0.1;marker:none;visibility:visible;display:inline;overflow:visible;enable-background:accumulate"
 d="M 23,10 21,9 20,6 19,10 z"
 id="path3004"
 inkscape:connector-curvature="0"
 sodipodi:nodetypes="ccccc" />
<path
 style="color:#000000;fill:#0000ff;fill-opacity:1;stroke:none;stroke-width:0.1;marker:none;visibility:visible;display:inline;overflow:visible;enable-background:accumulate"
 d="M 23,1 19,0 8,0 10,1 14,3 19,2 z"
 id="path3006"
 inkscape:connector-curvature="0"
 sodipodi:nodetypes="ccccccc" />
<path
 style="fill:#0000f2;fill-opacity:1;fill-rule:nonzero;stroke:none"
 d="M 26.0246,2.56647 30,3 30,0 24,0 23,1 z"
 id="path4152"
 inkscape:connector-curvature="0"
 sodipodi:nodetypes="cccccc" />
<path
 style="fill:#0000ff;fill-opacity:1;fill-rule:nonzero;stroke:none"
 d="M 8,0 0,0 0,10 6,10 6.67202,9.01715 5.44346,9.30067 3.79908,8.73364 2.24921,8.84704 1.45537,8.24222 0.774937,6.16311 0.529226,5.27477 0.567027,4.08401 0.585928,3.06336 1.02065,2.42073 1.26636,1.47569 1.83339,0.662949 2.53272,1.15437 3.30766,0.814156 4.53622,1.15437 4.59292,1.41899 5.00874,0.984265 5.31116,0.644048 5.82148,1.15437 5.93489,1.6269 6.50191,1.36228 6.84213,0.795255 7.65487,0.549544 10.0553,0.625147 z"
 id="path3811"
 inkscape:connector-curvature="0" />
<path
 style="fill:#0000ff;fill-opacity:1;fill-rule:nonzero;stroke:none"
 d="M 23,10 30,10 30,3 28.8428,2.79875 29.3342,4.29192 28.9562,4.29192 29.2775,4.82115 28.7861,5.21807 29.3531,7.27827 28.6727,7.8264 28.5026,8.45013 27.7465,7.9398 27.4063,8.92265 26.7259,8.26112 26.4046,9.35737 25.1193,9.45187 21.8495,9.56528 z"
 id="path3813"
 inkscape:connector-curvature="0" />
</g>
<g
 inkscape:groupmode="layer"
 id="layer3"
 inkscape:label="World">
<path
 style="color:#000000;fill:none;stroke:#ff0000;stroke-width:0.1;stroke-linecap:butt;stroke-linejoin:miter;stroke-miterlimit:4;stroke-opacity:1;stroke-dasharray:none;stroke-dashoffset:0;marker:none;visibility:visible;display:inline;overflow:visible;enable-background:accumulate"
 d="M -1,5 z"
 id="path3806"
 inkscape:connector-curvature="0" />
<image
 y="3"
 x="3"
 id="image3824-5-8"
 xlink:href="file:///home/acoppes/workspace/superflyingthing/superflyingthing-desktop/src/main/resources/data/images/planet.png"
 height="2"
 width="2"
 startPlanet="" />
<image
 y="5"
 x="25"
 id="image3824-5-1-9"
 xlink:href="file:///home/acoppes/workspace/superflyingthing/superflyingthing-desktop/src/main/resources/data/images/planet.png"
 height="2"
 width="2"
 destinationPlanet="" />
</g>
</svg>
